<?xml version="1.0" encoding="utf-8"?>
<!-- Generator: Adobe Illustrator 22.1.0, SVG Export Plug-In . SVG Version: 6.00 Build 0)  -->
<svg version="1.1" id="Layer_1" xmlns="http://www.w3.org/2000/svg" xmlns:xlink="http://www.w3.org/1999/xlink" x="0px" y="0px"
	 viewBox="0 0 15 25" style="enable-background:new 0 0 15 25;" xml:space="preserve">
<style type="text/css">
	.st0{fill:#14A15F;}
</style>
<path class="st0" d="M7.7,0.4H6.6c-2.4,0-4.4,2.2-4.4,4.9v14.2v0.4h0.1c0.1,0.2,0.2,0.3,0.4,0.3c0.2,0,0.5-0.3,0.5-0.3v-0.4V5.3
	c0-2.1,1.6-3.9,3.5-3.9h1.1c1.9,0,3.5,1.7,3.5,3.9V21c0,0,0,2.5-2.3,2.4C6.4,23.5,6.4,21,6.4,21V6.1V5.9c0.1-0.2,0.2-0.5,0.7-0.5
	c0.7,0,0.7,0.1,0.7,0.5l0,13.7c0,0.2,0.1,0.3,0.1,0.3c0.1,0.1,0.3,0.2,0.4,0.2c0.1,0,0.3-0.1,0.4-0.2c0,0,0.1-0.1,0.1-0.2l0-13.7
	c0-0.8-0.4-1.5-1.7-1.5C6,4.4,5.5,5.2,5.5,5.9v15.2c0,0,0.4,3.5,3.4,3.3c3-0.1,3.1-2.3,3.2-3.1l0-15.9C12.1,2.6,10.1,0.4,7.7,0.4z"
	/>
</svg>
