<svg xmlns="http://www.w3.org/2000/svg" viewBox="0 0 250 49.19"><defs><style>.a{fill:#ee3e33;}.b{fill:#186f50;}</style></defs><path class="a" d="M18.33,44.26a1.59,1.59,0,0,1-1.08-.4,1.23,1.23,0,0,1-.47-1,1.24,1.24,0,0,1,.37-.88,3.53,3.53,0,0,1,1.24-.78,22.4,22.4,0,0,1,2.13-.71v2.93A4.53,4.53,0,0,1,18.33,44.26Zm2.51.72a1.17,1.17,0,0,0,.85.29A3.35,3.35,0,0,0,24,44v-.49a5.84,5.84,0,0,1-.89.64.67.67,0,0,1-.3.06.5.5,0,0,1-.29-.09.49.49,0,0,1-.17-.33,9,9,0,0,1-.06-1.39V39.7a3.82,3.82,0,0,0-.2-1.52,1.81,1.81,0,0,0-.93-.83A5.62,5.62,0,0,0,19,37a4.75,4.75,0,0,0-2.67.64A1.71,1.71,0,0,0,15.38,39a.76.76,0,0,0,.26.62,1,1,0,0,0,.66.23,1,1,0,0,0,.68-.22.76.76,0,0,0,.25-.62l0-.5a.86.86,0,0,1,.41-.68,1.79,1.79,0,0,1,1.07-.29,1.92,1.92,0,0,1,1.36.44,2.22,2.22,0,0,1,.47,1.63v.31a27.8,27.8,0,0,0-3.65,1.25,4,4,0,0,0-1.54,1.1,1.6,1.6,0,0,0-.33,1,1.81,1.81,0,0,0,.67,1.48,2.53,2.53,0,0,0,1.69.56,3.41,3.41,0,0,0,1.24-.23A16.12,16.12,0,0,0,20.52,44,1.35,1.35,0,0,0,20.84,45Z"/><path class="a" d="M27.68,38.69c.72-.58,1.15-.91,1.28-1a4,4,0,0,1,1-.51A3.41,3.41,0,0,1,31.11,37a2.86,2.86,0,0,1,1.6.44,2.1,2.1,0,0,1,.9,1.26,7.25,7.25,0,0,1,1.87-1.37A4,4,0,0,1,37.07,37a3,3,0,0,1,1.4.33,2.32,2.32,0,0,1,1,1.06A3.8,3.8,0,0,1,39.67,40v3.4a2.53,2.53,0,0,0,.14,1,.82.82,0,0,0,.39.33,2.55,2.55,0,0,0,.93.13v.31H36.28v-.31h.21a1.92,1.92,0,0,0,1-.21.74.74,0,0,0,.37-.42,5.71,5.71,0,0,0,0-.84V40a2.43,2.43,0,0,0-.29-1.36A1.63,1.63,0,0,0,36.24,38a3.14,3.14,0,0,0-1.15.23,5.77,5.77,0,0,0-1.41.86l0,.08,0,.38v3.76a2.5,2.5,0,0,0,.11,1,.87.87,0,0,0,.42.34,3.28,3.28,0,0,0,1.07.13v.31h-5v-.31a2.63,2.63,0,0,0,1.12-.16.84.84,0,0,0,.43-.46,3.3,3.3,0,0,0,.06-.85V40a2,2,0,0,0-.37-1.37A1.66,1.66,0,0,0,30.23,38a2.83,2.83,0,0,0-1.16.26,4.22,4.22,0,0,0-1.39.83v4.22a2.31,2.31,0,0,0,.14,1,.86.86,0,0,0,.4.35,3,3,0,0,0,1.07.12v.31H24.43v-.31a2.55,2.55,0,0,0,.94-.12.89.89,0,0,0,.4-.37,2.56,2.56,0,0,0,.13-1v-3a8.49,8.49,0,0,0-.09-1.68.67.67,0,0,0-.24-.4.79.79,0,0,0-.45-.11,2.45,2.45,0,0,0-.73.13L24.22,38l3-1h.46v1.7Z"/><path class="a" d="M44.87,32.84v5.81a7.77,7.77,0,0,1,1.91-1.36,3.49,3.49,0,0,1,1.4-.3,2.7,2.7,0,0,1,1.45.38,2.14,2.14,0,0,1,.9,1.16,6.51,6.51,0,0,1,.21,2v2.8a2.35,2.35,0,0,0,.15,1,.76.76,0,0,0,.36.32,2.3,2.3,0,0,0,1,.13v.31H47.35v-.31h.23a1.86,1.86,0,0,0,1-.17.82.82,0,0,0,.38-.5,5,5,0,0,0,0-.8V40.56a5.1,5.1,0,0,0-.18-1.71,1.18,1.18,0,0,0-.53-.61,1.92,1.92,0,0,0-.89-.2,3.05,3.05,0,0,0-1.12.22,5.09,5.09,0,0,0-1.37.91v4.18a2.6,2.6,0,0,0,.11,1,.91.91,0,0,0,.42.33,3.28,3.28,0,0,0,1.07.13v.31H41.62v-.31a2.45,2.45,0,0,0,1-.16.64.64,0,0,0,.34-.33,2.53,2.53,0,0,0,.13-1V36.19A8.51,8.51,0,0,0,43,34.53a.71.71,0,0,0-.24-.43A.89.89,0,0,0,42.3,34a3.42,3.42,0,0,0-.74.14l-.15-.32,3-1Z"/><path class="b" d="M66.81,18.4c-.17-.06-.6,0-.74,0l0-.09-.15-.06v0h-.09c-.06-.06-.1-.13-.15-.19h0c0-.11.11-.19.14-.25h.1c0-.17.16-.2.24-.34l.25-.05v-.1h0a1.39,1.39,0,0,1-.15-.19h-.19a.41.41,0,0,0-.05-.09h-.15v-.06h-.09v0h-.15V16.8H65.4v-.05h-.3V16.7l-.1-.05v-.09h0v0l.35,0v0h0c0-.2-.07-.22-.24-.24,0-.18,0-.21-.2-.24a.51.51,0,0,0-.14-.25h0c0-.1-.06-.19-.1-.29l-.09-.05c0-.1,0-.2-.05-.29l-.1-.05c-.07-.18.09-.21.1-.24s0-.2.05-.3h-.05c0-.05,0-.09,0-.14l-.24.05c0,.23-.15.19-.24.33-.2,0-.23-.1-.34-.19v0h-.1v-.05h-.44s0,0-.1,0,0,.08-.09,0a1.13,1.13,0,0,1-.1-.13h-.1v-.06l-.48.06A6.44,6.44,0,0,0,61,14.32v-.09h0a1.17,1.17,0,0,1,.24-.3c0-.33-.1-.24-.29-.39l-.1-.14-.09-.05c0-.08,0-.16,0-.24l-.44-.39h-.09a.47.47,0,0,1,0-.1h-.15l-.24-.34h0v-.1c.33-.06.64-.08.82.15h0v.24c.05,0,0,0,.05,0h.34c.07-.27.08-.1.24-.19v0a.64.64,0,0,1,.24-.1v-.1c.06,0,0,0,0-.09l-.29-.24v0h-.19a.88.88,0,0,1-.05-.15L61,11.6v0h-.09l-.05-.1-.25-.05-.09-.14-.29-.11a.71.71,0,0,1-.1-.14l-.2,0a1,1,0,0,1,0-.1,1.08,1.08,0,0,0-.35-.19c-.08.1-.11,0-.19.1a3.72,3.72,0,0,0-.19.34H59v0h0v-.25h0c0-.38.06-.34-.19-.48v-.05h-.1v0h-.44l0-.09H58v-.06l-.39,0V10h-.1V10h-.19v0H57V9.85h-.1l0-.09H56.7l-.44-.49h-.53v0h-.15V9.17l-1,0v0h-.14v.05h-.1v0c-.13.06-.15,0-.24.1s.05.29,0,.48H54V9.9h-.15a.94.94,0,0,0,0-.43h0v-.1h-.05V9s0,0,0-.1,0,0-.1,0a1.23,1.23,0,0,0-.73.54h-.14V9.37h-.05c0-.12.07-.1.09-.15L52.77,9a1.15,1.15,0,0,0-.4,0V8.93h0a4.53,4.53,0,0,0,0-.53h.06V8.3l.09,0v-.1h0V8c.09-.14.2,0,.24-.29l-.29,0a.83.83,0,0,1,0-.15h0v-.1h-.06V7.13A2.41,2.41,0,0,0,52,6.94v-.1c-.3-.08-.3-.37-.69-.39a.57.57,0,0,0,0-.14.64.64,0,0,0,.2-.2h.57v.34c.19,0,.58,0,.69,0h.09a.84.84,0,0,1,.06-.14l.14,0a.58.58,0,0,1,0-.14L53.2,6V5.78h-.05l.15-.44.1,0V5.15h0A.66.66,0,0,0,53.3,5a3.43,3.43,0,0,0-.68,0c-.06.19-.19.24-.25.44a1.11,1.11,0,0,1-.24,0c0-.09-.05-.1-.05-.1V4.9h0c-.11-.15-.24-.17-.34-.29h-.29c-.1.11-.2.22-.29.34H51a1.16,1.16,0,0,0-.2-.24v-.1c-.32,0-.31.15-.39.39h-.09a2.55,2.55,0,0,1-.15-.73l-.29-.1,0-.09h-.1V4h-.38V4h-.25v0H49V3.88h-.15v0h-.1V3.78h-.14v0h-.25V3.69l-.24,0V3.59a.52.52,0,0,0-.24-.15c0-.06,0-.13,0-.19l-.29,0v0h-.19v0h-.25V3.15H47v0l-.59,0V3h-.1V3H46a2.16,2.16,0,0,1-.58.38v.2l.1,0v.1c-.05.05,0,0-.05.09l-.2,0a.37.37,0,0,0-.09-.2h0c0-.16,0-.32,0-.49s0,0,0,0h0V2.86c-.09-.18-.19-.08-.1-.34a.81.81,0,0,0-.3,0v.15h-.05v.43h0a2.43,2.43,0,0,1-.14.2h-.2a2.43,2.43,0,0,0-.14-.2L44,3v-.1c-.11,0-.08,0-.14-.1-.29,0-.2.15-.34.3s-.28.1-.34.38a1.56,1.56,0,0,0-.58.53l-.24,0-.06-.2c.06,0,.06-.11.1-.15h.1s0-.06.1-.09-.13-.17-.2-.29-.17,0-.24,0v0H42V3.4l-.78-.06-.09-.14h-.1V3.15c-.11-.07-.07,0-.15-.1a.87.87,0,0,0-.38.06.26.26,0,0,0-.05.09l-.29,0v.09s-.19,0-.2.06l-.1.14H39.7v0h-.14l-.06.1a3.09,3.09,0,0,1-.68,0,1.36,1.36,0,0,0-.09-.64l-.1,0V2.72a.78.78,0,0,0-.15-.1c0-.06,0-.1,0-.15h-.1V2.42a.48.48,0,0,0-.2.14.42.42,0,0,1-.24,0v0h-.09V2.42h-.2l-.15-.19-.19,0a.42.42,0,0,1,0-.1L37,1.94a.75.75,0,0,1-.1-.34.15.15,0,0,0,0-.15h0V1.31h-.43a.31.31,0,0,0-.05.1L36,1.31v.1c-.13,0-.11,0-.14.14l-.35.09-.09.15a1.57,1.57,0,0,1-.54.1v0H34.6V1.79a1.43,1.43,0,0,1-.39-.34l-.92.1V1.6h-.1l0,.1-.19,0-.15.2L32.42,2l-.1.14h-.1v.05l-.19,0v0h-.54v.05l-.2,0v0l-1.4,0v0h-.2V2.28h-.05a1.91,1.91,0,0,0-.68,0c-.13,0-.11,0-.14.14a.51.51,0,0,0-.24.14v.06h-.1v0h-.15v.05h-.1v0H28v.05H27.8v0c-.23.07-.53,0-.68.1s-.34,0-.39.19h-.05a3.15,3.15,0,0,0,.14.39h.05v.34h.06V4h0c.05.07.05.11.05.24h-.15c-.09.2-.24.28-.29.54a.93.93,0,0,1-.53-.1L26,4.56l-.24,0v0a.49.49,0,0,0-.34.15.93.93,0,0,0-.05.1h-.09l-.06.09h-.09v0l-.34,0v0l-.2.05-.05.1h-.19a.81.81,0,0,0-.48.33l-.59,0-.1-.15h-.29v0a.88.88,0,0,0-.53.15.41.41,0,0,0-.05.09.86.86,0,0,1-.49,0h-.24v0l-.25,0v0c-.12,0-.24.09-.33.1l-.25,0-.09.15h-.1v0h-.24v0h-.1a.93.93,0,0,1,0,.1H20v0l-.2.05-.1.19h-.19V6c-.12.09-.17.2-.34.24s-.09.14-.14.24h-.3v0c-.17-.07-.15-.13-.38-.14,0,.28-.05.17-.2.29v0L18,6.7v.1H18v.09l-.09.05v.14a.67.67,0,0,1,.19.1v.05h.39c0,.21-.07.16-.15.29h-.43s0-.06-.1,0v0l-.24.05c0,.13-.07.11-.1.24a.58.58,0,0,0-.39.15v.1l-.14.1v0c-.09,0-.16-.1-.25-.14V8H15.8a5.55,5.55,0,0,0-1.31.05h-.34v0H14v.06h-.69v0h-.1v.05a1,1,0,0,1-.53.1c0,.1,0,0,0,.1s-.28,0-.43,0-.25.16-.54.15v.09h-.05c-.06.09-.13.17-.19.25l-.29,0a.41.41,0,0,0-.05.09l-.25.05,0,.1h-.1v.05l-.19,0v0h-.25v.05l-.14,0a.88.88,0,0,0,0,.15l-.15,0v.06l-.43.14v0H9.34V10h-.1v.05H9.1l-.06.1H9a.16.16,0,0,0-.05.09l-.2,0-.1.15-.49,0v0H8v.05H7.3v.05L7,10.58v.05H6.77l-.1-.05v.05h-.3v0h-1v0l-.29.06,0,.09H4.72a.65.65,0,0,1-.09.1v.19c.27.05.15.12.29.2H5v.05l.25-.05v.05h.1a1,1,0,0,1,0,.1h.35l.09-.15c.16-.07.43,0,.53.05s0,.22,0,.34A1.63,1.63,0,0,1,6,11.8c0,.11,0,.17-.15.24a.74.74,0,0,0,0,.14.28.28,0,0,1,.09.1,4.4,4.4,0,0,1,1.22.05v.1H7.05v.1L7,12.62l-.19.05a.31.31,0,0,0,0,.1h-.2v.05H6.43v0h-.1v.05h-.1V13l-.14,0v.05C6,13,6,13,6,13a1.52,1.52,0,0,0-.78.43c-.23,0-.37-.23-.58-.13l0,.09-.24,0s0,.07,0,.11h-.1v0H3.56v.05H3.37v.05h-.1v0h-.1v.05a.08.08,0,0,1-.1-.05.68.68,0,0,1-.19.05v0h0v.14l.09.05v0H3l.1.14h.15a.77.77,0,0,0,.44.15,1.13,1.13,0,0,1,0,.15l.3,0,.09.15.24.05s0,.07.1.09c-.07.26-.48.34-.68.49l-.09.1v.1l-.1,0v.19h0v.1H3.51v.09l-.1.05v.1H3.36v.1h0a2,2,0,0,0,0,.24h0v.24l-.69.3c0,.22,0,.21.1.33h0v.15h.06v.05H2.78l.06.24.13.1.35.49c0,.2,0,.42,0,.63a6.76,6.76,0,0,0,1.21,0v.11l-.14,0v.05H4.19v.05h-.1s0,.06-.1.1v.09a.31.31,0,0,1,.1.15l.44.05.14.19c.07,0,.09-.08.2,0v0H5v.05l.2.05V20h.15v0c.08.06.06,0,.09.15h.09a.94.94,0,0,1,.06.15l.29.24v.1h.05c0,.08-.28.22-.29.24V21a1.34,1.34,0,0,0-.69.43c0,.1,0,.2,0,.3l.1,0c.06.18-.14.3-.19.39-.25,0-.56,0-.68.1s-.19.26-.3.48-.14.2-.19.3l-.19.05v.05h-.2l0,.09-.48.05v0H2.73v.05H2.58v.05L2,23.46v.09H2V24H1.91v.39h0v.15H1.81a.34.34,0,0,0-.1.24l.29.09.1.15h.34l.1.15h1l.09.14h.49v.05h0a.4.4,0,0,1,0,.24h0v.53H4c0,.1,0,.2,0,.3H4v.19h0v.1l.09.05c0,.09.08.2.11.29h.43c0-.09,0,0,0-.09s.36,0,.53-.06,0-.06.15-.09v.09h-.1c0,.1,0,0,0,.1v.05H5v.05c-.11.08,0,0-.09.14h0v.15l-.15.1a2,2,0,0,1,0,.24h0v.05l-.29-.05v.05h0v.39h0c0,.13,0,.11.15.14v.1h.1v.05h.44l.09.14h.1v0h.33s0,.07,0,.1h.1v.05l.34.05,0,.09h.1v0l.53,0,0-.09h.1V28.8H7.3v-.05l.19-.05v-.05h.29a.88.88,0,0,0,0-.15h0c0-.16,0-.18-.15-.24,0-.29.09-.22.3-.29v-.24l-.25-.05a2,2,0,0,0,0-.24c.33,0,.31,0,.39-.24.2,0,.17.06.3.14v.05c.17.08.41-.06.53.05h.29v-.05h0v-.54s0,0,.05-.09c.17,0,.24-.08.39,0l0,.09h.1v0h.68V27h0a1.73,1.73,0,0,1-.14.34h-.05a.76.76,0,0,0,.1.58l.19.24.24.06.1.14h.09l.06.1h.09v.05h.15v0a.62.62,0,0,0,.29.15v.1a4.09,4.09,0,0,0,.87.1,2.54,2.54,0,0,0,0,.29l-.1,0v.4l.29,0c0-.09,0,0,0-.1s.29,0,.43-.09a.93.93,0,0,0,0-.1.55.55,0,0,1,.44-.19v.09l.29.05s0,.07.05.1.25.08.44.05a.94.94,0,0,1,.39-.54v0H15a1.12,1.12,0,0,0,.39-.39.69.69,0,0,1,.19,0v.1c-.12.11,0,.19-.24.25,0,.09,0,0,0,.09s.09.14.14.24h.69v0l.24-.05v.05c.15,0,.26-.07.34-.05v.05h.09v0h.11v.05H17l.1.1h.09l.06.1h.14v0h.29c.42,0,1-.08,1.21.15a2.42,2.42,0,0,0,.83-.05,1.53,1.53,0,0,1,.05-.34c-.05,0-.05-.06-.1-.09s-.28,0-.43-.05V29l-.35-.14a.54.54,0,0,1,.06-.25c.27,0,.33.23.58.29v0h.1a1,1,0,0,1,0-.1h.05v-.15h.05a1.33,1.33,0,0,0,0-.19h.34l.34.39a1.9,1.9,0,0,0,.68.14c0-.25,0-.19.09-.34l.54.15a.93.93,0,0,0,.05.1l.29,0v0h.09V29l.29-.05c0-.15.08-.27,0-.39,0-.32.19-.21.39-.34l0-.09.15-.05.15-.19h.09l.05-.1h.15c.06-.09.13-.17.19-.25h.15v0H24v-.05l.15-.1c0,.06,0,.06.1.1v.14h.15v-.05a.93.93,0,0,0,.48-.53,1.49,1.49,0,0,0,.39-.09V26.9h.53V27l.2,0v.05h.24v.05c.15.07.26.06.34.19a.43.43,0,0,0,.19-.05V26h.05c.11-.12.14,0,.25-.1l.09-.14h.3v-.05h.09a.47.47,0,0,0,.05-.1l.58-.05a3.45,3.45,0,0,1,1.66,0h.28v.05h.15a.47.47,0,0,1,.05.1l.34.05.1.14a.19.19,0,0,0,.19,0l.1.15.24,0v.05l.2,0v.05l.24.05.05.1h.34a.93.93,0,0,0,0,.1.76.76,0,0,0,.09.09h.1l.15.2.14,0V27h0v.1a.31.31,0,0,1,.1,0v.43h0v.3h.06c0,.14,0,.29,0,.43s0,.55-.11.68V29h-.14v.05h-.09v.05h-.4v0H32v.05h-.1v.05H31.1a1.3,1.3,0,0,0-.1.15h-.58v0h-.25v.05h-.09v.05h-.15v.05c-.06,0-.08-.08-.19-.05v.05l-.2.05v0h-.33v.05h-.1l-.1.14h-.29l-.1.15h-.39v0h-.1v.06h-.24v0h-.34v.05c-.08,0-.09,0-.1-.05l-.63.05a.31.31,0,0,1-.05.1l-.24,0v.05H25.9V30.4h0v.05h-.53v0l-.59.05-.68-.05a1,1,0,0,1,0,.1h-.1v.05h-.1v.05h-1a1.3,1.3,0,0,0-.1.15h-.1v0h-.33a1.3,1.3,0,0,0-.1.15h-.39v0l-.2.05v.05h-.39l-.09.14H20.7l-.05.1h-.09v0l-.39.06v0l-.2.05v.05h-.48v.05h-.24v.05h-.1v0h-.69v.05h-.09a.41.41,0,0,0-.05.09H16.43l-.34.2a.78.78,0,0,0,0,.19,2.45,2.45,0,0,1,.39.15h5.69v-.05h.09l.05-.1h.1v-.05l.24.05H24.1v-.05h.39v0l.19-.05v0h1.07a5.8,5.8,0,0,0,1.31-.2h.54a5.44,5.44,0,0,1,1.45.1h.49v.05h.24v0l.15,0v0h.92v0h.09v.05h.15v0l.44.05v0l.2,0v0h.34v.06l.24,0v.05h0v-.05h.48l.06.15a7.67,7.67,0,0,0,1.21.05h.48v-.05h.2v0l.19,0v-.06c.06,0,.12.08.24.06v-.06h1.07v0h.15v0l1.45-.05v0H38v0h.92a.33.33,0,0,0,.06-.1h.39v-.05h.28v0h.54v0c.08,0,.08,0,.1,0h.63v0h.14v-.05h.1v0h.15V32h1.6a.41.41,0,0,1,.05-.09h.1v-.05h1v0l0,0h0v0h.63v-.05l.3-.05h1l.25.05v-.05h.15l.08-.14h.11v-.06c.08,0,.08.06.1.06h.82v-.06h.72v0h.11v-.05l.63-.05s0,.07.09.05v-.05l1.46-.05a1,1,0,0,1,.44,0,.12.12,0,0,0,.15,0,11.81,11.81,0,0,1,2.19-.09l1.21-.05c.18,0,.47,0,.58-.05A2.77,2.77,0,0,0,56,31v-.2h0c-.1-.09-.28,0-.43-.05a3.23,3.23,0,0,0-.93-.1H54v-.05h-.49v0h-.39v-.05h-.63v-.06l-.49.06v-.06h-.14v0h-.25V30.4H50.19l-.35.05V30.4h-.09s-.07-.09-.1-.15h-.58c-.19,0-.78,0-1.12,0l-.1,0v0h-.19a.78.78,0,0,1-.1.15H45.23s0,.05-.1.05V30.4a1.47,1.47,0,0,1-.39.09l-1.16,0V30.4h-.29v0h-.15v0H43v-.06h-.1v0c-.11,0-.27.1-.43,0v0h-.39v-.05h-.16v-.05h-.53v-.05H41a.31.31,0,0,1-.05-.1h-.34v-.05H38.73v-.05h-.2v0h-.15v-.05h-.53a5.66,5.66,0,0,0-.92-.05h-.49v0H36.3v0h-.44a.93.93,0,0,1,0-.1h-.1v-.05h-.1v-.05h-.15l0-.1h-.09v0h-.15L34.84,29V28.9l-.1,0v-.1h-.05v-.09h0V28h0v-.14h0v-.1h0V26.66h0v-.09h0v-.15h0v-.68l.1,0v-.1h0v-.14h.05c0-.06,0-.13,0-.19h0v-.15h0l.29-.34h.1a.42.42,0,0,0,0-.1h.11a1.1,1.1,0,0,0,.09-.14l.14-.05a.53.53,0,0,0,.06-.1h.29l.1-.14h.24a2.22,2.22,0,0,1,1-.1v.05h.25c.15,0,.19.13.43.14v-.09l.24,0v-.05h.1s0-.07.05-.1h.24s.06-.1.1-.14c.23-.11.28.08.43-.15.28,0,.1,0,.2.19h0a.66.66,0,0,0,.05.15c.26.05.24,0,.49-.05,0,.06,0,0,0,.05v.2a.86.86,0,0,0-.53.33h-.05v.1h0c0,.06,0,.1-.1.15s.07.16.15.29h.14v-.05l.78.05h.44a1.19,1.19,0,0,1,.09.15h.59l.09-.15h.4l.09-.14h.39l.49,0v.05h.72v.05h.35a.67.67,0,0,1,.09-.14h.35a1.1,1.1,0,0,0,.33-.35.57.57,0,0,1,.44.15.93.93,0,0,1,.05.1h.09a1.58,1.58,0,0,0,.34.19v.1c.15,0,.15.08.25.14v.1h.14v.05H47l.05.1h.63v0h.54v0a.66.66,0,0,1,.38,0c0,.13.05.15.15.2v.05c-.15,0-.13,0-.19-.1-.43,0-.18.15-.3.39,0,0-.08.05-.09.09a.45.45,0,0,1-.39-.14c-.15,0-.43,0-.48.05v.15h-.06v.09h0a.83.83,0,0,1,0,.15.43.43,0,0,0-.34.14v.05h-.1v0l-.34.09a.47.47,0,0,1-.05.1h-.09v.05H45V27h-.1v0h-.1a.27.27,0,0,0,0-.11l-.18,0a.6.6,0,0,0-.1.48h0v.1h0a.88.88,0,0,0,0,.44,1.26,1.26,0,0,0,.53.05v-.05h.39l.29.24c0,.18-.08.21-.15.34a1.44,1.44,0,0,0,.78.24l.1-.34h1.46v0H48v-.05h.15v0h.09v-.05l.15-.05a.7.7,0,0,0,.15.19v.1h.09v.1l.2.05v0c.08,0,.34-.16.44-.19s.22,0,.29.1h.68v.05l.1,0v.15l.09.05v.05h.09v.05l.3.09v0a3.08,3.08,0,0,0,1,0c.2-.05.32.1.44,0s.11-.06.19-.14l.1-.05v-.34s.08-.06.09-.1H53l.11.15h.29v.05h.09v0h.09l.06.1h.29v.05H54a.47.47,0,0,0,0,.1h.09v.05h.25V28.8a.39.39,0,0,1,.34.14h.48l.43-.48a.3.3,0,0,1,.3.2,1,1,0,0,0,.24-.05,1.5,1.5,0,0,0-.09-.39h0v0a.24.24,0,0,0,.2,0v0h.1a1,1,0,0,0,0-.1h.15V28h1.8V28l.19,0v-.05l.78-.05v.05h.19a1.46,1.46,0,0,0,.29-.64h.39l.1.15h.49a8,8,0,0,1,1.12.05.83.83,0,0,1,0-.15h.05c0-.08-.11-.24-.15-.29h0v-.34h0v-.1H61.8c0-.14-.07-.29-.1-.44h1.07v0h.1v0a.67.67,0,0,1,.43-.1c0-.1,0,0,.06-.1l-.06-.33a.71.71,0,0,0-.14-.1v-.24l-.1-.05V25H63c-.06-.12,0-.07-.1-.14v-.25H63v-.05h.33l.06-.09h.09v-.05h.48v-.05h0c0-.11,0-.13,0-.2h0V24h0v-.39a.45.45,0,0,1-.1-.1c-.35,0-.6,0-.73.2h-.19l-.1-.15-.14-.05c0-.1,0,0,0-.1a1.39,1.39,0,0,1,0-.48h.05v0h.24a.71.71,0,0,1,.1-.14h.48s0-.07.15-.11,0-.09,0-.14h0v-.1h.05c.06-.17-.14-.39-.19-.49h-.44s-.07.22-.24.15a.56.56,0,0,1-.1-.15h-.54v-.05h-.09v0h-.58v0h-.1v.05h-.24v-.05h0a1.21,1.21,0,0,1,0-.14h0v-.53h.05v-.15l.1-.05v-.19h.05v-.1l.1-.05v-.09h0v-.1h0s0-.1.05-.15h.1c.07-.28.32-.47.43-.72a1,1,0,0,1,.4.14v0a2.83,2.83,0,0,1,.43,0l.15,0c0-.06.09-.13.15-.2H64a8.8,8.8,0,0,1,1.36,0l-.06.54a1.69,1.69,0,0,1,.1.39c.06,0,0,0,0,.05.47,0,.11-.16.24-.44l.1,0V20l.34-.24c0-.32-.12-.1-.29-.25h0c0-.15.09-.15.19-.23v-.05l.15-.05c0-.05.07-.32.1-.4.23,0,.31.13.53.16A2,2,0,0,0,66.81,18.4ZM18.42,29a.24.24,0,0,1-.2-.15c.12,0,.11.06.2.1ZM21,6.11H20.7V6.06h-.05c.07-.13.2-.18.29-.29.14,0,.12,0,.15.15h.05C21.11,6,21.09,6,21,6.11ZM33.67,2.18c-.27,0-.24-.13-.39-.24v-.1a.65.65,0,0,1,.39,0A.5.5,0,0,1,33.67,2.18ZM44,24.72h-.34v0c-.05-.06,0,0-.05-.1.14-.05.21,0,.29-.14l.15,0A.73.73,0,0,1,44,24.72Zm2.82,2.67h0v-.1h-.05l-.1-.14h0v-.06h0v0a.32.32,0,0,1,.2.1v0H47a.58.58,0,0,1,.19.34C46.92,27.54,46.92,27.54,46.79,27.39Zm1.7-.78c-.13,0-.11,0-.15-.15h.15ZM50,6h-.1a.93.93,0,0,1-.05.1h-.14a3.07,3.07,0,0,0-.24.29h-.35v0l-.19,0v0h-.49a1.46,1.46,0,0,0,0-.2h0V5.53c.2,0,.26.11.29.29l.14,0v0h.1V5.77h.39v0h.29a.41.41,0,0,1,.05-.09c.19-.08.28.07.43.09S50,6,50,6Zm.39.1c0,.13,0,.11-.15.15s0,0-.09,0a.31.31,0,0,1-.05-.19h.23V6.06h.1C50.34,6.12,50.39,6.07,50.34,6.11ZM52,7.66h0a.58.58,0,0,1-.05-.14H52Zm6.85,4.76h-.29l-.05-.1h-.09v0a.38.38,0,0,0-.34.1v0h-.49v.06h-.44v0h-.09v.05c-.37.12-.68-.35-.93,0-.25,0-.24-.11-.39-.2,0-.21.11-.15.2-.29s.54,0,.63,0,.23-.24.29-.44a.55.55,0,0,1,.25,0v.1a4.32,4.32,0,0,1,1,0h.24l0,.1h.19l.44.29Zm2.82,3v.05h-.1v0a1.21,1.21,0,0,1-.14.1v0l-.15,0c0-.1,0,0-.05-.1a1.12,1.12,0,0,1,.05-.39.82.82,0,0,1,.49.1C61.79,15.4,61.79,15.36,61.7,15.44Zm.88.24h0v0l-.2,0c0-.15-.06-.29-.1-.44h.06v-.1c.19.06.05,0,.14.15l.1.05v.19h0Zm1.31,0c-.1,0,0,0-.1.06s-.26,0-.34-.06a.73.73,0,0,1-.05-.09c-.15-.09-.13.09-.19-.14h-.05c0-.1.07-.15.1-.2a.57.57,0,0,1,.34.15l0,.09h.14v.05l.14.05A.25.25,0,0,1,63.89,15.72Zm.19,0v-.09c.06.06,0,0,0,.09Zm.44,3.07h-.15v-.05c-.05,0,0,0,0-.1l.24-.29h.19Z"/><path class="b" d="M79.07,40.8l1.79-4.11,1.79,4.11Zm0,3.82v-.27a2.77,2.77,0,0,1-.75-.13A.53.53,0,0,1,78,43.7a1.63,1.63,0,0,1,.12-.51c.08-.21.32-.81.73-1.79h4.11l.63,1.44a3.71,3.71,0,0,1,.21.58,1.76,1.76,0,0,1,.08.39c0,.21-.07.35-.2.4a3.42,3.42,0,0,1-.87.14v.27h4v-.27a1.51,1.51,0,0,1-.79-.27,3.64,3.64,0,0,1-.62-1l-3.88-8.45h-.33l-3.25,7.32a11.58,11.58,0,0,1-1,2,1.25,1.25,0,0,1-.9.43v.27Z"/><path class="b" d="M87.24,44.43a2,2,0,0,0,.8-.19,1,1,0,0,0,.3-.83V39.62a1.16,1.16,0,0,0-.14-.71.67.67,0,0,0-.49-.16h-.24l-.19.05v-.25l.56-.18,1-.34a7.37,7.37,0,0,1,.73-.25,0,0,0,0,1,0,0,.45.45,0,0,1,0,.14v1A5.87,5.87,0,0,1,90.89,38,2.65,2.65,0,0,1,92,37.79a1.61,1.61,0,0,1,1.24.51,2.35,2.35,0,0,1,.4.76,6.13,6.13,0,0,1,1-.82,2.81,2.81,0,0,1,1.49-.45,1.62,1.62,0,0,1,1.64,1,4.51,4.51,0,0,1,.23,1.7v3a.89.89,0,0,0,.24.72,1.91,1.91,0,0,0,.86.25v.19H95.67v-.19a1.56,1.56,0,0,0,.87-.26,1.11,1.11,0,0,0,.21-.8V40.22a2.74,2.74,0,0,0-.16-1,1.12,1.12,0,0,0-1.11-.59,1.77,1.77,0,0,0-1,.31,4.27,4.27,0,0,0-.7.59v3.73a1.56,1.56,0,0,0,.22.89,1.13,1.13,0,0,0,.92.33v.19H91.45v-.19a1.47,1.47,0,0,0,.92-.33,2.31,2.31,0,0,0,.2-1.22v-2a5.34,5.34,0,0,0-.15-1.55,1,1,0,0,0-1.06-.71,1.91,1.91,0,0,0-.91.24,3,3,0,0,0-.79.64v4a1.12,1.12,0,0,0,.2.76,1.41,1.41,0,0,0,.88.21v.19H87.25v-.19Z"/><path class="b" d="M102.31,38.3a1.33,1.33,0,0,1,1.25.65,3,3,0,0,1,.29,1.08h-3.21a2.88,2.88,0,0,1,.35-1A1.46,1.46,0,0,1,102.31,38.3Zm.43-.51a3,3,0,0,0-2.36,1.06,3.77,3.77,0,0,0-.91,2.54,3.81,3.81,0,0,0,.79,2.38,2.6,2.6,0,0,0,2.21,1,3,3,0,0,0,2.11-.79,4.2,4.2,0,0,0,1.17-1.72l-.26-.09a4.1,4.1,0,0,1-1,1.14,2.18,2.18,0,0,1-1.35.4,2.28,2.28,0,0,1-1.71-.77,3.82,3.82,0,0,1-.8-2.47h4.83a2.51,2.51,0,0,0-.81-2A2.79,2.79,0,0,0,102.74,37.79Z"/><path class="b" d="M106.18,44.39a1.8,1.8,0,0,0,.92-.24.92.92,0,0,0,.24-.76V40.11a2.8,2.8,0,0,0-.14-1,.54.54,0,0,0-.52-.31l-.2,0a1.32,1.32,0,0,0-.26.05V38.6l.9-.3.64-.22c.26-.09.52-.19.79-.31a.07.07,0,0,1,.07,0,.62.62,0,0,1,0,.16v1.18a5.74,5.74,0,0,1,.93-1,1.47,1.47,0,0,1,.93-.36.88.88,0,0,1,.63.22.77.77,0,0,1,.06,1.05.61.61,0,0,1-.47.21.91.91,0,0,1-.58-.26.79.79,0,0,0-.45-.25,1,1,0,0,0-.64.41,1.23,1.23,0,0,0-.39.85v3.27a1.09,1.09,0,0,0,.3.87,1.64,1.64,0,0,0,1,.23v.23h-3.79v-.23Z"/><path class="b" d="M112.79,34.7a.79.79,0,0,1,.57-.23.77.77,0,0,1,.56.23.71.71,0,0,1,.24.54.69.69,0,0,1-.24.52.77.77,0,0,1-.56.23.79.79,0,0,1-.57-.23.7.7,0,0,1-.23-.52A.74.74,0,0,1,112.79,34.7Zm-1.17,9.73a2,2,0,0,0,1-.27q.21-.19.21-1V39.66a2.06,2.06,0,0,0-.07-.67.46.46,0,0,0-.48-.31l-.17,0-.46.11v-.19l.33-.11c.88-.28,1.49-.49,1.84-.63a1,1,0,0,1,.27-.09.41.41,0,0,1,0,.11v5.21a1.73,1.73,0,0,0,.21,1,1.65,1.65,0,0,0,1,.27v.19h-3.68v-.19Z"/><path class="b" d="M121.19,38.24a1.28,1.28,0,0,1,.69,1,.65.65,0,0,1-.72.65.71.71,0,0,1-.47-.17,1,1,0,0,1-.29-.5l-.1-.36a.82.82,0,0,0-.34-.54,1.29,1.29,0,0,0-.66-.16,1.83,1.83,0,0,0-1.47.73,2.85,2.85,0,0,0-.61,1.92,3.22,3.22,0,0,0,.67,2,2.11,2.11,0,0,0,1.78.87,2.23,2.23,0,0,0,1.42-.49,4.87,4.87,0,0,0,.79-.91l.21.13a5.51,5.51,0,0,1-.91,1.37,2.84,2.84,0,0,1-2.14,1,2.92,2.92,0,0,1-2.11-.9,3.18,3.18,0,0,1-.92-2.42,3.74,3.74,0,0,1,1-2.59,3.3,3.3,0,0,1,2.53-1.08A2.88,2.88,0,0,1,121.19,38.24Z"/><path class="b" d="M127.07,42.92a.79.79,0,0,1-.46.69,1.89,1.89,0,0,1-1,.27,1.13,1.13,0,0,1-.67-.21,1.09,1.09,0,0,1-.46-1c0-.55.37-1,1.1-1.47a7.18,7.18,0,0,1,1.45-.61v2.3Zm-3.9.28a1.45,1.45,0,0,0,.48,1.12,1.64,1.64,0,0,0,1.13.44,2.61,2.61,0,0,0,1.32-.4,6.13,6.13,0,0,0,1-.71,1.5,1.5,0,0,0,.26.76.88.88,0,0,0,.75.31,1.64,1.64,0,0,0,.88-.27,2.19,2.19,0,0,0,.53-.45v-.39a3,3,0,0,1-.4.26.74.74,0,0,1-.28.05.4.4,0,0,1-.42-.3,1.81,1.81,0,0,1-.06-.58V40.12a2.94,2.94,0,0,0-.29-1.47,2.09,2.09,0,0,0-2-.92,3,3,0,0,0-1.94.56,1.5,1.5,0,0,0-.66,1.07.79.79,0,0,0,.18.48.68.68,0,0,0,.53.21.74.74,0,0,0,.38-.09.61.61,0,0,0,.29-.57,2,2,0,0,0,0-.26,2.44,2.44,0,0,1,0-.3.56.56,0,0,1,.35-.53,1.48,1.48,0,0,1,.74-.19,1.1,1.1,0,0,1,1.07.48,2.53,2.53,0,0,1,.15,1v.63a17.17,17.17,0,0,0-2.79,1.18A2.07,2.07,0,0,0,123.17,43.2Z"/><path class="b" d="M129.83,44.43a1.41,1.41,0,0,0,.75-.26c.15-.13.22-.41.22-.86V39.64a1.61,1.61,0,0,0-.1-.66.6.6,0,0,0-.59-.28H130l-.17,0v-.25l1.46-.45.72-.24a.05.05,0,0,1,.06,0,.25.25,0,0,1,0,.1V39a7.56,7.56,0,0,1,1.1-.86,2.37,2.37,0,0,1,1.24-.36,1.71,1.71,0,0,1,1,.29,2.23,2.23,0,0,1,.82,2v3.4a1.08,1.08,0,0,0,.22.76,1.05,1.05,0,0,0,.74.24v.19h-3.28v-.19a1.32,1.32,0,0,0,.78-.3,1.41,1.41,0,0,0,.22-1V40.06a2.05,2.05,0,0,0-.24-1,1,1,0,0,0-.89-.4,1.65,1.65,0,0,0-.91.29,4.68,4.68,0,0,0-.67.55v4.06a.82.82,0,0,0,.25.71,1.37,1.37,0,0,0,.77.2v.19h-3.32v-.19Z"/><path class="b" d="M141.45,44.35a1.86,1.86,0,0,0,1.24-.42,2.63,2.63,0,0,0,.27-1.5v-6a1.5,1.5,0,0,0-.26-1.05,2.06,2.06,0,0,0-1.21-.29v-.27h3.08l3.58,7.42,3.5-7.42h3.11V35a2,2,0,0,0-1.12.3,1.49,1.49,0,0,0-.25,1V43a1.46,1.46,0,0,0,.25,1,2,2,0,0,0,1.12.3v.27h-4.37v-.27a1.86,1.86,0,0,0,1.17-.32,1.94,1.94,0,0,0,.24-1.2V36.14l-4,8.48h-.21l-3.94-8.13v5.94A2.31,2.31,0,0,0,144,44a1.94,1.94,0,0,0,1.09.33v.27h-3.67v-.27Z"/><path class="b" d="M156.67,34.7a.78.78,0,0,1,.57-.23.79.79,0,0,1,.56.23.74.74,0,0,1,.23.54.71.71,0,0,1-.23.52.79.79,0,0,1-.56.23.78.78,0,0,1-.57-.23.7.7,0,0,1-.23-.52A.74.74,0,0,1,156.67,34.7Zm-1.17,9.73a2,2,0,0,0,1-.27q.21-.19.21-1V39.66a2.5,2.5,0,0,0-.06-.67.46.46,0,0,0-.48-.31l-.17,0-.46.11v-.19l.32-.11c.88-.28,1.5-.49,1.85-.63a.88.88,0,0,1,.27-.09.41.41,0,0,1,0,.11v5.21a1.66,1.66,0,0,0,.21,1,1.64,1.64,0,0,0,.95.27v.19H155.5v-.19Z"/><path class="b" d="M160.34,42.33h.25a4,4,0,0,0,.47,1.27,1.77,1.77,0,0,0,1.57.81,1.29,1.29,0,0,0,.9-.3,1,1,0,0,0,.34-.78,1.11,1.11,0,0,0-.19-.59,2,2,0,0,0-.68-.55l-.86-.46a5,5,0,0,1-1.38-1,1.61,1.61,0,0,1-.44-1.15,1.65,1.65,0,0,1,.61-1.33,2.24,2.24,0,0,1,1.53-.53,3,3,0,0,1,.89.15,4.66,4.66,0,0,0,.54.15.4.4,0,0,0,.2,0,.26.26,0,0,0,.11-.12h.18l.06,2h-.22a3.29,3.29,0,0,0-.41-1.1,1.56,1.56,0,0,0-1.38-.72,1.14,1.14,0,0,0-.85.31,1,1,0,0,0-.3.73c0,.44.35.84,1.05,1.18l1,.52c1.09.56,1.63,1.22,1.63,2a1.75,1.75,0,0,1-.68,1.41,2.69,2.69,0,0,1-1.75.54,4.14,4.14,0,0,1-1-.15,5.93,5.93,0,0,0-.68-.14.25.25,0,0,0-.17.06l-.1.15h-.21V42.33Z"/><path class="b" d="M166.42,42.33h.26a4,4,0,0,0,.47,1.27,1.77,1.77,0,0,0,1.57.81,1.29,1.29,0,0,0,.9-.3,1,1,0,0,0,.34-.78,1.11,1.11,0,0,0-.19-.59,2,2,0,0,0-.68-.55l-.86-.46a5.18,5.18,0,0,1-1.38-1,1.62,1.62,0,0,1-.45-1.15,1.68,1.68,0,0,1,.61-1.33,2.29,2.29,0,0,1,1.54-.53,3,3,0,0,1,.89.15,3.66,3.66,0,0,0,.55.15.41.41,0,0,0,.19,0,.26.26,0,0,0,.11-.12h.18l.05,2h-.21a3.08,3.08,0,0,0-.42-1.1,1.53,1.53,0,0,0-1.37-.72,1.14,1.14,0,0,0-.85.31,1,1,0,0,0-.3.73c0,.44.35.84,1,1.18l1,.52c1.09.56,1.63,1.22,1.63,2a1.75,1.75,0,0,1-.68,1.41,2.69,2.69,0,0,1-1.75.54,4.2,4.2,0,0,1-1-.15,5.89,5.89,0,0,0-.69-.14.2.2,0,0,0-.15.06.48.48,0,0,0-.11.15h-.22V42.33Z"/><path class="b" d="M173.19,34.7a.78.78,0,0,1,.57-.23.79.79,0,0,1,.56.23.74.74,0,0,1,.23.54.71.71,0,0,1-.23.52.79.79,0,0,1-.56.23.78.78,0,0,1-.57-.23.7.7,0,0,1-.23-.52A.74.74,0,0,1,173.19,34.7ZM172,44.43a2,2,0,0,0,1-.27c.14-.13.2-.48.2-1V39.66a2.5,2.5,0,0,0-.06-.67.46.46,0,0,0-.48-.31l-.17,0-.46.11v-.19l.32-.11c.88-.28,1.5-.49,1.84-.63a1.11,1.11,0,0,1,.28-.09.41.41,0,0,1,0,.11v5.21a1.66,1.66,0,0,0,.21,1,1.61,1.61,0,0,0,.95.27v.19H172v-.19Z"/><path class="b" d="M179.68,38.2a1.86,1.86,0,0,1,1.71,1.13,5.05,5.05,0,0,1,.59,2.38,3.72,3.72,0,0,1-.46,2,1.47,1.47,0,0,1-1.33.76,1.92,1.92,0,0,1-1.72-1.13,5,5,0,0,1-.61-2.43,2.92,2.92,0,0,1,.76-2.3A1.61,1.61,0,0,1,179.68,38.2Zm-3.24,3a3.54,3.54,0,0,0,1,2.59,3.33,3.33,0,0,0,2.49,1,3.19,3.19,0,0,0,2.48-1.07,3.68,3.68,0,0,0,1-2.53,3.34,3.34,0,0,0-1-2.52,3.47,3.47,0,0,0-2.5-1,3.31,3.31,0,0,0-2.49,1A3.39,3.39,0,0,0,176.44,41.24Z"/><path class="b" d="M184.16,44.43a1.41,1.41,0,0,0,.75-.26,1.2,1.2,0,0,0,.22-.86V39.64A1.65,1.65,0,0,0,185,39a.62.62,0,0,0-.59-.28h-.15l-.17,0v-.25l1.46-.45.72-.24s.06,0,.06,0a.22.22,0,0,1,0,.1V39a7.06,7.06,0,0,1,1.1-.86,2.31,2.31,0,0,1,1.23-.36,1.71,1.71,0,0,1,.95.29,2.23,2.23,0,0,1,.82,2v3.4a1.08,1.08,0,0,0,.22.76,1.05,1.05,0,0,0,.74.24v.19h-3.28v-.19a1.35,1.35,0,0,0,.78-.3,1.41,1.41,0,0,0,.22-1V40.06a2.05,2.05,0,0,0-.24-1,1,1,0,0,0-.89-.4,1.65,1.65,0,0,0-.91.29,5.3,5.3,0,0,0-.67.55v4.06a.85.85,0,0,0,.25.71,1.38,1.38,0,0,0,.78.2v.19h-3.32v-.19Z"/><path class="b" d="M195.86,44.35A2,2,0,0,0,197,44a1.93,1.93,0,0,0,.23-1.19V36.38a1.47,1.47,0,0,0-.25-1,2,2,0,0,0-1.13-.3v-.27h4.34V35a2,2,0,0,0-1.11.3,1.47,1.47,0,0,0-.26,1v2.9h4.73v-2.9a1.47,1.47,0,0,0-.25-1,2,2,0,0,0-1.12-.3v-.27h4.33V35a1.94,1.94,0,0,0-1.11.3,1.47,1.47,0,0,0-.26,1V43a1.43,1.43,0,0,0,.26,1,2.11,2.11,0,0,0,1.11.3v.27h-4.33v-.27a2,2,0,0,0,1.15-.32,2,2,0,0,0,.22-1.19V39.93h-4.73V43a1.48,1.48,0,0,0,.26,1,2.07,2.07,0,0,0,1.11.29v.27h-4.33v-.27Z"/><path class="b" d="M210.53,38.2a1.86,1.86,0,0,1,1.71,1.13,5.05,5.05,0,0,1,.59,2.38,3.72,3.72,0,0,1-.47,2,1.45,1.45,0,0,1-1.32.76,1.92,1.92,0,0,1-1.72-1.13,5,5,0,0,1-.61-2.43,2.92,2.92,0,0,1,.76-2.3A1.61,1.61,0,0,1,210.53,38.2Zm-3.24,3a3.57,3.57,0,0,0,1,2.59,3.37,3.37,0,0,0,2.49,1,3.2,3.2,0,0,0,2.49-1.07,3.68,3.68,0,0,0,1-2.53,3.34,3.34,0,0,0-1-2.52,3.5,3.5,0,0,0-2.51-1,3.29,3.29,0,0,0-2.48,1A3.35,3.35,0,0,0,207.29,41.24Z"/><path class="b" d="M215.53,42.33h.25a3.75,3.75,0,0,0,.48,1.27,1.75,1.75,0,0,0,1.56.81,1.31,1.31,0,0,0,.91-.3,1,1,0,0,0,.33-.78,1,1,0,0,0-.19-.59,2,2,0,0,0-.67-.55l-.86-.46a5.26,5.26,0,0,1-1.39-1,1.61,1.61,0,0,1-.44-1.15,1.65,1.65,0,0,1,.61-1.33,2.29,2.29,0,0,1,1.54-.53,3,3,0,0,1,.88.15,4,4,0,0,0,.55.15.46.46,0,0,0,.2,0,.26.26,0,0,0,.11-.12h.17l.06,2h-.22a3.29,3.29,0,0,0-.41-1.1,1.55,1.55,0,0,0-1.37-.72,1.11,1.11,0,0,0-.85.31,1,1,0,0,0-.31.73c0,.44.35.84,1.05,1.18l1,.52c1.09.56,1.63,1.22,1.63,2a1.72,1.72,0,0,1-.68,1.41,2.69,2.69,0,0,1-1.75.54,4.2,4.2,0,0,1-1-.15,5.52,5.52,0,0,0-.68-.14.25.25,0,0,0-.16.06.72.72,0,0,0-.11.15h-.21V42.33Z"/><path class="b" d="M223.3,43.27V39.64c0-.21.16-.43.47-.65a1.73,1.73,0,0,1,1-.33,1.86,1.86,0,0,1,1.41.66,2.81,2.81,0,0,1,.6,2,3.54,3.54,0,0,1-.58,2.17,1.74,1.74,0,0,1-2.33.54A1.48,1.48,0,0,1,223.3,43.27Zm-2.41,4.61h3.77v-.25a2.61,2.61,0,0,1-1.1-.23c-.17-.1-.26-.4-.26-.89V44.09a2.29,2.29,0,0,0,.9.56,2.12,2.12,0,0,0,.75.11,2.8,2.8,0,0,0,2.29-1.18,4.21,4.21,0,0,0,.91-2.64,3.34,3.34,0,0,0-.76-2.33,2.35,2.35,0,0,0-1.81-.86,2.68,2.68,0,0,0-1.41.42,5.16,5.16,0,0,0-.89.71v-1a.08.08,0,0,0,0-.07.05.05,0,0,0,0,0l-1.54.51-.72.22v.23l.21,0h.15a.76.76,0,0,1,.54.15,1.23,1.23,0,0,1,.13.71v7a.9.9,0,0,1-1.09,1.08v.23Z"/><path class="b" d="M230.12,34.7a.8.8,0,0,1,1.12,0,.71.71,0,0,1,.24.54.69.69,0,0,1-.24.52.8.8,0,0,1-1.12,0,.66.66,0,0,1-.23-.52A.7.7,0,0,1,230.12,34.7Zm-1.18,9.73a2,2,0,0,0,1-.27q.21-.19.21-1V39.66a2.5,2.5,0,0,0-.06-.67.47.47,0,0,0-.49-.31l-.16,0-.47.11v-.19l.33-.11c.88-.28,1.5-.49,1.84-.63a1,1,0,0,1,.27-.09.43.43,0,0,1,0,.11v5.21a1.68,1.68,0,0,0,.2,1,1.71,1.71,0,0,0,1,.27v.19h-3.68Z"/><path class="b" d="M236.94,37.93v.51h-1.55v4.18a2.48,2.48,0,0,0,.1.83.7.7,0,0,0,.72.51.86.86,0,0,0,.48-.13,2.67,2.67,0,0,0,.45-.38l.21.16-.17.22a2.49,2.49,0,0,1-.84.72,2,2,0,0,1-.86.21,1.2,1.2,0,0,1-1.22-.76,3,3,0,0,1-.18-1.16v-4.4h-.82l-.06,0a.13.13,0,0,1,0-.06c0-.05,0-.09,0-.11a1.45,1.45,0,0,1,.22-.18,7.38,7.38,0,0,0,.75-.67c.16-.18.52-.64,1.09-1.37h.12a.22.22,0,0,1,0,.12v1.79Z"/><path class="b" d="M241.8,42.92a.8.8,0,0,1-.46.69,1.9,1.9,0,0,1-1,.27,1.13,1.13,0,0,1-.67-.21,1.09,1.09,0,0,1-.45-1c0-.55.36-1,1.1-1.47a6.94,6.94,0,0,1,1.45-.61v2.3Zm-3.91.28a1.45,1.45,0,0,0,.48,1.12,1.65,1.65,0,0,0,1.14.44,2.63,2.63,0,0,0,1.32-.4,7.16,7.16,0,0,0,1-.71,1.34,1.34,0,0,0,.26.76.86.86,0,0,0,.75.31,1.59,1.59,0,0,0,.87-.27,1.87,1.87,0,0,0,.53-.45v-.39a3.12,3.12,0,0,1-.39.26.79.79,0,0,1-.29.05.39.39,0,0,1-.41-.3,1.81,1.81,0,0,1-.06-.58V40.12a3.06,3.06,0,0,0-.29-1.47,2.12,2.12,0,0,0-2-.92,2.9,2.9,0,0,0-1.93.56,1.5,1.5,0,0,0-.66,1.07.74.74,0,0,0,.18.48.66.66,0,0,0,.53.21.76.76,0,0,0,.38-.09.6.6,0,0,0,.28-.57,1.46,1.46,0,0,0,0-.26,1.33,1.33,0,0,1,0-.3.57.57,0,0,1,.34-.53,1.51,1.51,0,0,1,.74-.19,1.09,1.09,0,0,1,1.07.48,2.33,2.33,0,0,1,.16,1v.63a17.84,17.84,0,0,0-2.8,1.18A2.07,2.07,0,0,0,237.89,43.2Z"/><path class="b" d="M244.58,44.43a1.91,1.91,0,0,0,1-.28,1,1,0,0,0,.26-.8V36.22a1.74,1.74,0,0,0-.09-.67.63.63,0,0,0-.62-.3.93.93,0,0,0-.23,0l-.32.07V35.1c.69-.17,1.52-.4,2.49-.68,0,0,.06,0,.07,0s0,.09,0,.18v8.73a1.07,1.07,0,0,0,.23.82,2,2,0,0,0,.95.24v.19h-3.71v-.19Z"/><polygon class="b" points="79.73 19.4 80.73 19.98 81.58 18.53 80.23 17.76 79.6 18.88 78.55 18.31 77.69 19.77 79.05 20.56 79.73 19.4"/><polygon class="b" points="92.36 30.43 91.29 29.89 90.53 31.4 91.86 32.07 92.47 30.95 93.48 31.47 94.23 30.03 92.93 29.34 92.36 30.43"/><polygon class="b" points="110.19 30.43 109.13 29.89 108.36 31.4 109.69 32.07 110.3 30.95 111.31 31.47 112.06 30.03 110.76 29.34 110.19 30.43"/><path class="b" d="M111.27,23.59l-.58,1.67a7.52,7.52,0,0,1,.79,1.5h-3.17v0a13.34,13.34,0,0,0-.92-1.45c-.44-.58-.89-1.13-1.36-1.66a4,4,0,0,1-.5-.61c0-.15.92-.52,2.78-1.13v-1.7l-2.41.92a3.68,3.68,0,0,0-1.42,1A2.59,2.59,0,0,0,104,23.7a1.17,1.17,0,0,0,.31.75c0,.05.31.32.81.81l.26-.25c.53.43.85.7,1,.82s.44.49.82.94H94.37a6.51,6.51,0,0,0-.21-1.92,3.87,3.87,0,0,0-.72-1.25l-.58,1.67a7.88,7.88,0,0,1,.8,1.5H82.42a1,1,0,0,1-.81-.56,6,6,0,0,1-.37-1.5l-.66-4.13A5.47,5.47,0,0,0,80,22.23c0,.05,0,.13,0,.25v.24q-3,1.8-3,3.77c0,.11.3.23.92.36a7.7,7.7,0,0,0,1.17.14.92.92,0,0,0,.58-.31l.81-.9A11.75,11.75,0,0,0,81,27.89a1.39,1.39,0,0,0,1.32.84h29.9v-2a6.94,6.94,0,0,0-.2-1.92A4.35,4.35,0,0,0,111.27,23.59Zm-31.68,1.5a2.57,2.57,0,0,1-.46-.08c-.25,0-.38-.09-.38-.14,0-.21.4-.54,1.21-1l.24-.12.14.87A3.15,3.15,0,0,1,79.59,25.09Z"/><path class="b" d="M123.06,23.86a1.39,1.39,0,0,0-1.32.76,7.48,7.48,0,0,1-.82,1.4,3.8,3.8,0,0,1-2.47.75V26.6a4.26,4.26,0,0,0-1-2.69l-.42,2a3.77,3.77,0,0,1,.86,1.66c0,.4-.43,1-1.28,1.76a3.82,3.82,0,0,1-2.31,1.23,4.67,4.67,0,0,1-1.89-.73l-.29.44c.81.55,1.35.89,1.62,1.05a4,4,0,0,0,1.75.58,2.94,2.94,0,0,0,1.8-1,3.35,3.35,0,0,0,1.16-2.09,7.32,7.32,0,0,0,1.92-.14,2.26,2.26,0,0,0,.79-.77l1.88.63a5.35,5.35,0,0,0,1.46.27V27.14a5.43,5.43,0,0,0-.53-2.06C123.61,24.27,123.31,23.86,123.06,23.86Zm-.56,2.78a5.47,5.47,0,0,1-1.18-.42c.14-.44.29-.67.45-.67s.42.16.65.46a1.35,1.35,0,0,1,.27.51C122.69,26.6,122.63,26.64,122.5,26.64Z"/><path class="b" d="M126.72,19.17a1.59,1.59,0,0,0,.14-.43,3,3,0,0,1-.78.1,2.15,2.15,0,0,1-.49-.21c-.3-.16-.45-.28-.45-.35s.18-.25.57-.25a2.14,2.14,0,0,1,.58.25,1.67,1.67,0,0,0,.19-.63c0-.23-.12-.34-.38-.34a1.36,1.36,0,0,0-.93.5,1.4,1.4,0,0,0-.49.8c0,.17.16.38.47.62l-.49.27a2.21,2.21,0,0,0-.27.44l2-.62C126.58,19.25,126.7,19.21,126.72,19.17Z"/><path class="b" d="M129.57,19.92l-.29-.12a4.11,4.11,0,0,0-.43,1.87c0,.16.16.33.49.52v.64a6.25,6.25,0,0,1-.54,2.31c-.36-.53-.62-.91-.8-1.15a20.48,20.48,0,0,0-2-2.39c-.78-.78-1.27-1.17-1.48-1.17s-.26.35-.26,1a3,3,0,0,0,.66,2.07,1.5,1.5,0,0,0,1.15.59s.1,0,.14-.13a2.08,2.08,0,0,0,.1-.24c.43.41.73.72.92.92L128.26,26a9.19,9.19,0,0,1-1.89,1.53V29.7a17.56,17.56,0,0,0,1.81-.13,10.66,10.66,0,0,0,1.62-.48c.06-.71.09-1.25.09-1.61a1.91,1.91,0,0,0-.2-.77c-.14-.25-.27-.51-.41-.77a10.71,10.71,0,0,0,.67-1.88,11.15,11.15,0,0,0,.19-1.5l.5.18a10.63,10.63,0,0,0,.29-1.78,4.11,4.11,0,0,1-1-.41A.88.88,0,0,1,129.57,19.92Zm-.5,7.63c-.09,0-.36.06-.82.11a13.61,13.61,0,0,0,1.1-.94l.34.53A3.29,3.29,0,0,1,129.07,27.55Z"/><path class="b" d="M131.54,21s.14.81.4,2.49a31.5,31.5,0,0,1,.4,4.19,7.79,7.79,0,0,1-.17,1.3l.42.19a6.14,6.14,0,0,0,.77-2.38,50.69,50.69,0,0,0-1-7.77A6.81,6.81,0,0,0,131.54,21Z"/><polygon class="b" points="141.37 19.4 142.37 19.98 143.22 18.53 141.87 17.76 141.24 18.88 140.18 18.31 139.33 19.77 140.69 20.56 141.37 19.4"/><polygon class="b" points="154.42 30.43 153.35 29.89 152.59 31.4 153.92 32.07 154.53 30.95 155.54 31.47 156.29 30.03 154.99 29.34 154.42 30.43"/><path class="b" d="M159.15,22.4a11.42,11.42,0,0,0,.49-1.7l-.85-.44c-.22-.15-.34-.3-.34-.45a1,1,0,0,1,0-.15v-.13l-.32-.1a5,5,0,0,0-.65,2.12l.43.26.94,5a5.14,5.14,0,0,1-.66,0l-.88,0c-.3,0-.61,0-.91,0h0a6.58,6.58,0,0,0-.2-1.92,3.87,3.87,0,0,0-.72-1.25l-.58,1.67a8.4,8.4,0,0,1,.79,1.5H144.07a1,1,0,0,1-.83-.56,6.28,6.28,0,0,1-.35-1.5l-.67-4.13a5.64,5.64,0,0,0-.57,1.66c0,.05,0,.13,0,.25a1,1,0,0,0,0,.24q-3,1.8-3,3.77c0,.11.3.23.92.36a7.7,7.7,0,0,0,1.17.14.92.92,0,0,0,.58-.31c.09-.1.37-.4.81-.9a11.39,11.39,0,0,0,.48,2.11,1.38,1.38,0,0,0,1.32.84h15.69V26.6l-.78-4.31Zm-17.92,2.69a2.57,2.57,0,0,1-.46-.08c-.25,0-.38-.09-.38-.14,0-.21.41-.54,1.21-1l.24-.12.14.87A3.15,3.15,0,0,1,141.23,25.09Z"/><path class="b" d="M179.19,25.58a2.25,2.25,0,0,0,.18.45,1.67,1.67,0,0,1,.19.55v.12a11.25,11.25,0,0,1-1.3-.33,6.22,6.22,0,0,0,.1-.85v-.43c0-.2,0-.34,0-.44a3.32,3.32,0,0,0-.56.45,4.1,4.1,0,0,0-.31.67,1.31,1.31,0,0,1-.6.67,4,4,0,0,1-1.76.33h0c-.53-.18-.79-.42-.79-.71s0-.38,0-.68,0-.53,0-.67l-.48-.06a2.92,2.92,0,0,1-.64,1.69,2.94,2.94,0,0,1-1.64.42h-8.76a.86.86,0,0,1-.77-.47,4.05,4.05,0,0,1-.15-1.24l-.08-1.91a17,17,0,0,0-.14-2.19,5.69,5.69,0,0,0-.66-1.63l-.75,1.85a5.23,5.23,0,0,1,.34.52,4.47,4.47,0,0,1,.28,1.34c.17,1.83.28,2.89.34,3.18.29,1.69.76,2.53,1.38,2.53h9a4,4,0,0,0,1.28-.19,3.16,3.16,0,0,0,1-.9,4.19,4.19,0,0,0,.38.76,1.14,1.14,0,0,0,.75.33h1.25a3.67,3.67,0,0,0,1.09-.12,3.91,3.91,0,0,0,.64-.33,11.56,11.56,0,0,0,2.42.45V26.34a6.06,6.06,0,0,0-.36-2.1A4.86,4.86,0,0,0,179.19,25.58Z"/><path class="b" d="M185.19,25.87a3.77,3.77,0,0,1,.86,1.66c0,.4-.43,1-1.28,1.76a3.85,3.85,0,0,1-2.31,1.23,4.62,4.62,0,0,1-1.89-.73l-.3.44c.82.55,1.36.89,1.63,1.05a3.92,3.92,0,0,0,1.74.58,2.94,2.94,0,0,0,1.81-1,3.22,3.22,0,0,0,1.17-2.27v-2a4.32,4.32,0,0,0-1-2.69Z"/><path class="b" d="M189.46,31.5c-.31-.16-.46-.28-.46-.36s.19-.24.57-.24a1.85,1.85,0,0,1,.59.25,2,2,0,0,0,.19-.63c0-.23-.13-.35-.38-.35a1.35,1.35,0,0,0-.94.51,1.38,1.38,0,0,0-.48.79c0,.17.16.38.47.62a4.37,4.37,0,0,0-.49.27,1.79,1.79,0,0,0-.27.44l2-.62a1,1,0,0,0,.35-.15,1.57,1.57,0,0,0,.15-.43,2.69,2.69,0,0,1-.78.12A1.94,1.94,0,0,1,189.46,31.5Z"/><path class="b" d="M191.71,19.92l-.29-.12a4.11,4.11,0,0,0-.43,1.87c0,.16.16.33.48.52v.64a6.25,6.25,0,0,1-.54,2.31c-.35-.53-.61-.91-.79-1.15a19.66,19.66,0,0,0-2.06-2.39c-.76-.78-1.26-1.17-1.47-1.17s-.27.35-.27,1a3,3,0,0,0,.66,2.07,1.54,1.54,0,0,0,1.16.59c.05,0,.1,0,.14-.13l.1-.24c.42.41.73.72.91.92s.51.62,1.08,1.35a9.13,9.13,0,0,1-1.88,1.53V29.7a17.56,17.56,0,0,0,1.81-.13,10.66,10.66,0,0,0,1.62-.48c.06-.71.08-1.25.08-1.61a1.91,1.91,0,0,0-.2-.77l-.4-.77a10.71,10.71,0,0,0,.67-1.88,11.15,11.15,0,0,0,.19-1.5l.5.18a10.63,10.63,0,0,0,.29-1.78,4.11,4.11,0,0,1-1-.41A.88.88,0,0,1,191.71,19.92Zm-1.13,7.63c-.1,0-.37.06-.82.11a12.08,12.08,0,0,0,1.1-.94l.35.53A4,4,0,0,1,190.58,27.55Z"/><path class="b" d="M194.14,21s.15.81.41,2.49a31.16,31.16,0,0,1,.39,4.19,7.54,7.54,0,0,1-.16,1.3l.41.19a6,6,0,0,0,.78-2.38A50.69,50.69,0,0,0,195,19,7.31,7.31,0,0,0,194.14,21Z"/><polygon class="b" points="220.41 20.22 218.71 19.31 217.85 20.92 219.53 21.82 220.41 20.22"/><polygon class="b" points="227.66 20.13 226.29 19.37 225.53 20.83 226.88 21.58 227.66 20.13"/><polygon class="b" points="227.22 22.76 228.33 23.33 229.13 21.87 227.74 21.12 227.1 22.26 226 21.67 225.23 23.17 226.59 23.88 227.22 22.76"/><polygon class="b" points="231.53 21.91 232.55 22.48 233.36 20.98 232.03 20.26 231.41 21.42 230.36 20.88 229.59 22.3 230.95 23 231.53 21.91"/><path class="b" d="M247.61,25.08c-.36-.81-.66-1.22-.91-1.22a1.37,1.37,0,0,0-1.31.76,7.26,7.26,0,0,1-.83,1.4,3.62,3.62,0,0,1-2.31.74v-.42a6.06,6.06,0,0,0-.36-2.1,4.75,4.75,0,0,0-.84,1.34,2,2,0,0,0,.19.45,1.67,1.67,0,0,1,.19.55v.12a11.25,11.25,0,0,1-1.3-.33,6.22,6.22,0,0,0,.1-.85v-.43c0-.2,0-.34,0-.44a4.17,4.17,0,0,0-.57.45,4.65,4.65,0,0,0-.3.67,1.29,1.29,0,0,1-.61.67,3.88,3.88,0,0,1-1.73.33h0c-.53-.18-.79-.42-.79-.71s0-.38,0-.68,0-.53,0-.67l-.48-.06a2.92,2.92,0,0,1-.64,1.69,3.08,3.08,0,0,1-1.68.42,8.12,8.12,0,0,0-.19-1.85,5.63,5.63,0,0,0-.71-1.38l-.6,1.72c.29.4.47.64.52.73a4.93,4.93,0,0,1,.3.79h-3v-.44a6.1,6.1,0,0,0-.36-2.1,4.86,4.86,0,0,0-.84,1.35,2.49,2.49,0,0,0,.19.45,1.6,1.6,0,0,1,.19.55v.12a10.46,10.46,0,0,1-1.29-.33,8.52,8.52,0,0,0,.1-.85v-.43a4.07,4.07,0,0,1,0-.44,4.55,4.55,0,0,0-.56.45,4.1,4.1,0,0,0-.31.67,1.25,1.25,0,0,1-.61.67,3.88,3.88,0,0,1-1.73.33h0c-.53-.17-.79-.41-.79-.7s0-.39,0-.68,0-.53,0-.67l-.48-.06a3,3,0,0,1-.64,1.69,2.74,2.74,0,0,1-1.47.41,12,12,0,0,0-.35-2.64c-.34-1.22-.83-1.84-1.48-1.84-.45,0-.85.33-1.19,1a4.24,4.24,0,0,0-.48,2,1.13,1.13,0,0,0,.63,1,3.26,3.26,0,0,0,1,.42c.25.07.34.1.27.1-.87,0-1.89,0-3,0h-8.26a3.71,3.71,0,0,0-2.1.73,2.36,2.36,0,0,0-1.18,2c0,.21.39.34,1.17.38s1.18.1,1.18.18-.37.27-1.11.45a8.22,8.22,0,0,1-1.82.27,5.61,5.61,0,0,1-1.9-.24,1.31,1.31,0,0,1-1-1.33,2.55,2.55,0,0,1,.41-1.3c.12-.21.43-.64.92-1.29l-.43-.3a17.43,17.43,0,0,0-1.34,1.89,4.59,4.59,0,0,0-.68,2.22,1.75,1.75,0,0,0,1,1.61,4.24,4.24,0,0,0,2.06.46,7.27,7.27,0,0,0,3.34-.58,2.62,2.62,0,0,0,1.34-2.54c0-.16-.11-.28-.34-.35s-.34-.12-.34-.16.06-.1.19-.1h.56v0h12.87a3.36,3.36,0,0,0,1.1-.18,3,3,0,0,0,1-.9,5.68,5.68,0,0,0,.37.76,1.2,1.2,0,0,0,.76.33h1.24a3.64,3.64,0,0,0,1.08-.12,3.54,3.54,0,0,0,.64-.33c.35.12.71.22,1.07.33a6,6,0,0,0,.9.11h4.15a4.29,4.29,0,0,0,1.33-.19,3.16,3.16,0,0,0,1-.9,4.19,4.19,0,0,0,.38.76,1.14,1.14,0,0,0,.75.33h1.24a3.76,3.76,0,0,0,1.09-.12,4.43,4.43,0,0,0,.63-.33c.35.12.71.22,1.06.33a5.16,5.16,0,0,0,.93.11h0A8.85,8.85,0,0,0,244,28.6a2.36,2.36,0,0,0,.8-.77l1.87.63a6.24,6.24,0,0,0,1.46.27V27.14A5.39,5.39,0,0,0,247.61,25.08Zm-28.45.31c-.38-.2-.57-.41-.57-.64s.13-.33.39-.33.81.44,1.21,1.32A4.31,4.31,0,0,1,219.16,25.39Zm27.46,1.25a5.65,5.65,0,0,1-1.19-.42c.15-.44.3-.67.45-.67s.42.16.65.46a1.44,1.44,0,0,1,.28.51C246.8,26.6,246.74,26.64,246.62,26.64Z"/></svg>