<?xml version="1.0" encoding="utf-8"?>
<!-- Generator: Adobe Illustrator 16.0.0, SVG Export Plug-In . SVG Version: 6.00 Build 0)  -->
<!DOCTYPE svg PUBLIC "-//W3C//DTD SVG 1.1//EN" "http://www.w3.org/Graphics/SVG/1.1/DTD/svg11.dtd">
<svg version="1.1" id="Layer_1" xmlns="http://www.w3.org/2000/svg" xmlns:xlink="http://www.w3.org/1999/xlink" x="0px" y="0px"
	 width="579.911px" height="114.102px" viewBox="0 0 579.911 114.102" enable-background="new 0 0 579.911 114.102"
	 xml:space="preserve">
	<g>
		<g>
			<g>
				<g>
					<g>
						<path fill="#EE3E33" d="M44.36,104.236c-0.895,0-1.673-0.285-2.356-0.857c-0.685-0.578-1.02-1.298-1.02-2.17
							c0-0.694,0.263-1.343,0.812-1.922c0.529-0.591,1.43-1.134,2.68-1.676c0.681-0.305,2.226-0.828,4.616-1.548v6.361
							C47.137,103.635,45.561,104.236,44.36,104.236z M49.792,105.799c0.457,0.426,1.068,0.637,1.833,0.637
							c1.607,0,3.274-0.937,5.038-2.8v-1.067c-0.948,0.771-1.574,1.229-1.919,1.398c-0.178,0.08-0.399,0.121-0.658,0.121
							c-0.23,0-0.44-0.056-0.626-0.189c-0.184-0.119-0.312-0.369-0.384-0.726c-0.085-0.373-0.127-1.381-0.127-3.017v-5.8
							c0-1.65-0.135-2.754-0.423-3.293c-0.434-0.828-1.113-1.423-2.023-1.799c-1.225-0.521-2.792-0.779-4.7-0.779
							c-2.479,0-4.397,0.457-5.79,1.373c-1.357,0.907-2.065,1.901-2.065,3.008c0,0.566,0.19,1.016,0.569,1.346
							c0.373,0.32,0.84,0.48,1.441,0.48c0.6,0,1.083-0.152,1.457-0.46c0.371-0.316,0.555-0.771,0.555-1.354l-0.038-1.088
							c0-0.545,0.283-1.025,0.878-1.458c0.573-0.426,1.352-0.634,2.32-0.634c1.295,0,2.276,0.312,2.952,0.951
							c0.667,0.637,1.012,1.818,1.012,3.539v0.667c-3.692,1.056-6.332,1.968-7.92,2.715c-1.583,0.737-2.708,1.533-3.336,2.376
							c-0.473,0.62-0.704,1.338-0.704,2.158c0,1.328,0.472,2.391,1.445,3.199c0.957,0.802,2.175,1.204,3.663,1.204
							c0.954,0,1.848-0.166,2.692-0.479c0.566-0.232,1.946-1.024,4.16-2.434C49.106,104.645,49.337,105.378,49.792,105.799z"/>
						<path fill="#EE3E33" d="M64.627,92.158c1.561-1.25,2.484-1.971,2.763-2.158c0.699-0.485,1.462-0.859,2.269-1.119
							c0.807-0.265,1.614-0.395,2.403-0.395c1.346,0,2.502,0.315,3.463,0.949c0.967,0.623,1.618,1.533,1.943,2.723
							c1.615-1.496,2.962-2.49,4.067-2.965c1.115-0.471,2.256-0.707,3.434-0.707c1.141,0,2.14,0.236,3.033,0.707
							c0.88,0.475,1.578,1.236,2.09,2.295c0.341,0.718,0.53,1.846,0.53,3.406v7.373c0,1.07,0.093,1.801,0.286,2.181
							c0.151,0.288,0.442,0.52,0.857,0.717c0.412,0.188,1.09,0.286,2.016,0.286v0.68H83.264v-0.68h0.449
							c0.935,0,1.652-0.145,2.155-0.443c0.376-0.191,0.62-0.491,0.791-0.93c0.059-0.211,0.092-0.814,0.092-1.811v-7.364
							c0-1.387-0.216-2.374-0.635-2.948c-0.604-0.797-1.601-1.195-2.938-1.195c-0.825,0-1.677,0.162-2.5,0.488
							c-0.847,0.332-1.853,0.932-3.043,1.861l-0.046,0.184l0.073,0.812v8.162c0,1.168,0.078,1.891,0.244,2.177
							c0.157,0.292,0.472,0.522,0.925,0.721c0.455,0.188,1.226,0.286,2.308,0.286v0.68H70.312v-0.68c1.186,0,2.003-0.107,2.444-0.336
							c0.444-0.219,0.752-0.561,0.924-1.002c0.084-0.215,0.122-0.819,0.122-1.846v-7.364c0-1.387-0.255-2.382-0.781-2.97
							c-0.691-0.777-1.65-1.175-2.883-1.175c-0.841,0-1.674,0.185-2.506,0.553c-1.292,0.525-2.294,1.122-3.005,1.798v9.158
							c0,1.115,0.101,1.846,0.294,2.177c0.205,0.323,0.482,0.583,0.862,0.754c0.385,0.173,1.163,0.253,2.333,0.253v0.68H57.584v-0.68
							c0.958,0,1.63-0.08,2.022-0.253c0.381-0.171,0.664-0.44,0.865-0.799c0.19-0.366,0.289-1.069,0.289-2.132v-6.504
							c0-1.886-0.05-3.103-0.201-3.65c-0.111-0.423-0.29-0.709-0.522-0.865c-0.247-0.161-0.568-0.24-0.969-0.24
							c-0.438,0-0.967,0.099-1.578,0.281l-0.363-0.686l6.498-2.117h1.001L64.627,92.158L64.627,92.158z"/>
						<path fill="#EE3E33" d="M101.879,79.474v12.602c1.734-1.54,3.113-2.516,4.145-2.947c1.012-0.428,2.027-0.643,3.046-0.643
							c1.218,0,2.272,0.269,3.132,0.813c0.893,0.537,1.536,1.377,1.946,2.519c0.318,0.792,0.462,2.254,0.462,4.388v6.062
							c0,1.089,0.108,1.82,0.328,2.217c0.152,0.283,0.411,0.522,0.792,0.698c0.367,0.181,1.058,0.269,2.05,0.269v0.68h-10.517v-0.68
							h0.495c1.009,0,1.698-0.116,2.087-0.362c0.395-0.232,0.671-0.591,0.833-1.081c0.042-0.211,0.066-0.773,0.066-1.739v-6.062
							c0-1.884-0.117-3.107-0.369-3.703c-0.244-0.584-0.627-1.015-1.17-1.312c-0.527-0.283-1.184-0.433-1.928-0.433
							c-0.783,0-1.566,0.152-2.414,0.476c-0.826,0.326-1.822,0.979-2.986,1.965v9.068c0,1.168,0.086,1.891,0.253,2.177
							c0.163,0.292,0.48,0.522,0.911,0.721c0.45,0.188,1.228,0.286,2.319,0.286v0.68H94.848v-0.68c0.921,0,1.643-0.116,2.172-0.346
							c0.309-0.129,0.534-0.357,0.728-0.706c0.176-0.353,0.272-1.062,0.272-2.132V86.746c0-1.959-0.047-3.177-0.176-3.611
							c-0.111-0.439-0.293-0.756-0.538-0.917c-0.252-0.158-0.574-0.251-0.981-0.251c-0.329,0-0.872,0.107-1.613,0.306l-0.321-0.681
							l6.412-2.116L101.879,79.474L101.879,79.474z"/>
					</g>
					<path fill="#186F50" d="M149.443,48.176c-0.369-0.121-1.284,0.032-1.586-0.101c-0.035-0.065-0.077-0.143-0.105-0.211
						c-0.101-0.037-0.216-0.072-0.31-0.111c0-0.034,0-0.072,0-0.106c-0.077,0-0.147,0-0.205,0c-0.127-0.128-0.218-0.271-0.33-0.409
						c-0.016,0-0.073,0-0.101,0c-0.077-0.229,0.244-0.405,0.303-0.529c0.084,0,0.15,0,0.224,0c0.088-0.384,0.35-0.447,0.523-0.74
						c0.163-0.042,0.357-0.064,0.539-0.106c0-0.073,0-0.139,0-0.213c-0.05,0-0.085,0-0.116,0c-0.116-0.144-0.206-0.281-0.325-0.418
						c-0.133,0-0.271,0-0.418,0c-0.023-0.07-0.063-0.14-0.094-0.208c-0.108,0-0.205,0-0.333,0c0-0.035,0-0.078,0-0.113
						c-0.059,0-0.137,0-0.202,0c0-0.031,0-0.07,0-0.102c-0.101,0-0.213,0-0.305,0c0-0.035,0-0.073,0-0.104c-0.077,0-0.148,0-0.209,0
						c0-0.037,0-0.071,0-0.11c-0.218,0-0.431,0-0.637,0c0-0.029,0-0.065,0-0.104c-0.074-0.035-0.14-0.065-0.228-0.104
						c0-0.074,0-0.137,0-0.21c0.046,0,0.088,0,0.115,0c0-0.032,0-0.068,0-0.107c0,0,0.574,0.1,0.75,0.107c0-0.032,0-0.068,0-0.107
						c0.034,0,0.062,0,0.096,0c-0.05-0.418-0.16-0.458-0.527-0.518c-0.036-0.376-0.081-0.449-0.434-0.524
						c-0.055-0.277-0.148-0.337-0.295-0.533c-0.043,0-0.067,0-0.113,0c-0.065-0.206-0.136-0.419-0.213-0.632
						c-0.069-0.036-0.145-0.07-0.206-0.104c-0.039-0.214-0.067-0.425-0.108-0.635c-0.077-0.031-0.146-0.063-0.209-0.102
						c-0.159-0.396,0.184-0.462,0.209-0.524c0.041-0.211,0.07-0.422,0.108-0.641c-0.039,0-0.067,0-0.108,0
						c-0.025-0.106-0.077-0.209-0.101-0.315c-0.187,0.032-0.357,0.076-0.53,0.106c-0.06,0.51-0.314,0.428-0.518,0.733
						c-0.432-0.05-0.487-0.224-0.744-0.411c0-0.046,0-0.071,0-0.113c-0.085,0-0.146,0-0.212,0c0-0.034,0-0.069,0-0.106
						c-0.312,0-0.633,0-0.954,0c0,0,0.014-0.103-0.202-0.103c-0.062,0.04-0.03,0.187-0.206,0.103
						c-0.077-0.103-0.155-0.209-0.221-0.298c-0.074,0-0.143,0-0.214,0c0-0.058,0-0.088,0-0.127c-0.341,0.039-0.697,0.069-1.042,0.127
						c-0.717-0.166-1.86-0.131-2.749-0.127c0-0.061,0-0.13,0-0.201c0.043,0,0.069,0,0.112,0c0.156-0.211,0.298-0.481,0.52-0.636
						c-0.055-0.711-0.222-0.533-0.632-0.843c-0.062-0.096-0.14-0.205-0.209-0.32c-0.077-0.035-0.139-0.066-0.204-0.089
						c-0.044-0.183-0.071-0.359-0.11-0.54c-0.317-0.271-0.627-0.553-0.946-0.844c-0.073,0-0.143,0-0.209,0
						c-0.034-0.066-0.068-0.136-0.104-0.207c-0.113,0-0.217,0-0.314,0c-0.173-0.236-0.356-0.482-0.532-0.739c0.032,0,0.079,0,0.109,0
						c0-0.064,0-0.141,0-0.21c0.729-0.144,1.384-0.19,1.792,0.31c0.039,0,0.066,0,0.104,0c0,0.178,0,0.371,0,0.536
						c0.112,0.088,0.015-0.018,0.1,0.104c0.237,0,0.497,0,0.741,0c0.147-0.577,0.17-0.227,0.527-0.422c0-0.04,0-0.061,0-0.105
						c0.16-0.112,0.287-0.16,0.515-0.212c0-0.064,0-0.141,0-0.21c0.125-0.113,0.047,0,0.108-0.201
						c-0.201-0.176-0.418-0.354-0.624-0.528c0-0.05,0-0.068,0-0.102c-0.147,0-0.284,0-0.427,0c-0.031-0.115-0.074-0.219-0.101-0.324
						c-0.105-0.034-0.217-0.072-0.322-0.117c0-0.021,0-0.051,0-0.088c-0.062,0-0.147,0-0.206,0c-0.038-0.071-0.073-0.146-0.103-0.214
						c-0.176-0.039-0.357-0.069-0.528-0.104c-0.066-0.107-0.14-0.209-0.209-0.312c-0.209-0.074-0.423-0.146-0.632-0.219
						c-0.07-0.104-0.14-0.209-0.217-0.314c-0.14-0.034-0.27-0.071-0.418-0.104c-0.035-0.073-0.074-0.14-0.102-0.215
						c-0.166-0.131-0.512-0.363-0.748-0.42c-0.175,0.212-0.243,0.095-0.415,0.212c-0.143,0.248-0.279,0.494-0.423,0.738
						c-0.1,0-0.205,0-0.314,0c0-0.05,0-0.074,0-0.105c-0.038,0-0.069,0-0.107,0c0-0.177,0-0.35,0-0.531c-0.044,0-0.071,0-0.106,0
						c0.02-0.826,0.121-0.737-0.412-1.05c0-0.035,0-0.064,0-0.1c-0.081,0-0.149,0-0.22,0c0-0.038,0-0.076,0-0.104
						c-0.305,0-0.635,0-0.95,0c-0.023-0.079-0.066-0.154-0.097-0.211c-0.078,0-0.147,0-0.213,0c0-0.037,0-0.067,0-0.117
						c-0.283-0.03-0.559-0.064-0.846-0.091c0-0.042,0-0.079,0-0.106c-0.066,0-0.144,0-0.209,0c0-0.041,0-0.075,0-0.108
						c-0.141,0-0.283,0-0.417,0c0-0.039,0-0.077,0-0.117c-0.208,0-0.424,0-0.628,0c0-0.027,0-0.062,0-0.098c-0.074,0-0.153,0-0.209,0
						c-0.047-0.069-0.075-0.137-0.121-0.206c-0.131,0-0.28,0-0.418,0c-0.315-0.366-0.632-0.707-0.938-1.055c-0.384,0-0.771,0-1.162,0
						c0-0.039,0-0.065,0-0.109c-0.113,0-0.218,0-0.314,0c0-0.032,0-0.062,0-0.102c-0.748-0.037-1.473-0.071-2.213-0.106
						c0,0.035,0,0.069,0,0.106c-0.114,0-0.209,0-0.314,0c0,0.04,0,0.068,0,0.102c-0.066,0-0.147,0-0.218,0c0,0.044,0,0.071,0,0.109
						c-0.279,0.123-0.31-0.03-0.519,0.204c-0.396,0.428,0.121,0.642-0.101,1.057c-0.031,0-0.077,0-0.108,0c0,0.037,0,0.07,0,0.098
						c-0.109,0-0.209,0-0.321,0c-0.012-0.365,0.018-0.685-0.105-0.94c-0.04,0-0.066,0-0.098,0c0-0.069,0-0.138,0-0.214
						c-0.03,0-0.077,0-0.107,0c0-0.243,0-0.486,0-0.731c0,0-0.08,0-0.109-0.213c-0.216-0.059-0.089,0.008-0.216-0.108
						c-0.583,0.062-1.335,0.739-1.583,1.157c-0.092,0-0.209,0-0.311,0c0-0.028,0-0.063,0-0.104c-0.034,0-0.068,0-0.107,0
						c-0.077-0.254,0.158-0.214,0.209-0.313c0.044-0.139,0.08-0.285,0.117-0.417c-0.252-0.093-0.478-0.116-0.853-0.111
						c0-0.028,0-0.067,0-0.102c-0.028,0-0.058,0-0.105,0c0.047-0.383,0.077-0.771,0.105-1.159c0.034,0,0.07,0,0.113,0
						c0-0.062,0-0.143,0-0.208c0.066-0.037,0.14-0.064,0.211-0.1c0-0.082,0-0.15,0-0.209c0.033,0,0.071,0,0.105,0
						c0-0.12,0-0.213,0-0.325c0.198-0.307,0.434,0.069,0.516-0.635c-0.209-0.031-0.418-0.072-0.621-0.106
						c-0.045-0.104-0.072-0.213-0.103-0.314c-0.042,0-0.082,0-0.108,0c0-0.068,0-0.136,0-0.213c-0.043,0-0.079,0-0.113,0
						c0-0.198,0-0.41,0-0.632c-0.031-0.079-0.621-0.358-0.733-0.42c0-0.062,0-0.146,0-0.207c-0.631-0.183-0.643-0.803-1.48-0.844
						c-0.02-0.107-0.055-0.219-0.102-0.316c0.191-0.107,0.319-0.228,0.436-0.431c0.414,0,0.836,0,1.248,0c0,0.258,0,0.504,0,0.747
						c0.417,0.005,1.26,0.106,1.485-0.107c0.062,0,0.14,0,0.205,0c0.031-0.109,0.066-0.209,0.116-0.314
						c0.1-0.024,0.198-0.066,0.308-0.101c0.027-0.112,0.068-0.225,0.112-0.315c0.059-0.038,0.132-0.072,0.198-0.107
						c0-0.172,0-0.354,0-0.525c-0.035,0-0.066,0-0.101,0c0.101-0.313,0.213-0.63,0.321-0.954c0.078-0.026,0.141-0.07,0.214-0.099
						c0-0.105,0-0.217,0-0.315c-0.043,0-0.073,0-0.114,0c-0.023-0.113-0.069-0.215-0.101-0.318c-0.542,0-1.082,0.032-1.484,0.104
						c-0.117,0.421-0.415,0.519-0.527,0.954c-0.276-0.019-0.364-0.054-0.523-0.103c-0.028-0.201-0.109-0.223-0.109-0.223
						c0-0.315,0-0.63,0-0.942c-0.031,0-0.07,0-0.102,0c-0.231-0.324-0.51-0.377-0.733-0.635c-0.224,0-0.414,0-0.631,0
						c-0.218,0.25-0.422,0.487-0.624,0.739c-0.086,0-0.138,0-0.215,0c-0.087-0.149-0.296-0.419-0.428-0.524c0-0.071,0-0.146,0-0.215
						c-0.699,0.027-0.67,0.327-0.846,0.845c-0.07,0-0.128,0-0.205,0c-0.132-0.589-0.322-0.834-0.314-1.579
						c-0.209-0.069-0.427-0.14-0.631-0.211c-0.043-0.074-0.071-0.14-0.112-0.213c-0.062,0-0.144,0-0.208,0c0-0.033,0-0.07,0-0.111
						c-0.28,0-0.567,0-0.838,0c0-0.021,0-0.062,0-0.099c-0.175,0-0.353,0-0.528,0c0-0.033,0-0.069,0-0.104c-0.104,0-0.224,0-0.316,0
						c0-0.038,0-0.079,0-0.113c-0.109,0-0.214,0-0.314,0c0-0.025,0-0.062,0-0.098c-0.066,0-0.153,0-0.219,0c0-0.043,0-0.07,0-0.105
						c-0.096,0-0.205,0-0.312,0c0-0.037,0-0.07,0-0.103c-0.162,0-0.345,0-0.536,0c0-0.035,0-0.076,0-0.106
						c-0.158-0.038-0.336-0.066-0.52-0.112c0-0.036,0-0.062,0-0.104c-0.185-0.146-0.243-0.237-0.522-0.317
						c-0.042-0.136-0.066-0.278-0.104-0.417c-0.209-0.03-0.427-0.066-0.64-0.104c0,0.039,0,0.074,0,0.104c-0.128,0-0.275,0-0.411,0
						c0-0.03,0-0.066,0-0.104c-0.182,0-0.346,0-0.535,0c0-0.036,0-0.071,0-0.106c-0.065,0-0.144,0-0.198,0c0-0.034,0-0.066,0-0.094
						c-0.426-0.049-0.864-0.072-1.275-0.117c0-0.033,0-0.065,0-0.103c-0.058,0-0.128,0-0.209,0c0-0.029,0-0.071,0-0.105
						c-0.208,0-0.422,0-0.632,0c-0.167,0.208-0.984,0.717-1.256,0.834c0,0.152,0,0.292,0,0.422c0.059,0.039,0.129,0.076,0.201,0.106
						c0,0.069,0,0.151,0,0.218c-0.108,0.118-0.033,0-0.108,0.208c-0.131-0.037-0.271-0.07-0.418-0.103
						c-0.058-0.255-0.094-0.255-0.202-0.431c-0.042,0-0.073,0-0.108,0c-0.044-0.346-0.074-0.693-0.097-1.049
						c0.012-0.141,0.073,0.045,0.097-0.103c-0.044,0-0.074,0-0.097,0c0-0.105,0-0.213,0-0.315c-0.183-0.393-0.411-0.172-0.218-0.735
						c-0.187-0.072-0.33-0.114-0.635-0.114c0,0.114,0,0.205,0,0.32c-0.036,0-0.071,0-0.109,0c0,0.315,0,0.631,0,0.946
						c-0.039,0-0.058,0-0.105,0c-0.093,0.144-0.201,0.28-0.31,0.422c-0.139,0-0.283,0-0.425,0c-0.105-0.142-0.207-0.278-0.312-0.422
						c-0.104-0.033-0.205-0.065-0.321-0.103c0-0.071,0-0.139,0-0.213c-0.239-0.07-0.189-0.036-0.305-0.209
						c-0.626,0.066-0.438,0.316-0.749,0.64c-0.323,0.331-0.607,0.213-0.733,0.836c-0.36,0.097-1.097,0.833-1.255,1.148
						c-0.195-0.021-0.365-0.062-0.528-0.099c-0.043-0.142-0.081-0.279-0.12-0.421c0.131-0.103,0.131-0.25,0.211-0.321
						c0.071,0,0.153,0,0.223,0c0.066-0.036,0.066-0.136,0.213-0.212c-0.095-0.331-0.271-0.371-0.436-0.627
						c-0.259,0.021-0.359,0-0.519,0.117c0,0.021,0,0.058,0,0.088c-0.065,0-0.135,0-0.212,0c0,0.044,0,0.076,0,0.118
						c-0.57-0.042-1.124-0.074-1.695-0.118c-0.053-0.088-0.12-0.205-0.197-0.31c-0.074,0-0.143,0-0.214,0c0-0.037,0-0.071,0-0.106
						c-0.232-0.143-0.154,0.06-0.321-0.21c-0.311,0.009-0.633-0.012-0.837,0.116c-0.04,0.061-0.073,0.129-0.102,0.201
						c-0.205,0.039-0.417,0.074-0.631,0.104c0,0.066,0,0.139,0,0.205c-0.062,0.044-0.396,0.091-0.423,0.118
						c-0.062,0.094-0.143,0.207-0.221,0.304c-0.123,0-0.267,0-0.414,0c0,0.039,0,0.076,0,0.106c-0.108,0-0.209,0-0.31,0
						c-0.035,0.069-0.081,0.151-0.116,0.218c-0.248,0.117-1.299,0.012-1.47,0c0-0.544-0.016-1.023-0.198-1.373
						c-0.081-0.033-0.154-0.065-0.229-0.103c0-0.213,0-0.422,0-0.626c-0.092-0.082-0.205-0.15-0.314-0.218
						c-0.022-0.115-0.077-0.207-0.098-0.32c-0.068,0-0.149,0-0.209,0c0-0.034,0-0.064,0-0.099c-0.205,0.099-0.313,0.123-0.426,0.304
						c-0.262-0.013-0.375,0-0.53-0.091c0-0.041,0-0.072,0-0.114c-0.066,0-0.132,0-0.202,0c0-0.034,0-0.064,0-0.099
						c-0.147,0-0.287,0-0.418,0c-0.121-0.144-0.222-0.282-0.326-0.419c-0.14-0.041-0.29-0.078-0.422-0.107
						c-0.039-0.075-0.07-0.146-0.09-0.208c-0.189-0.109-0.361-0.207-0.542-0.312c-0.062-0.175-0.256-0.495-0.209-0.746
						c0,0,0.151-0.1,0.109-0.314c-0.032,0-0.071,0-0.109,0c0-0.098,0-0.208,0-0.313c-0.311,0-0.632,0-0.938,0
						c-0.05,0.076-0.074,0.138-0.111,0.217c-0.312-0.079-0.633-0.141-0.952-0.217c0,0.076,0,0.138,0,0.217
						c-0.286,0.076-0.239,0.011-0.31,0.312c-0.249,0.065-0.485,0.138-0.751,0.198c-0.057,0.126-0.13,0.215-0.2,0.323
						c-0.07,0.042-1.02,0.303-1.163,0.207c0-0.027,0-0.063,0-0.093c-0.174,0-0.35,0-0.524,0c0-0.036,0-0.079,0-0.114
						c-0.256-0.171-0.692-0.475-0.841-0.735c-0.67,0.062-1.34,0.139-2.006,0.216c0,0.035,0,0.064,0,0.099c-0.073,0-0.144,0-0.205,0
						c-0.034,0.073-0.068,0.144-0.106,0.225c-0.137,0.025-0.283,0.058-0.411,0.088c-0.105,0.144-0.223,0.288-0.34,0.433
						c-0.272,0.021-0.555,0.067-0.818,0.105c-0.083,0.098-0.155,0.207-0.22,0.301c-0.071,0-0.146,0-0.213,0c0,0.041,0,0.069,0,0.114
						c-0.144,0.029-0.28,0.066-0.419,0.107c0,0.032,0,0.061,0,0.099c-0.381,0-0.776,0-1.171,0c0,0.039,0,0.071,0,0.111
						c-0.14,0.039-0.271,0.066-0.416,0.101c0,0.041,0,0.078,0,0.109c-1.006-0.031-2.031-0.068-3.049-0.109c0-0.034,0-0.062,0-0.101
						c-0.138,0-0.284,0-0.419,0c0-0.04,0-0.072,0-0.111c-0.034,0-0.062,0-0.111,0c-0.381-0.066-1.345-0.11-1.477,0
						c-0.284,0.083-0.245,0.03-0.312,0.321c-0.284,0.064-0.334,0.169-0.523,0.304c0,0.043,0,0.085,0,0.115c-0.078,0-0.144,0-0.214,0
						c0,0.032,0,0.07,0,0.104c-0.096,0-0.208,0-0.314,0c0,0.033,0,0.074,0,0.114c-0.065,0-0.139,0-0.215,0c0,0.021,0,0.067,0,0.098
						c-0.169,0-0.352,0-0.529,0c0,0.042,0,0.075,0,0.106c-0.132,0-0.271,0-0.41,0c0,0.035,0,0.066,0,0.106
						c-0.501,0.148-1.146-0.082-1.475,0.21c-0.541-0.021-0.741-0.011-0.845,0.418c-0.035,0-0.066,0-0.106,0
						c-0.017,0.069,0.259,0.716,0.31,0.838c0.045,0,0.073,0,0.101,0c0,0.258,0,0.496,0,0.736c0.052,0,0.088,0,0.119,0
						c0,0.076,0,0.147,0,0.218c0.036,0,0.06,0,0.098,0c0.102,0.152,0.102,0.254,0.113,0.532c-0.113,0-0.211,0-0.33,0
						c-0.2,0.43-0.516,0.593-0.629,1.156c-0.495,0-0.844-0.022-1.145-0.214c-0.039-0.075-0.074-0.135-0.116-0.207
						c-0.173-0.037-0.351-0.072-0.521-0.113c0-0.029,0-0.061,0-0.1c-0.369,0.04-0.536,0.122-0.735,0.313
						c-0.036,0.067-0.073,0.144-0.104,0.215c-0.064,0-0.136,0-0.208,0c-0.039,0.066-0.084,0.14-0.112,0.208c-0.072,0-0.137,0-0.21,0
						c0,0.037,0,0.064,0,0.103c-0.258-0.038-0.496-0.064-0.734-0.103c0,0.037,0,0.064,0,0.103c-0.146,0.04-0.291,0.075-0.429,0.109
						c-0.027,0.072-0.068,0.143-0.105,0.209c-0.136,0-0.279,0-0.413,0c-0.433,0.146-0.844,0.373-1.052,0.731
						c-0.427-0.025-0.85-0.069-1.273-0.098c-0.065-0.106-0.139-0.217-0.206-0.316c-0.21,0-0.417,0-0.635,0c0-0.032,0-0.082,0-0.112
						c-0.375-0.09-0.954,0.196-1.155,0.322c-0.032,0.073-0.074,0.136-0.104,0.205c-0.304,0.141-0.911-0.06-1.059-0.098
						c-0.172,0-0.346,0-0.528,0c0,0.028,0,0.072,0,0.098c-0.174-0.025-0.354-0.069-0.529-0.098c0-0.033,0-0.079,0-0.105
						c-0.279-0.069-0.523,0.19-0.729,0.204c-0.178-0.025-0.351-0.069-0.535-0.098c-0.06,0.098-0.139,0.199-0.204,0.321
						c-0.077,0-0.142,0-0.207,0c0,0.03,0,0.061,0,0.103c-0.185,0-0.354,0-0.532,0c0,0.027,0,0.065,0,0.105c-0.072,0-0.132,0-0.213,0
						c-0.037,0.069-0.064,0.133-0.095,0.21c-0.111,0-0.22,0-0.322,0c0,0.031,0,0.062,0,0.105c-0.143,0.032-0.278,0.065-0.416,0.099
						c-0.071,0.143-0.145,0.281-0.219,0.419c-0.137,0-0.276,0-0.421,0c0,0.044,0,0.079,0,0.109c-0.261,0.191-0.377,0.427-0.739,0.529
						c-0.072,0.294-0.184,0.303-0.306,0.522c-0.21,0-0.425,0-0.634,0c0-0.033,0-0.066,0-0.107c-0.375-0.171-0.346-0.283-0.845-0.314
						c-0.08,0.605-0.09,0.378-0.414,0.633c0,0.031,0,0.067,0,0.104c-0.114,0.07-0.215,0.147-0.322,0.213c0,0.064,0,0.147,0,0.213
						c-0.032,0-0.083,0-0.111,0c0,0.062,0,0.138,0,0.203c-0.079,0.045-0.128,0.072-0.211,0.106c0,0.108,0,0.219,0,0.317
						c0.239,0.071,0.253,0.103,0.429,0.211c0,0.037,0,0.072,0,0.112c0.272,0,0.549,0,0.834,0c-0.051,0.438-0.144,0.332-0.318,0.623
						c-0.301,0-0.623,0-0.945,0c-0.022-0.003-0.028-0.136-0.213-0.107c0,0.039,0,0.076,0,0.107c-0.172,0.031-0.342,0.07-0.519,0.102
						c-0.07,0.291-0.142,0.248-0.215,0.527c-0.343,0.045-0.677,0.107-0.843,0.326c0,0.069,0,0.141,0,0.213
						c-0.1,0.059-0.207,0.126-0.312,0.213c0,0.027,0,0.059,0,0.098c-0.179-0.098-0.352-0.219-0.527-0.312c0-0.042,0-0.072,0-0.111
						c-0.63,0-1.258,0-1.892,0c-0.914,0-2.13-0.102-2.84,0.111c-0.251,0-0.498,0-0.744,0c0,0.026,0,0.059,0,0.093
						c-0.11,0-0.213,0-0.309,0c0,0.033,0,0.07,0,0.121c-0.496,0-0.994,0-1.486,0c0,0.027,0,0.059,0,0.098c-0.065,0-0.132,0-0.212,0
						c0,0.029,0,0.081,0,0.111c-0.333,0.161-0.656,0.197-1.154,0.197c-0.068,0.222,0.015,0.092-0.099,0.222
						c-0.226,0.2-0.608-0.013-0.953,0.097c-0.398,0.135-0.54,0.334-1.161,0.312c0,0.076,0,0.148,0,0.214c-0.035,0-0.072,0-0.103,0
						c-0.137,0.179-0.283,0.354-0.415,0.525c-0.207,0.028-0.424,0.077-0.641,0.111c-0.032,0.069-0.066,0.132-0.108,0.209
						c-0.169,0.034-0.344,0.069-0.526,0.106c-0.029,0.068-0.065,0.146-0.1,0.211c-0.08,0-0.138,0-0.217,0c0,0.038,0,0.071,0,0.102
						c-0.139,0.039-0.276,0.065-0.413,0.104c0,0.041,0,0.076,0,0.104c-0.188,0-0.355,0-0.528,0c0,0.04,0,0.072,0,0.109
						c-0.118,0.04-0.215,0.07-0.312,0.101c-0.039,0.117-0.079,0.216-0.112,0.315c-0.115,0.04-0.209,0.077-0.309,0.105
						c0,0.032,0,0.072,0,0.114c-0.322,0.098-0.635,0.206-0.951,0.304c0,0.04,0,0.078,0,0.117c-0.112,0-0.213,0-0.322,0
						c0,0.032,0,0.067,0,0.108c-0.064,0-0.146,0-0.211,0c0,0.027,0,0.064,0,0.106c-0.102,0-0.213,0-0.312,0
						c-0.034,0.061-0.066,0.141-0.111,0.208c-0.067,0-0.131,0-0.193,0c-0.045,0.057-0.087,0.132-0.105,0.211
						c-0.158,0.028-0.292,0.065-0.428,0.104c-0.08,0.101-0.146,0.209-0.226,0.313c-0.339,0.026-0.696,0.072-1.056,0.104
						c0,0.035,0,0.069,0,0.102c-0.096,0-0.195,0-0.317,0c0,0.038,0,0.072,0,0.103c-0.478,0-0.969,0-1.462,0c0,0.044,0,0.08,0,0.114
						c-0.206-0.034-0.417-0.07-0.629-0.114c0,0.044,0,0.08,0,0.114c-0.178,0-0.35,0-0.526,0c-0.075-0.034-0.136-0.07-0.204-0.114
						c0,0.044,0,0.08,0,0.114c-0.221,0-0.427,0-0.644,0c0,0.034,0,0.072,0,0.1c-0.694,0-1.405,0-2.107,0c0,0.039,0,0.075,0,0.102
						c-0.208,0.043-0.417,0.077-0.63,0.112c-0.032,0.076-0.071,0.146-0.097,0.208c-0.249,0-0.492,0-0.742,0
						c0,0-0.134,0.175-0.206,0.215c0,0.137,0,0.267,0,0.419c0.58,0.092,0.323,0.242,0.623,0.423c0.075,0,0.145,0,0.211,0
						c0,0.035,0,0.073,0,0.106c0.179-0.034,0.354-0.072,0.532-0.106c0,0.035,0,0.073,0,0.106c0.071,0,0.136,0,0.208,0
						c0.035,0.066,0.08,0.137,0.101,0.217c0.258,0,0.484,0,0.744,0c0.074-0.111,0.136-0.217,0.211-0.324
						c0.341-0.153,0.937,0.062,1.152,0.106c-0.027,0.242-0.066,0.491-0.099,0.733c-0.269,0.045-0.39,0.109-0.74,0.115
						c-0.104,0.238-0.088,0.377-0.313,0.52c-0.039,0.11-0.075,0.207-0.1,0.312c0.127,0.095,0.117,0.08,0.194,0.21
						c0.832-0.004,2.008-0.126,2.645,0.1c0,0.084,0,0.157,0,0.217c-0.033,0-0.069,0-0.113,0c0,0.071,0,0.153,0,0.219l-0.209,0.205
						c-0.14,0.034-0.279,0.071-0.417,0.11c-0.037,0.062-0.075,0.133-0.103,0.208c-0.145,0-0.29,0-0.421,0c0,0.036,0,0.072,0,0.104
						c-0.075,0-0.147,0-0.213,0c0,0.036,0,0.074,0,0.101c-0.077,0-0.138,0-0.21,0c0,0.04,0,0.074,0,0.105c-0.079,0-0.145,0-0.213,0
						c0,0.046,0,0.07,0,0.116c-0.101,0.033-0.212,0.067-0.311,0.093c0,0.042,0,0.076,0,0.106c-0.148-0.083-0.126-0.09-0.216-0.199
						c-0.529,0.03-1.476,0.612-1.685,0.934c-0.508-0.02-0.802-0.509-1.257-0.298c-0.042,0.066-0.074,0.128-0.116,0.209
						c-0.167,0.021-0.355,0.054-0.519,0.089c-0.025,0.082-0.077,0.146-0.104,0.225c-0.067,0-0.146,0-0.223,0c0,0.032,0,0.065,0,0.096
						c-0.45,0-0.902,0-1.359,0c0,0.035,0,0.07,0,0.109c-0.14,0-0.285,0-0.421,0c0,0.042,0,0.066,0,0.098c-0.077,0-0.145,0-0.215,0
						c0,0.047,0,0.073,0,0.107c-0.062,0-0.134,0-0.211,0c0,0.042,0,0.081,0,0.108c-0.169,0.053-0.207-0.108-0.207-0.108
						s-0.267,0.104-0.421,0.108c0,0.029,0,0.077,0,0.11c-0.036,0-0.069,0-0.091,0c0,0.105,0,0.217,0,0.31
						c0.055,0.035,0.128,0.066,0.195,0.104c0,0.048,0,0.078,0,0.108c0.067,0,0.131,0,0.211,0c0.066,0.104,0.143,0.211,0.199,0.316
						c0.114,0,0.225,0,0.325,0c0.321,0.136,0.474,0.307,0.955,0.307c0.042,0.127,0.066,0.217,0.102,0.323
						c0.208,0.04,0.416,0.07,0.632,0.103c0.069,0.106,0.132,0.22,0.203,0.325c0.18,0.03,0.354,0.064,0.527,0.101
						c0.039,0.021,0.098,0.155,0.215,0.206c-0.158,0.556-1.037,0.733-1.477,1.058l-0.202,0.217c0,0.074,0,0.137,0,0.207
						c-0.072,0.035-0.15,0.07-0.217,0.104c0,0.14,0,0.281,0,0.411c-0.033,0-0.072,0-0.103,0c0,0.081,0,0.151,0,0.227
						c-0.03,0-0.077,0-0.108,0c0,0.065,0,0.141,0,0.205c-0.074,0.03-0.135,0.069-0.207,0.104c0,0.063,0,0.146,0,0.203
						c-0.041,0-0.072,0-0.106,0c0,0.083,0,0.139,0,0.219c-0.038,0-0.077,0-0.095,0c-0.049,0.178-0.083,0.352-0.12,0.521
						c0.036,0,0.071,0,0.12,0c0,0.18,0,0.352,0,0.532c0,0-1.403,0.603-1.493,0.638c0.031,0.479,0.031,0.46,0.213,0.729
						c0.04,0,0.068,0,0.101,0c0,0.109,0,0.216,0,0.322c0.041,0,0.083,0,0.129,0c0,0.031,0,0.072,0,0.105c-0.045,0-0.088,0-0.129,0
						c0.041,0.17,0.083,0.351,0.129,0.527c0.091,0.072,0.195,0.124,0.29,0.205c0.26,0.35,0.507,0.702,0.76,1.059
						c-0.049,0.451-0.083,0.91-0.12,1.373c0.721,0.127,1.758,0.107,2.634,0.094c0,0.07,0,0.14,0,0.221
						c-0.105,0.036-0.215,0.067-0.311,0.102c0,0.03,0,0.068,0,0.113c-0.104,0-0.211,0-0.328,0c0,0.021,0,0.061,0,0.101
						c-0.065,0-0.133,0-0.205,0c-0.045,0.025-0.088,0.133-0.218,0.209c0,0.067,0,0.135,0,0.199c0.117,0.091,0.166,0.191,0.218,0.324
						c0.05,0.017,0.923,0.09,0.951,0.107c0.1,0.137,0.216,0.284,0.31,0.423c0.141-0.027,0.183-0.186,0.432-0.109
						c0,0.036,0,0.069,0,0.109c0.097,0,0.202,0,0.308,0c0,0.03,0,0.071,0,0.104c0.14,0.034,0.277,0.068,0.423,0.097
						c0,0.036,0,0.082,0,0.108c0.108,0,0.209,0,0.316,0c0,0.033,0,0.075,0,0.099c0.174,0.132,0.149,0.07,0.213,0.324
						c0.061,0,0.146,0,0.198,0c0.046,0.106,0.072,0.218,0.11,0.317c0.213,0.179,0.434,0.354,0.628,0.527c0,0.065,0,0.135,0,0.212
						c0.035,0,0.083,0,0.115,0c0.088,0.167-0.603,0.478-0.635,0.527c0,0.07,0,0.139,0,0.213c-0.391,0.073-1.369,0.626-1.475,0.934
						c0.04,0.222,0.066,0.431,0.105,0.645c0.073,0.029,0.14,0.066,0.21,0.1c0.133,0.388-0.312,0.648-0.421,0.843
						c-0.524,0-1.212-0.037-1.469,0.207c-0.573,0.164-0.41,0.563-0.639,1.052c-0.095,0.2-0.316,0.431-0.416,0.642
						c-0.135,0.033-0.279,0.07-0.421,0.103c0,0.035,0,0.07,0,0.105c-0.14,0-0.285,0-0.421,0c-0.038,0.065-0.077,0.135-0.095,0.209
						c-0.361,0.041-0.723,0.072-1.05,0.107c0,0.03,0,0.071,0,0.115c-0.088,0-0.162,0-0.229,0c0,0.036,0,0.056,0,0.097
						c-0.105,0-0.213,0-0.314,0c0,0.03,0,0.063,0,0.108c-0.417,0.029-0.836,0.061-1.263,0.104c0,0.065,0,0.141,0,0.208
						c-0.042,0-0.072,0-0.102,0c0,0.323,0,0.63,0,0.955c-0.043,0-0.064,0-0.1,0c0,0.266,0,0.55,0,0.839c-0.05,0-0.079,0-0.11,0
						c0,0.104,0,0.205,0,0.315c-0.044,0-0.073,0-0.106,0c-0.14,0.194-0.178,0.194-0.217,0.521c0.217,0.083,0.433,0.14,0.634,0.212
						c0.072,0.109,0.143,0.208,0.21,0.325c0.247,0,0.493,0,0.732,0c0.074,0.092,0.151,0.207,0.218,0.311c0.736,0,1.475,0,2.211,0
						c0.069,0.099,0.142,0.213,0.203,0.313c0.362,0,0.707,0,1.053,0c0,0.04,0,0.071,0,0.106c0.039,0,0.076,0,0.104,0
						c-0.017,0.273-0.006,0.362-0.104,0.523c-0.03,0-0.071,0-0.101,0c0,0.394,0,0.768,0,1.153c-0.032,0-0.074,0-0.102,0
						c-0.032,0.215-0.073,0.433-0.117,0.636c0.043,0,0.084,0,0.117,0c0,0.14,0,0.284,0,0.42c0.027,0,0.069,0,0.102,0
						c0,0.067,0,0.145,0,0.216c0.071,0.03,0.14,0.072,0.205,0.106c0.077,0.201,0.156,0.427,0.223,0.627c0.311,0,0.623,0,0.945,0
						c0.06-0.2-0.018-0.085,0.098-0.2c0.264-0.242,0.792,0.054,1.164-0.116c0.062-0.021,0.008-0.143,0.32-0.205
						c0,0.062,0,0.133,0,0.205c-0.079,0-0.133,0-0.213,0c-0.061,0.203,0.012,0.089-0.107,0.203c0,0.047,0,0.088,0,0.113
						c-0.249,0-0.493,0-0.738,0c0,0.04,0,0.076,0,0.104c-0.257,0.178-0.077,0.078-0.202,0.312c-0.043,0-0.071,0-0.108,0
						c0,0.113,0,0.22,0,0.325c-0.115,0.067-0.213,0.14-0.324,0.208c0.04,0.175,0.079,0.359,0.111,0.525c-0.032,0-0.072,0-0.111,0
						c0,0.035,0,0.071,0,0.104c-0.21-0.033-0.418-0.069-0.633-0.104c0,0.035,0,0.071,0,0.104c-0.039,0-0.069,0-0.096,0
						c0,0.277,0,0.562,0,0.847c0.027,0,0.058,0,0.096,0c0.089,0.286,0.021,0.238,0.323,0.312c0,0.071,0,0.14,0,0.215
						c0.061,0,0.142,0,0.216,0c0,0.031,0,0.065,0,0.104c0.303,0,0.623,0,0.947,0c0.065,0.104,0.137,0.207,0.209,0.316
						c0.062,0,0.132,0,0.209,0c0,0.036,0,0.063,0,0.108c0.243,0,0.481,0,0.729,0c0.036,0.065,0.062,0.134,0.108,0.211
						c0.077,0,0.144,0,0.215,0c0,0.029,0,0.061,0,0.102c0.245,0.037,0.492,0.066,0.74,0.104c0.034,0.072,0.061,0.147,0.099,0.206
						c0.066,0,0.136,0,0.212,0c0,0.04,0,0.073,0,0.113c0.38-0.04,0.768-0.073,1.16-0.113c0.03-0.059,0.062-0.134,0.102-0.206
						c0.075,0,0.141,0,0.208,0c0-0.037,0-0.066,0-0.104c0.292,0,0.574,0,0.846,0c0-0.041,0-0.071,0-0.102
						c0.14-0.037,0.284-0.077,0.412-0.107c0-0.037,0-0.075,0-0.104c0.215,0,0.431,0,0.639,0c0.04-0.108,0.077-0.219,0.113-0.322
						c0.037,0,0.065,0,0.098,0c-0.038-0.35-0.061-0.394-0.312-0.521c0.023-0.641,0.175-0.488,0.635-0.641c0-0.173,0-0.341,0-0.523
						c-0.177-0.037-0.355-0.073-0.533-0.109c-0.028-0.174-0.066-0.348-0.102-0.515c0.713,0.019,0.659-0.022,0.83-0.527
						c0.437,0.047,0.377,0.134,0.657,0.312c0,0.031,0,0.069,0,0.105c0.363,0.172,0.884-0.128,1.158,0.109c0.193,0,0.404,0,0.617,0
						c0-0.042,0-0.079,0-0.109c0.039,0,0.064,0,0.11,0c0-0.384,0-0.767,0-1.166c0,0,0.066,0.022,0.101-0.201
						c0.372-0.034,0.525-0.179,0.845,0c0.038,0.073,0.073,0.132,0.105,0.201c0.066,0,0.145,0,0.215,0c0,0.036,0,0.088,0,0.108
						c0.49,0,0.98,0,1.464,0c0,0.037,0,0.065,0,0.115c0.041,0,0.073,0,0.111,0c-0.082,0.321-0.178,0.438-0.314,0.729
						c-0.041,0-0.082,0-0.104,0c-0.15,0.366,0.069,1.137,0.211,1.266c0.137,0.168,0.274,0.348,0.413,0.521
						c0.182,0.044,0.358,0.075,0.539,0.111c0.055,0.104,0.135,0.213,0.211,0.312c0.063,0,0.135,0,0.201,0
						c0.034,0.071,0.072,0.14,0.112,0.215c0.061,0,0.121,0,0.209,0c0,0.031,0,0.065,0,0.104c0.113,0,0.208,0,0.32,0
						c0,0.03,0,0.067,0,0.104c0.193,0.147,0.32,0.255,0.628,0.322c0,0.065,0,0.134,0,0.211c0.576,0.104,1.065,0.223,1.888,0.205
						c-0.04,0.206-0.071,0.425-0.098,0.633c-0.068,0.029-0.146,0.074-0.211,0.098c0,0.283,0,0.574,0,0.853
						c0.211,0.026,0.423,0.061,0.627,0.104c0.062-0.211-0.011-0.091,0.111-0.217c0.26-0.254,0.623-0.039,0.938-0.201
						c0.033-0.08,0.08-0.146,0.112-0.216c0.278-0.234,0.437-0.409,0.946-0.421c0,0.074,0,0.145,0,0.206
						c0.207,0.036,0.412,0.079,0.64,0.11c0.033,0.063,0.054,0.143,0.096,0.215c0.301,0.236,0.555,0.174,0.957,0.104
						c0.104-0.516,0.483-0.897,0.838-1.162c0-0.034,0-0.071,0-0.106c0.112,0,0.216,0,0.314,0c0.297-0.148,0.681-0.562,0.841-0.842
						c0.244,0.02,0.252,0.045,0.417,0.104c0,0.076,0,0.142,0,0.214c-0.266,0.229-0.088,0.408-0.521,0.524
						c-0.075,0.206,0.01,0.092-0.113,0.206c0.089,0.3,0.196,0.31,0.316,0.523c0.49,0,0.981,0,1.479,0c0-0.022,0-0.067,0-0.098
						c0.173-0.037,0.346-0.076,0.529-0.109c0,0.033,0,0.072,0,0.109c0.322,0.074,0.558-0.146,0.74-0.109c0,0.033,0,0.072,0,0.109
						c0.065,0,0.134,0,0.2,0c0,0.029,0,0.074,0,0.098c0.068,0,0.146,0,0.218,0c0,0.046,0,0.08,0,0.108c0.062,0,0.145,0,0.211,0
						l0.202,0.215c0.081,0,0.154,0,0.214,0c0.035,0.07,0.079,0.136,0.119,0.216c0.089,0,0.199,0,0.305,0c0,0.035,0,0.061,0,0.093
						c0.209,0,0.417,0,0.628,0c0.901,0.008,2.219-0.175,2.629,0.325c0.601,0.009,1.375,0.05,1.796-0.104
						c0-0.349,0.066-0.479,0.112-0.743c-0.112-0.077-0.112-0.132-0.223-0.206c-0.217-0.199-0.606,0.021-0.932-0.109
						c0-0.022,0-0.066,0-0.099c-0.284-0.124-0.502-0.219-0.754-0.317c0.01-0.279,0.05-0.354,0.119-0.522
						c0.598,0.076,0.72,0.494,1.255,0.622c0-0.027,0-0.059,0-0.1c0.072,0,0.145,0,0.217,0c0.023-0.071,0.067-0.145,0.094-0.211
						c0.041,0,0.072,0,0.11,0c0-0.102,0-0.209,0-0.312c0.035,0,0.074,0,0.112,0c0.055-0.133,0.055-0.3,0.106-0.426
						c0.231,0,0.483,0,0.738,0c0.236,0.279,0.486,0.56,0.727,0.842c0.29,0.188,1.032,0.301,1.478,0.319
						c0.01-0.549,0.037-0.42,0.209-0.735c0.396,0.104,0.773,0.211,1.158,0.312c0.033,0.066,0.072,0.14,0.11,0.211
						c0.206,0.041,0.429,0.071,0.624,0.1c0,0.04,0,0.073,0,0.113c0.083,0,0.143,0,0.211,0c0,0.033,0,0.068,0,0.104
						c0.217-0.036,0.423-0.071,0.627-0.104c0.072-0.339,0.168-0.603-0.096-0.845c0.078-0.692,0.403-0.456,0.841-0.734
						c0.034-0.074,0.075-0.143,0.101-0.213c0.117-0.036,0.209-0.067,0.324-0.111c0.104-0.139,0.21-0.281,0.314-0.412
						c0.062,0,0.126,0,0.209,0c0.029-0.076,0.07-0.152,0.107-0.213c0.111,0,0.207,0,0.317,0c0.134-0.18,0.272-0.352,0.417-0.531
						c0.105,0,0.205,0,0.321,0c0-0.034,0-0.062,0-0.102c0.068,0,0.139,0,0.202,0c0-0.039,0-0.07,0-0.107
						c0.112-0.068,0.216-0.141,0.316-0.208c0.094,0.132,0.077,0.128,0.219,0.208c0,0.107,0,0.209,0,0.315c0.101,0,0.215,0,0.315,0
						c0-0.042,0-0.073,0-0.106c0.381-0.09,0.968-0.771,1.058-1.157c0.347-0.036,0.55-0.085,0.833-0.2c0-0.051,0-0.079,0-0.116
						c0.389,0,0.768,0,1.159,0c0,0.037,0,0.065,0,0.116c0.131,0.021,0.281,0.062,0.429,0.087c0,0.047,0,0.088,0,0.113
						c0.17,0,0.342,0,0.51,0c0,0.04,0,0.076,0,0.104c0.334,0.154,0.566,0.147,0.743,0.426c0.243-0.023,0.264-0.045,0.425-0.113
						c0-0.874,0-1.741,0-2.621c0.045,0,0.072,0,0.104,0c0.232-0.269,0.289-0.073,0.53-0.211c0.077-0.11,0.133-0.217,0.211-0.316
						c0.203,0,0.412,0,0.634,0c0-0.031,0-0.076,0-0.106c0.072,0,0.134,0,0.203,0c0.048-0.075,0.076-0.144,0.113-0.218
						c0.418-0.033,0.839-0.065,1.257-0.101c0.951-0.308,2.604-0.278,3.586,0c0.207,0,0.411,0,0.625,0c0,0.034,0,0.066,0,0.101
						c0.116,0,0.209,0,0.323,0c0.031,0.074,0.077,0.143,0.108,0.218c0.235,0.03,0.486,0.075,0.727,0.106
						c0.066,0.101,0.142,0.206,0.215,0.316c0.206,0.119,0.418-0.013,0.425,0c0.06,0.1,0.134,0.211,0.205,0.318
						c0.172,0.022,0.355,0.062,0.528,0.094c0,0.04,0,0.071,0,0.107c0.143,0.031,0.282,0.071,0.424,0.106c0,0.04,0,0.067,0,0.102
						c0.177,0.044,0.343,0.068,0.516,0.116c0.043,0.066,0.088,0.137,0.118,0.203c0.249,0,0.488,0,0.739,0
						c0.03,0.071,0.061,0.14,0.104,0.216c0.012,0.021,0.206,0.204,0.206,0.204c0.066,0,0.142,0,0.213,0
						c0.098,0.145,0.22,0.288,0.321,0.428c0.1,0.026,0.207,0.062,0.314,0.097c0,0.108,0,0.226,0,0.312c0.031,0,0.065,0,0.103,0
						c0,0.088,0,0.153,0,0.217c0.075,0.036,0.142,0.078,0.212,0.114c0,0.312,0,0.633,0,0.939c0.041,0,0.072,0,0.088,0
						c0,0.207,0,0.422,0,0.637c0.046,0,0.072,0,0.118,0c0.044,0.314,0.071,0.632,0.117,0.944c0,0.568,0.084,1.198-0.235,1.479
						c0,0.033,0,0.068,0,0.104c-0.088,0-0.195,0-0.3,0c0,0.031,0,0.075,0,0.099c-0.072,0-0.157,0-0.21,0c0,0.033,0,0.072,0,0.109
						c-0.284,0-0.563,0-0.851,0c0,0.029,0,0.074,0,0.098c-0.095,0-0.199,0-0.308,0c0,0.047,0,0.08,0,0.108c-0.075,0-0.142,0-0.211,0
						c0,0.036,0,0.079,0,0.11c-0.593,0-1.194,0-1.795,0c-0.07,0.104-0.138,0.215-0.209,0.319c-0.424,0-0.845,0-1.258,0
						c0,0.035,0,0.061,0,0.093c-0.183,0-0.344,0-0.536,0c0,0.043,0,0.079,0,0.108c-0.065,0-0.138,0-0.209,0c0,0.05,0,0.072,0,0.111
						c-0.106,0-0.213,0-0.308,0c0,0.027,0,0.061,0,0.104c-0.132,0.021-0.188-0.188-0.429-0.104c0,0.027,0,0.061,0,0.104
						c-0.135,0.029-0.28,0.068-0.415,0.105c0,0.037,0,0.061,0,0.105c-0.261,0-0.5,0-0.731,0c0,0.03,0,0.069,0,0.102
						c-0.075,0-0.153,0-0.219,0c-0.081,0.106-0.138,0.203-0.213,0.313c-0.202,0-0.422,0-0.619,0c-0.086,0.107-0.16,0.214-0.225,0.32
						c-0.273,0-0.558,0-0.845,0c0,0.037,0,0.063,0,0.1c-0.068,0-0.14,0-0.207,0c0,0.037,0,0.066,0,0.115c-0.173,0-0.351,0-0.526,0
						c0,0.037,0,0.06,0,0.101c-0.243,0-0.481,0-0.731,0c0,0.036,0,0.071,0,0.104c-0.182,0.037-0.206-0.102-0.217-0.104
						c-0.455,0.036-0.911,0.071-1.375,0.104c-0.025,0.077-0.066,0.146-0.099,0.213c-0.17,0.031-0.349,0.07-0.529,0.099
						c0,0.041,0,0.075,0,0.11c-0.458,0-0.911,0-1.372,0c0-0.035,0-0.069,0-0.11c-0.028,0-0.062,0-0.1,0c0,0.041,0,0.075,0,0.11
						c-0.385,0-0.772,0-1.149,0c0,0.024,0,0.07,0,0.095c-0.43,0.035-0.859,0.086-1.272,0.116c-0.249,0-1.473-0.116-1.473-0.116
						c-0.038,0.086-0.072,0.155-0.104,0.225c-0.079,0-0.14,0-0.207,0c0,0.031,0,0.063,0,0.104c-0.077,0-0.146,0-0.224,0
						c0,0.037,0,0.068,0,0.105c-0.693,0-1.397,0-2.097,0c-0.082,0.1-0.156,0.211-0.222,0.312c-0.053,0-0.137,0-0.204,0
						c0,0.04,0,0.062,0,0.105c-0.245,0-0.492,0-0.733,0c-0.07,0.109-0.142,0.207-0.209,0.323c-0.283,0-0.567,0-0.849,0
						c0,0.021,0,0.06,0,0.099c-0.14,0.039-0.277,0.062-0.424,0.104c0,0.041,0,0.075,0,0.106c-0.278,0-0.556,0-0.845,0
						c-0.062,0.111-0.143,0.207-0.199,0.31c-0.319,0-0.648,0-0.958,0c-0.034,0.081-0.071,0.144-0.1,0.225c-0.077,0-0.142,0-0.207,0
						c0,0.031,0,0.066,0,0.088c-0.283,0.046-0.567,0.076-0.84,0.117c0,0.035,0,0.066,0,0.095c-0.149,0.04-0.287,0.08-0.433,0.11
						c0,0.039,0,0.076,0,0.104c-0.351,0-0.705,0-1.04,0c0,0.035,0,0.076,0,0.104c-0.184,0-0.35,0-0.526,0c0,0.045,0,0.08,0,0.11
						c-0.081,0-0.147,0-0.22,0c0,0.033,0,0.078,0,0.107c-0.484,0-0.988,0-1.479,0c0,0.027,0,0.076,0,0.107c-0.066,0-0.139,0-0.205,0
						c-0.033,0.066-0.08,0.129-0.113,0.206c-0.596,0-1.19,0-1.787,0c-0.766,0-1.544,0-2.312,0c-0.253,0.144-0.486,0.276-0.734,0.423
						c0.023,0.248,0.04,0.248,0.099,0.42c0.326,0.061,0.597,0.24,0.837,0.315c2.923,0,5.832,0,8.751,0c1.192,0,2.386,0,3.581,0
						c0-0.041,0-0.061,0-0.106c0.067,0,0.14,0,0.209,0c0.03-0.071,0.071-0.146,0.104-0.209c0.069,0,0.138,0,0.206,0
						c0-0.033,0-0.076,0-0.101c0.178,0.023,0.348,0.066,0.532,0.101c1.017,0,2.032,0,3.048,0c0-0.033,0-0.076,0-0.101
						c0.29,0,0.568,0,0.847,0c0-0.042,0-0.071,0-0.113c0.137-0.033,0.277-0.069,0.421-0.109c0-0.021,0-0.057,0-0.097
						c0.762,0,1.546,0,2.316,0c0.938-0.013,2.072-0.199,2.84-0.423c0.389,0,0.784,0,1.163,0c1.134,0,2.314-0.036,3.158,0.214
						c0.344,0,0.701,0,1.056,0c0,0.026,0,0.062,0,0.105c0.174,0,0.347,0,0.527,0c0,0.031,0,0.063,0,0.104
						c0.095-0.039,0.207-0.071,0.317-0.104c0,0.031,0,0.063,0,0.104c0.662,0,1.319,0,1.99,0c0,0.04,0,0.076,0,0.097
						c0.081,0,0.153,0,0.208,0c0,0.04,0,0.076,0,0.109c0.112,0,0.221,0,0.321,0c0,0.042,0,0.071,0,0.113
						c0.319,0.023,0.634,0.066,0.951,0.101c0,0.037,0,0.063,0,0.104c0.135,0.032,0.28,0.072,0.426,0.104c0,0.047,0,0.065,0,0.106
						c0.249,0,0.488,0,0.739,0c0,0.039,0,0.071,0,0.111c0.166,0.035,0.35,0.064,0.523,0.102c0,0.033,0,0.078,0,0.111
						c0.025,0,0.065,0,0.098,0c0-0.033,0-0.078,0-0.111c0.358,0,0.714,0,1.057,0c0.044,0.111,0.071,0.203,0.117,0.312
						c0.706,0.139,1.746,0.114,2.626,0.114c0.354,0,0.698,0,1.05,0c0-0.038,0-0.069,0-0.114c0.147,0,0.283,0,0.422,0
						c0-0.036,0-0.069,0-0.107c0.144-0.032,0.28-0.068,0.417-0.092c0-0.033,0-0.078,0-0.11c0.138,0.016,0.27,0.17,0.523,0.11
						c0-0.033,0-0.078,0-0.11c0.792,0,1.552,0,2.328,0c0-0.037,0-0.066,0-0.103c0.099,0,0.209,0,0.321,0c0-0.04,0-0.072,0-0.111
						c1.047-0.041,2.096-0.061,3.148-0.106c0-0.031,0-0.071,0-0.104c0.073,0,0.154,0,0.209,0c0-0.041,0-0.067,0-0.104
						c0.663,0,1.342,0,1.997,0c0.052-0.076,0.089-0.143,0.123-0.214c0.28,0,0.56,0,0.838,0c0-0.033,0-0.069,0-0.109
						c0.205,0,0.423,0,0.625,0c0-0.021,0-0.057,0-0.097c0.399,0,0.77,0,1.166,0c0-0.039,0-0.071,0-0.104
						c0.171-0.034,0.178,0.091,0.214,0.104c0.446,0,0.906,0,1.357,0c0-0.039,0-0.071,0-0.104c0.112,0,0.209,0,0.321,0
						c0-0.043,0-0.079,0-0.105c0.071,0,0.14,0,0.214,0c0-0.033,0-0.07,0-0.106c0.101,0,0.197,0,0.311,0c0-0.031,0-0.076,0-0.106
						c1.154,0,2.312,0,3.473,0c0.034-0.077,0.077-0.14,0.112-0.206c0.059,0,0.136,0,0.209,0c0-0.031,0-0.08,0-0.107
						c0.726,0,1.478,0,2.213,0c0-0.029,0-0.074,0-0.106l0.104,0.106c0.039,0,0.059,0,0.105,0c0-0.029,0-0.074,0-0.106
						c0.458,0,0.912,0,1.365,0c0-0.031,0-0.066,0-0.111c0.206-0.027,0.426-0.068,0.644-0.104c0.732,0,1.465,0,2.198,0
						c0.178,0.035,0.353,0.076,0.528,0.104c0-0.027,0-0.068,0-0.104c0.104,0,0.216,0,0.321,0c0.065-0.104,0.136-0.214,0.193-0.309
						c0.09,0,0.163,0,0.229,0c0-0.041,0-0.071,0-0.117c0.171-0.039,0.183,0.113,0.209,0.117c0.598,0,1.19,0,1.783,0
						c0-0.041,0-0.071,0-0.117c0.531,0,1.054,0,1.573,0c0-0.021,0-0.057,0-0.088c0.086,0,0.148,0,0.226,0c0-0.041,0-0.081,0-0.107
						c0.453-0.035,0.911-0.073,1.368-0.116c0.02,0,0.036,0.144,0.205,0.116c0-0.035,0-0.073,0-0.116
						c1.057-0.031,2.117-0.06,3.158-0.103c0.169-0.043,0.635-0.18,0.956-0.096c0,0,0.091,0.147,0.314,0.096
						c1.329-0.297,3.118-0.207,4.746-0.207c0.863-0.03,1.748-0.065,2.632-0.106c0.395,0,1.026,0.08,1.256-0.104
						c0.561,0.01,1.282,0.049,1.683-0.099c0-0.153,0-0.29,0-0.429c-0.033,0-0.076,0-0.105,0c-0.218-0.196-0.597-0.011-0.935-0.103
						c-0.589-0.176-1.194-0.211-2.011-0.211c-0.38,0-0.772,0-1.152,0c0-0.037,0-0.068,0-0.105c-0.368,0-0.708,0-1.064,0
						c0-0.041,0-0.073,0-0.104c-0.279,0-0.56,0-0.838,0c0-0.041,0-0.068,0-0.107c-0.453,0-0.911,0-1.367,0c0-0.03,0-0.081,0-0.116
						c-0.352,0.035-0.701,0.086-1.058,0.116c0-0.03,0-0.081,0-0.116c-0.092,0-0.213,0-0.311,0c0-0.023,0-0.069,0-0.095
						c-0.181,0-0.356,0-0.539,0c0-0.035,0-0.069,0-0.11c-1.034,0-2.101,0-3.147,0c-0.24,0.041-0.495,0.075-0.744,0.11
						c0-0.035,0-0.069,0-0.11c-0.062,0-0.144,0-0.208,0c-0.067-0.099-0.153-0.197-0.21-0.312c-0.428,0-0.833,0-1.261,0
						c-0.402-0.084-1.687,0.077-2.422,0c-0.073-0.033-0.132-0.068-0.213-0.104c0,0.036,0,0.071,0,0.104c-0.135,0-0.279,0-0.419,0
						c-0.07,0.113-0.139,0.213-0.209,0.312c-0.497,0-0.984,0-1.484,0c-1.179,0-2.379,0-3.579,0c0,0,0,0.106-0.205,0.11
						c0-0.035,0-0.069,0-0.11c0,0-0.535,0.205-0.854,0.205c-0.84-0.023-1.678-0.069-2.518-0.095c0-0.035,0-0.069,0-0.11
						c-0.214,0-0.431,0-0.629,0c0-0.027,0-0.066,0-0.099c-0.118,0-0.207,0-0.318,0c0-0.041,0-0.067,0-0.1c-0.104,0-0.209,0-0.318,0
						c0-0.036,0-0.076,0-0.113c-0.057,0-0.135,0-0.212,0c0-0.033,0-0.068,0-0.104c-0.229-0.062-0.574,0.219-0.938,0.104
						c0-0.033,0-0.068,0-0.104c-0.295,0-0.559,0-0.837,0c0-0.041,0-0.062,0-0.101c-0.116,0-0.232,0-0.336,0c0-0.049,0-0.078,0-0.114
						c-0.38,0-0.769,0-1.152,0c0-0.036,0-0.062,0-0.101c-0.323,0-0.628,0-0.942,0c-0.04-0.074-0.078-0.142-0.112-0.213
						c-0.233,0-0.485,0-0.73,0c0-0.034,0-0.068,0-0.107c-1.325,0-2.675,0-3.993,0c0-0.038,0-0.065,0-0.11c-0.154,0-0.282,0-0.433,0
						c0-0.027,0-0.066,0-0.097c-0.109,0-0.207,0-0.322,0c0-0.043,0-0.066,0-0.106c-0.381,0-0.768,0-1.144,0
						c-0.365-0.08-1.255-0.102-2.008-0.102c-0.354,0-0.702,0-1.047,0c0-0.046,0-0.068,0-0.105c-0.111,0-0.222,0-0.321,0
						c0-0.037,0-0.076,0-0.105c-0.308,0-0.634,0-0.946,0c-0.035-0.077-0.074-0.145-0.105-0.217c-0.062,0-0.151,0-0.209,0
						c0-0.028,0-0.065,0-0.108c-0.074,0-0.146,0-0.217,0c0-0.032,0-0.058,0-0.093c-0.114,0-0.21,0-0.325,0
						c-0.021-0.08-0.057-0.146-0.106-0.216c-0.06,0-0.122,0-0.191,0c0-0.04,0-0.068,0-0.104c-0.122,0-0.229,0-0.326,0
						c-0.248-0.173-0.485-0.354-0.74-0.524c0-0.104,0-0.219,0-0.316c-0.063-0.035-0.136-0.072-0.205-0.107c0-0.066,0-0.146,0-0.205
						c-0.036,0-0.075,0-0.113,0c0-0.077,0-0.145,0-0.211c-0.032,0-0.059,0-0.101,0c0-0.497,0-0.985,0-1.483c-0.036,0-0.075,0-0.105,0
						c0-0.097,0-0.204,0-0.31c-0.044,0-0.083,0-0.101,0c0-0.064,0-0.144,0-0.215c-0.038,0-0.077,0-0.108,0c0-0.771,0-1.541,0-2.312
						c0.031,0,0.07,0,0.108,0c0-0.073,0-0.146,0-0.213c0.019,0,0.057,0,0.101,0c0-0.103,0-0.213,0-0.316c0.03,0,0.069,0,0.105,0
						c0-0.497,0-0.987,0-1.473c0.068-0.032,0.139-0.075,0.214-0.111c0-0.067,0-0.14,0-0.206c0.03,0,0.068,0,0.103,0
						c0-0.109,0-0.206,0-0.315c0.039,0,0.076,0,0.102,0c0.042-0.134,0.077-0.274,0.107-0.416c0.036,0,0.071,0,0.102,0
						c0-0.114,0-0.213,0-0.315c0.046,0,0.084,0,0.105,0c0.207-0.248,0.426-0.496,0.63-0.744c0.078,0,0.148,0,0.218,0
						c0.035-0.07,0.07-0.142,0.094-0.206c0.084,0,0.16,0,0.221,0c0.066-0.116,0.151-0.212,0.21-0.315
						c0.105-0.032,0.217-0.072,0.305-0.111c0.06-0.065,0.082-0.148,0.121-0.204c0.205,0,0.418,0,0.628,0
						c0.074-0.108,0.139-0.209,0.213-0.319c0.171,0,0.354,0,0.532,0c0.38-0.122,1.601-0.396,2.202-0.21c0,0.034,0,0.064,0,0.102
						c0.182,0,0.357,0,0.535,0c0.336,0.124,0.418,0.286,0.941,0.319c0-0.075,0-0.14,0-0.211c0.176-0.038,0.342-0.068,0.521-0.108
						c0-0.036,0-0.066,0-0.102c0.077,0,0.135,0,0.212,0c0.043-0.07,0.07-0.138,0.109-0.213c0.178,0,0.352,0,0.524,0
						c0.08-0.098,0.131-0.208,0.213-0.311c0.5-0.235,0.615,0.171,0.941-0.32c0.596,0.069,0.218,0.055,0.423,0.423
						c0.035,0,0.081,0,0.116,0c0.03,0.11,0.07,0.208,0.101,0.31c0.574,0.111,0.53,0.021,1.059-0.102
						c0.088,0.123-0.024,0.021,0.1,0.102c0,0.146,0,0.283,0,0.432c-0.542,0.107-0.869,0.386-1.159,0.724c-0.03,0-0.07,0-0.101,0
						c0,0.086,0,0.151,0,0.224c-0.035,0-0.081,0-0.116,0c-0.102,0.123-0.077,0.198-0.209,0.312c0.062,0.447,0.159,0.346,0.325,0.636
						c0.101,0,0.202,0,0.31,0c0-0.042,0-0.073,0-0.103c0.574,0.028,1.116,0.061,1.689,0.103c0.307,0,0.628,0,0.939,0
						c0.073,0.099,0.15,0.213,0.209,0.314c0.426,0,0.845,0,1.271,0c0.07-0.103,0.136-0.217,0.202-0.314c0.297,0,0.57,0,0.86,0
						c0.062-0.103,0.123-0.219,0.198-0.31c0.282,0,0.569,0,0.853,0c0.344,0.023,0.688,0.054,1.046,0.091c0,0.03,0,0.075,0,0.116
						c0.528,0,1.047,0,1.578,0c0,0.028,0,0.061,0,0.103c0.237,0,0.496,0,0.74,0c0.059-0.103,0.14-0.219,0.207-0.31
						c0.248,0,0.491,0,0.748,0c0.24-0.116,0.59-0.515,0.721-0.744c0.505,0.019,0.702,0.074,0.954,0.321
						c0.039,0.057,0.062,0.133,0.11,0.206c0.068,0,0.13,0,0.2,0c0.253,0.144,0.417,0.338,0.738,0.424c0,0.061,0,0.141,0,0.2
						c0.314,0.081,0.314,0.189,0.539,0.322c0,0.074,0,0.134,0,0.208c0.097,0,0.205,0,0.311,0c0,0.037,0,0.071,0,0.109
						c0.558,0,1.127,0,1.693,0c0.02,0.073,0.055,0.136,0.093,0.206c0.458,0,0.923,0,1.376,0c0,0.034,0,0.066,0,0.101
						c0.377,0,0.772,0,1.16,0c0-0.033,0-0.065,0-0.101c0.333-0.095,0.615,0.062,0.837,0.101c0.069,0.279,0.108,0.315,0.313,0.425
						c0,0.034,0,0.069,0,0.105c-0.313-0.036-0.286-0.01-0.409-0.206c-0.927,0.036-0.389,0.316-0.64,0.837
						c0,0-0.171,0.112-0.209,0.208c-0.412-0.005-0.664-0.085-0.842-0.315c-0.315-0.009-0.922-0.07-1.043,0.107
						c0,0.106,0,0.208,0,0.324c-0.038,0-0.084,0-0.127,0c0,0.066,0,0.137,0,0.204c-0.021,0-0.057,0-0.097,0
						c-0.023,0.104-0.062,0.215-0.105,0.316c-0.449,0.031-0.469,0.121-0.732,0.317c0,0.031,0,0.073,0,0.106c-0.081,0-0.14,0-0.209,0
						c0,0.031,0,0.073,0,0.104c-0.245,0.062-0.5,0.133-0.743,0.205c-0.024,0.065-0.063,0.139-0.105,0.203c-0.07,0-0.143,0-0.208,0
						c0,0.047,0,0.088,0,0.113c-0.312,0-0.632,0-0.947,0c-0.565,0-1.12,0-1.683,0c0-0.025,0-0.066,0-0.113c-0.073,0-0.138,0-0.221,0
						c0-0.024,0-0.064,0-0.087c-0.059,0-0.131,0-0.206,0c-0.031-0.079-0.062-0.138-0.113-0.226c-0.057-0.033-0.332-0.068-0.402-0.097
						c-0.121,0.258-0.333,0.576-0.217,1.051c0.04,0,0.071,0,0.109,0c0,0.033,0,0.066,0,0.105c0,0.031,0,0.069,0,0.105
						c-0.039,0-0.07,0-0.109,0c-0.081,0.36,0.06,0.696,0.109,0.948c0.267,0.049,0.755,0.213,1.155,0.104c0-0.045,0-0.07,0-0.104
						c0.275,0,0.573,0,0.844,0c0.201,0.168,0.423,0.344,0.621,0.523c-0.039,0.393-0.175,0.451-0.306,0.74
						c0.562,0.245,0.815,0.542,1.68,0.528c0.068-0.246,0.143-0.497,0.216-0.743c1.046,0,2.102,0,3.156,0c0-0.026,0-0.074,0-0.101
						c0.07,0,0.136,0,0.212,0c0-0.033,0-0.074,0-0.109c0.103,0,0.205,0,0.315,0c0-0.032,0-0.068,0-0.104c0.073,0,0.143,0,0.209,0
						c0-0.036,0-0.067,0-0.111c0.107-0.021,0.2-0.067,0.314-0.102c0.093,0.155,0.2,0.315,0.326,0.426c0,0.073,0,0.139,0,0.203
						c0.066,0,0.132,0,0.204,0c0,0.075,0,0.144,0,0.215c0.137,0.03,0.271,0.067,0.424,0.104c0,0.039,0,0.076,0,0.104
						c0.178,0.065,0.73-0.354,0.954-0.422c0.169-0.13,0.469,0.014,0.62,0.215c0.488,0,0.987,0,1.485,0c0,0.03,0,0.067,0,0.104
						c0.064,0.039,0.14,0.076,0.205,0.104c0,0.109,0,0.219,0,0.321c0.077,0.03,0.135,0.07,0.205,0.107c0,0.029,0,0.061,0,0.102
						c0.081,0,0.146,0,0.206,0c0,0.037,0,0.066,0,0.104c0.214,0.072,0.434,0.147,0.64,0.206c0,0.04,0,0.073,0,0.113
						c0.434,0.154,1.919-0.032,2.209-0.113c0.446-0.114,0.701,0.212,0.959,0c0.29-0.063,0.246-0.128,0.417-0.311
						c0.058-0.041,0.136-0.071,0.208-0.102c0-0.256,0-0.494,0-0.739c0,0,0.168-0.128,0.205-0.215c0.248,0,0.49,0,0.737,0
						c0.066,0.104,0.137,0.215,0.222,0.317c0.198,0,0.418,0,0.633,0c0,0.03,0,0.067,0,0.104c0.069,0,0.131,0,0.193,0
						c0,0.039,0,0.076,0,0.104c0.085,0,0.147,0,0.209,0c0.039,0.072,0.079,0.146,0.117,0.219c0.216,0,0.419,0,0.63,0
						c0,0.027,0,0.066,0,0.104c0.063,0,0.141,0,0.218,0c0.015,0.07,0.062,0.138,0.101,0.209c0.071,0,0.132,0,0.209,0
						c0,0.037,0,0.066,0,0.104c0.178,0,0.35,0,0.528,0c0-0.037,0-0.066,0-0.104c0.316-0.068,0.614,0.144,0.74,0.311
						c0.337,0,0.685,0,1.039,0c0.325-0.352,0.647-0.694,0.95-1.048c0.398,0.045,0.488,0.151,0.636,0.426
						c0.277-0.018,0.357-0.054,0.53-0.108c-0.024-0.474-0.128-0.503-0.205-0.845c0.022,0,0.069,0,0.089,0c0-0.032,0-0.068,0-0.104
						c0.092,0.054,0.252,0.18,0.435,0.104c0-0.032,0-0.068,0-0.104c0.078,0,0.128,0,0.209,0c0.03-0.067,0.073-0.134,0.104-0.212
						c0.1,0,0.208,0,0.314,0c0-0.038,0-0.072,0-0.104c1.298,0,2.593,0,3.905,0c0-0.031,0-0.076,0-0.11
						c0.133-0.035,0.271-0.064,0.41-0.097c0-0.045,0-0.076,0-0.107c0.562-0.045,1.121-0.07,1.687-0.104c0,0.034,0,0.061,0,0.104
						c0.143,0,0.278,0,0.421,0c0.209-0.092,0.579-1.054,0.634-1.379c0.278,0,0.565,0,0.845,0c0.077,0.113,0.14,0.22,0.213,0.325
						c0.353,0,0.698,0,1.05,0c0.812,0,1.761-0.007,2.428,0.109c0.023-0.109,0.062-0.216,0.096-0.321c0.043,0,0.073,0,0.104,0
						c0.06-0.172-0.24-0.528-0.317-0.643c-0.031,0-0.059,0-0.095,0c0-0.225,0-0.481,0-0.726c-0.046,0-0.069,0-0.107,0
						c0-0.073,0-0.146,0-0.213c-0.039,0-0.077,0-0.108,0c-0.062-0.316-0.144-0.638-0.209-0.953c0.775,0,1.551,0,2.31,0
						c0-0.03,0-0.07,0-0.094c0.071,0,0.14,0,0.214,0c0-0.034,0-0.076,0-0.107c0.321-0.174,0.442-0.211,0.949-0.211
						c0.066-0.217-0.019-0.09,0.11-0.217c-0.043-0.239-0.075-0.49-0.11-0.73c-0.104-0.072-0.201-0.151-0.321-0.218
						c0-0.167,0-0.35,0-0.521c-0.078-0.042-0.128-0.073-0.202-0.104c0-0.115,0-0.206,0-0.325c-0.043,0-0.081,0-0.112,0
						c-0.129-0.248,0.05-0.147-0.21-0.305c0-0.186,0-0.352,0-0.533c0.04,0,0.082,0,0.117,0c0-0.043,0-0.063,0-0.104
						c0.237,0,0.481,0,0.729,0c0.035-0.072,0.066-0.139,0.11-0.211c0.056,0,0.131,0,0.211,0c0-0.048,0-0.074,0-0.104
						c0.351,0,0.699,0,1.04,0c0-0.04,0-0.075,0-0.108c0.039,0,0.082,0,0.11,0c-0.029-0.239,0-0.277-0.11-0.421
						c-0.035,0-0.058,0-0.102,0c0-0.07,0-0.139,0-0.213c-0.026,0-0.057,0-0.103,0c0-0.281,0-0.561,0-0.846
						c0,0-0.164-0.126-0.203-0.207c-0.767-0.02-1.318-0.051-1.588,0.422c-0.129,0-0.277,0-0.419,0
						c-0.073-0.099-0.148-0.215-0.205-0.312c-0.113-0.035-0.207-0.077-0.313-0.11c-0.074-0.208,0-0.098-0.117-0.208
						c0-0.402,0.013-0.795,0.117-1.059c0.027,0,0.069,0,0.106,0c0-0.034,0-0.062,0-0.101c0.167,0,0.339,0,0.517,0
						c0.066-0.104,0.144-0.217,0.221-0.313c0.329,0,0.69,0,1.05,0c0.043-0.02,0.005-0.142,0.312-0.222
						c0.039-0.099,0.066-0.199,0.116-0.309c0.011,0,0.066,0,0.096,0c0-0.069,0-0.139,0-0.211c0.038,0,0.07,0,0.108,0
						c0.112-0.384-0.321-0.853-0.429-1.059c-0.319,0-0.629,0-0.943,0c-0.104,0.049-0.166,0.458-0.53,0.325
						c-0.074-0.103-0.143-0.214-0.214-0.325c-0.383,0-0.759,0-1.163,0c0-0.031,0-0.071,0-0.107c-0.066,0-0.132,0-0.193,0
						c0-0.029,0-0.065,0-0.1c-0.434,0-0.85,0-1.268,0c0,0.034,0,0.07,0,0.1c-0.078,0-0.146,0-0.217,0c0,0.037,0,0.076,0,0.107
						c-0.167,0-0.352,0-0.519,0c0-0.031,0-0.071,0-0.107c-0.043,0-0.082,0-0.113,0c0.031-0.1,0.07-0.196,0.113-0.312
						c0.03,0,0.061,0,0.093,0c0-0.381,0-0.775,0-1.157c0.043,0,0.074,0,0.108,0c0-0.111,0-0.215,0-0.31
						c0.069-0.041,0.151-0.08,0.217-0.113c0-0.138,0-0.283,0-0.422c0.039,0,0.069,0,0.101,0c0-0.071,0-0.131,0-0.207
						c0.071-0.037,0.14-0.072,0.217-0.104c0-0.076,0-0.146,0-0.212c0.035,0,0.07,0,0.093,0c0-0.084,0-0.139,0-0.21
						c0.047,0,0.082,0,0.108,0c0.039-0.104,0.07-0.212,0.113-0.325c0.065,0,0.148,0,0.209,0c0.146-0.607,0.687-1.009,0.937-1.57
						c0.439,0.05,0.512,0.171,0.86,0.313c0,0.036,0,0.069,0,0.109c0.116,0.03,0.609-0.148,0.943-0.109
						c0.104,0.036,0.202,0.069,0.322,0.109c0.097-0.139,0.201-0.286,0.311-0.423c0.492,0,0.976,0,1.479,0
						c1.102,0,2.035-0.153,2.948,0c-0.04,0.383-0.082,0.766-0.121,1.154c0.057,0.225,0.182,0.535,0.217,0.846
						c0.117,0.083,0.015-0.013,0.113,0.105c1.003-0.084,0.235-0.345,0.507-0.951c0.084-0.031,0.15-0.073,0.224-0.104
						c0-0.071,0-0.135,0-0.221c0.249-0.171,0.488-0.337,0.74-0.518c-0.104-0.69-0.275-0.219-0.632-0.533c-0.043,0-0.077,0-0.108,0
						c0.088-0.321,0.203-0.333,0.418-0.514c0-0.034,0-0.081,0-0.106c0.105-0.04,0.203-0.078,0.322-0.101
						c0.058-0.113,0.156-0.698,0.206-0.858c0.513,0.062,0.675,0.279,1.164,0.329C149.528,48.858,149.481,48.672,149.443,48.176z
						M44.537,71.245c-0.26-0.071-0.289-0.112-0.427-0.317c0.266,0.062,0.25,0.111,0.427,0.213
						C44.537,71.173,44.537,71.208,44.537,71.245z M50.227,21.523c-0.238,0-0.487,0-0.739,0c0-0.027,0-0.058,0-0.091
						c-0.034,0-0.071,0-0.1,0c0.144-0.297,0.423-0.401,0.624-0.633c0.295,0.074,0.25,0.021,0.321,0.31c0.041,0,0.077,0,0.113,0
						C50.374,21.365,50.333,21.343,50.227,21.523z M77.605,13.005c-0.589-0.024-0.516-0.266-0.839-0.521c0-0.079,0-0.146,0-0.21
						c0.417-0.092,0.438-0.092,0.839,0C77.684,12.665,77.69,12.608,77.605,13.005z M99.938,61.873c-0.239,0-0.5,0-0.733,0
						c0-0.042,0-0.072,0-0.106c-0.12-0.121-0.045,0-0.106-0.212c0.305-0.115,0.444-0.054,0.623-0.314
						c0.124,0.034,0.217,0.072,0.333,0.101C100.023,61.614,100.008,61.703,99.938,61.873z M106.051,67.663c-0.038,0-0.081,0-0.108,0
						c0-0.074,0-0.146,0-0.212c-0.031,0-0.066,0-0.101,0c-0.066-0.113-0.139-0.206-0.229-0.312c-0.016,0-0.058,0-0.093,0
						c0-0.036,0-0.078,0-0.114c0.035,0,0.077,0,0.093,0c0-0.026,0-0.062,0-0.104c0.264,0.055,0.264,0.095,0.438,0.218
						c0,0.028,0,0.073,0,0.104c0.172,0,0.35,0,0.519,0c0.167,0.073,0.381,0.501,0.416,0.733
						C106.339,67.99,106.339,68.001,106.051,67.663z M109.735,65.972c-0.28-0.084-0.242-0.021-0.328-0.314c0.114,0,0.226,0,0.328,0
						C109.735,65.768,109.735,65.871,109.735,65.972z M112.893,21.325c-0.066,0-0.143,0-0.212,0
						c-0.036,0.069-0.062,0.141-0.105,0.198c-0.103,0-0.208,0-0.313,0c-0.176,0.225-0.357,0.431-0.521,0.64c-0.246,0-0.499,0-0.74,0
						c0,0.042,0,0.074,0,0.107c-0.146,0.041-0.278,0.071-0.426,0.106c0,0.037,0,0.072,0,0.104c-0.352,0-0.69,0-1.054,0
						c-0.028-0.14-0.066-0.276-0.114-0.429c-0.026,0-0.057,0-0.093,0c0-0.586,0-1.189,0-1.776c0.443,0.037,0.571,0.229,0.629,0.632
						c0.108,0.026,0.217,0.064,0.313,0.101c0-0.036,0-0.074,0-0.101c0.066,0,0.152,0,0.219,0c0-0.045,0-0.075,0-0.108
						c0.283,0,0.562,0,0.841,0c0-0.029,0-0.082,0-0.109c0.214,0,0.425,0,0.637,0c0.025-0.066,0.068-0.144,0.096-0.205
						c0.41-0.166,0.623,0.167,0.948,0.205C112.997,20.953,113.036,21.207,112.893,21.325z M113.739,21.523
						c-0.077,0.3-0.024,0.247-0.314,0.324c-0.119,0.117,0,0.054-0.209,0.105c-0.077-0.162-0.077-0.168-0.104-0.431
						c0.163,0,0.343,0,0.515,0c0-0.027,0-0.058,0-0.091c0.077,0,0.143,0,0.213,0C113.753,21.544,113.862,21.448,113.739,21.523z
						M117.421,24.9c-0.035,0-0.066,0-0.092,0c-0.055-0.104-0.082-0.213-0.121-0.314c0.066,0,0.147,0,0.213,0
						C117.421,24.687,117.421,24.795,117.421,24.9z M132.269,35.222c-0.208,0-0.412,0-0.632,0c-0.034-0.061-0.07-0.134-0.112-0.218
						c-0.06,0-0.131,0-0.193,0c0-0.021,0-0.064,0-0.1c-0.312-0.099-0.59,0.117-0.742,0.212c0,0.045,0,0.065,0,0.105
						c-0.356,0-0.713,0-1.059,0c0,0.042,0,0.07,0,0.112c-0.321,0-0.626,0-0.95,0c0,0.041,0,0.074,0,0.105c-0.068,0-0.131,0-0.208,0
						c0,0.035,0,0.067,0,0.101c-0.784,0.266-1.469-0.751-2.008,0.104c-0.546-0.035-0.515-0.227-0.838-0.422
						c0.074-0.458,0.241-0.34,0.424-0.632c0.402,0.011,1.162,0.095,1.371-0.097c0.505-0.138,0.489-0.51,0.625-0.954
						c0.279,0.014,0.366,0.039,0.535,0.104c0,0.065,0,0.138,0,0.219c0.684,0,1.585-0.064,2.109,0.102c0.171,0,0.35,0,0.523,0
						c0.036,0.07,0.07,0.138,0.102,0.206c0.146,0,0.286,0,0.422,0c0.314,0.212,0.632,0.419,0.954,0.628
						C132.482,34.939,132.375,35.088,132.269,35.222z M138.383,41.755c0,0.034,0,0.068,0,0.104c-0.074,0-0.14,0-0.222,0
						c0,0.035,0,0.071,0,0.104c-0.093,0.073-0.214,0.14-0.31,0.211c0,0.034,0,0.07,0,0.11c-0.101-0.041-0.205-0.077-0.318-0.11
						c-0.062-0.211,0.016-0.084-0.108-0.211c0-0.37,0.015-0.6,0.108-0.844c0.605,0,0.709,0.031,1.059,0.21
						C138.564,41.668,138.564,41.594,138.383,41.755z M140.283,42.285c-0.039,0-0.074,0-0.117,0c0,0.029,0,0.066,0,0.089
						c-0.132-0.022-0.283-0.06-0.415-0.089c-0.07-0.321-0.146-0.633-0.222-0.956c0.043,0,0.075,0,0.121,0c0-0.07,0-0.139,0-0.21
						c0.412,0.124,0.113,0.041,0.307,0.315c0.077,0.04,0.151,0.071,0.209,0.105c0,0.14,0,0.282,0,0.423c0.043,0,0.078,0,0.117,0
						C140.283,42.071,140.283,42.175,140.283,42.285z M143.115,42.375c-0.211,0.077-0.088-0.008-0.211,0.116
						c-0.299,0.014-0.562,0.017-0.727-0.116c-0.041-0.06-0.08-0.13-0.116-0.2c-0.325-0.19-0.283,0.186-0.406-0.315
						c-0.046,0-0.077,0-0.12,0c-0.078-0.207,0.147-0.309,0.217-0.424c0.364,0.052,0.528,0.128,0.737,0.319
						c0.039,0.068,0.066,0.14,0.116,0.209c0.096,0,0.205,0,0.299,0c0,0.038,0,0.073,0,0.107c0.109,0.031,0.211,0.075,0.313,0.104
						C143.182,42.245,143.159,42.314,143.115,42.375z M143.543,42.375c0-0.06,0-0.13,0-0.2c0.112,0.115,0.039,0,0.105,0.2
						C143.608,42.375,143.573,42.375,143.543,42.375z M144.492,49.013c-0.108,0-0.217,0-0.321,0c0-0.035,0-0.059,0-0.099
						c-0.125-0.116-0.044,0-0.101-0.212c0.183-0.21,0.351-0.423,0.522-0.627c0.143,0,0.287,0,0.427,0
						C144.838,48.392,144.663,48.703,144.492,49.013z"/>
				</g>
			</g>
			<g>
				<path fill="#186F50" d="M176.033,96.734l3.881-8.896l3.876,8.896H176.033z M175.928,105.029v-0.594
					c-0.794-0.056-1.332-0.146-1.619-0.282c-0.466-0.206-0.695-0.582-0.695-1.119c0-0.272,0.082-0.64,0.252-1.109
					c0.171-0.466,0.703-1.756,1.579-3.877h8.92l1.349,3.112c0.21,0.439,0.365,0.855,0.474,1.25c0.107,0.407,0.162,0.683,0.162,0.844
					c0,0.47-0.14,0.762-0.426,0.887c-0.295,0.115-0.92,0.215-1.901,0.296v0.594h8.66v-0.594c-0.797-0.099-1.371-0.296-1.712-0.592
					c-0.333-0.285-0.791-1.044-1.35-2.257l-8.396-18.311h-0.73l-7.05,15.873c-1.055,2.381-1.799,3.828-2.229,4.355
					c-0.434,0.534-1.085,0.845-1.947,0.93v0.594H175.928z"/>
				<path fill="#186F50" d="M193.755,104.602c0.86-0.081,1.434-0.218,1.721-0.409c0.446-0.3,0.663-0.903,0.663-1.799v-8.222
					c0-0.775-0.105-1.282-0.323-1.524c-0.208-0.229-0.564-0.351-1.054-0.351c-0.231,0-0.402,0.003-0.519,0.023
					c-0.116,0.02-0.248,0.053-0.403,0.106v-0.551l1.203-0.385c0.434-0.135,1.14-0.385,2.132-0.734
					c0.991-0.362,1.519-0.545,1.574-0.545c0.054,0,0.093,0.027,0.1,0.082c0.01,0.041,0.017,0.15,0.017,0.305v2.134
					c1.084-0.953,2.016-1.611,2.803-1.976c0.791-0.361,1.601-0.545,2.431-0.545c1.124,0,2.023,0.366,2.69,1.105
					c0.353,0.411,0.642,0.957,0.868,1.649c0.815-0.801,1.532-1.396,2.14-1.768c1.044-0.651,2.118-0.988,3.21-0.988
					c1.78,0,2.966,0.697,3.561,2.07c0.343,0.774,0.506,2.002,0.506,3.674v6.558c0,0.763,0.179,1.283,0.527,1.549
					c0.346,0.272,0.966,0.446,1.866,0.538v0.427h-7.45V104.6c0.952-0.081,1.581-0.271,1.891-0.557
					c0.301-0.285,0.444-0.869,0.444-1.742V95.48c0-1.021-0.112-1.775-0.344-2.268c-0.411-0.857-1.209-1.295-2.396-1.295
					c-0.718,0-1.425,0.229-2.131,0.684c-0.412,0.252-0.907,0.678-1.511,1.266v8.101c0,0.844,0.162,1.49,0.48,1.927
					c0.31,0.443,0.977,0.681,1.992,0.709v0.427h-7.576v-0.427c1.042-0.13,1.712-0.364,1.993-0.719c0.29-0.34,0.436-1.225,0.436-2.645
					v-4.419c0-1.632-0.109-2.745-0.326-3.354c-0.366-1.022-1.133-1.548-2.3-1.548c-0.667,0-1.323,0.186-1.973,0.532
					c-0.645,0.354-1.207,0.82-1.699,1.377v8.688c0,0.791,0.14,1.329,0.436,1.629c0.293,0.291,0.926,0.446,1.902,0.458v0.427h-7.577
					v-0.428H193.755z"/>
				<path fill="#186F50" d="M226.427,91.324c1.264,0,2.16,0.465,2.701,1.394c0.292,0.52,0.508,1.303,0.625,2.352h-6.954
					c0.154-0.861,0.402-1.572,0.76-2.144C224.209,91.863,225.17,91.324,226.427,91.324z M227.357,90.214
					c-2.105,0-3.815,0.773-5.133,2.306c-1.312,1.541-1.962,3.37-1.962,5.494c0,1.941,0.566,3.667,1.703,5.156
					c1.126,1.495,2.732,2.245,4.807,2.245c1.801,0,3.322-0.568,4.562-1.715c1.24-1.141,2.094-2.378,2.551-3.728l-0.582-0.202
					c-0.674,1.069-1.402,1.893-2.203,2.472c-0.791,0.579-1.759,0.87-2.919,0.87c-1.437,0-2.67-0.558-3.72-1.676
					c-1.045-1.119-1.625-2.9-1.732-5.344h10.465c0-1.871-0.585-3.32-1.75-4.345C230.271,90.728,228.917,90.214,227.357,90.214z"/>
				<path fill="#186F50" d="M234.804,104.521c1.013-0.092,1.686-0.267,2.005-0.521c0.339-0.255,0.503-0.81,0.503-1.652v-7.104
					c0-1.047-0.097-1.785-0.303-2.238c-0.2-0.438-0.573-0.664-1.115-0.664c-0.11,0-0.265,0.015-0.436,0.033
					c-0.182,0.023-0.373,0.056-0.573,0.104v-0.515c0.636-0.207,1.29-0.422,1.962-0.641c0.667-0.219,1.123-0.377,1.387-0.475
					c0.559-0.201,1.133-0.427,1.718-0.673c0.081,0,0.128,0.029,0.144,0.086c0.015,0.059,0.03,0.171,0.03,0.35v2.556
					c0.695-0.922,1.366-1.651,2.018-2.17c0.642-0.52,1.322-0.783,2.014-0.783c0.551,0,1.008,0.158,1.357,0.48
					c0.35,0.324,0.521,0.721,0.521,1.196c0,0.431-0.129,0.796-0.396,1.083c-0.271,0.291-0.604,0.438-1.008,0.438
					c-0.422,0-0.829-0.193-1.256-0.55c-0.411-0.368-0.736-0.542-0.983-0.542c-0.374,0-0.845,0.291-1.396,0.877
					c-0.551,0.595-0.83,1.213-0.83,1.852v7.088c0,0.9,0.22,1.527,0.655,1.886c0.442,0.349,1.179,0.52,2.198,0.498v0.508h-8.215
					L234.804,104.521L234.804,104.521z"/>
				<path fill="#186F50" d="M249.144,83.519c0.334-0.326,0.737-0.496,1.229-0.496c0.477,0,0.888,0.161,1.214,0.485
					c0.341,0.323,0.512,0.714,0.512,1.169c0,0.44-0.171,0.819-0.512,1.143c-0.326,0.316-0.737,0.487-1.214,0.487
					c-0.492,0-0.895-0.171-1.229-0.487c-0.329-0.322-0.496-0.701-0.496-1.143C248.647,84.236,248.815,83.841,249.144,83.519z
					M246.609,104.602c1.17-0.111,1.915-0.297,2.217-0.579c0.309-0.277,0.465-1.036,0.465-2.273v-7.49
					c0-0.693-0.055-1.184-0.148-1.454c-0.17-0.438-0.52-0.658-1.045-0.658c-0.125,0-0.24,0.016-0.366,0.037
					c-0.107,0.018-0.448,0.102-0.996,0.246v-0.427l0.702-0.229c1.912-0.599,3.242-1.064,3.992-1.371
					c0.311-0.123,0.506-0.189,0.59-0.189c0.023,0.082,0.03,0.158,0.03,0.232v11.308c0,1.208,0.157,1.955,0.458,2.261
					c0.303,0.311,0.986,0.507,2.064,0.588v0.427h-7.962L246.609,104.602L246.609,104.602z"/>
				<path fill="#186F50" d="M267.341,91.184c1,0.679,1.5,1.417,1.5,2.22c0,0.354-0.126,0.672-0.382,0.971
					c-0.256,0.297-0.647,0.437-1.178,0.437c-0.388,0-0.726-0.123-1.021-0.382c-0.292-0.247-0.502-0.612-0.632-1.083l-0.202-0.761
					c-0.141-0.563-0.389-0.953-0.744-1.188c-0.362-0.22-0.837-0.332-1.442-0.332c-1.264,0-2.327,0.531-3.187,1.571
					c-0.869,1.053-1.303,2.443-1.303,4.177c0,1.59,0.484,3.014,1.435,4.274c0.953,1.263,2.244,1.899,3.869,1.899
					c1.146,0,2.171-0.357,3.072-1.077c0.502-0.41,1.076-1.062,1.72-1.956l0.462,0.271c-0.632,1.252-1.295,2.251-1.989,2.983
					c-1.335,1.412-2.885,2.123-4.641,2.123c-1.725,0-3.253-0.654-4.57-1.948c-1.333-1.29-1.994-3.05-1.994-5.263
					c0-2.166,0.731-4.031,2.18-5.602c1.443-1.564,3.264-2.343,5.474-2.343C265.151,90.177,266.345,90.522,267.341,91.184z"/>
				<path fill="#186F50" d="M280.099,101.344c0,0.594-0.327,1.088-0.996,1.478c-0.667,0.395-1.365,0.588-2.093,0.588
					c-0.531,0-1.016-0.146-1.446-0.445c-0.658-0.448-0.988-1.157-0.988-2.116c0-1.179,0.788-2.238,2.38-3.179
					c0.831-0.485,1.88-0.922,3.144-1.328L280.099,101.344L280.099,101.344z M271.637,101.938c0,0.987,0.348,1.799,1.036,2.43
					c0.697,0.64,1.516,0.964,2.468,0.964c0.904,0,1.854-0.297,2.854-0.865c0.597-0.338,1.319-0.858,2.151-1.549
					c0.034,0.631,0.222,1.177,0.553,1.638c0.347,0.459,0.886,0.686,1.639,0.686c0.648,0,1.279-0.192,1.896-0.581
					c0.414-0.255,0.793-0.581,1.15-0.978v-0.845c-0.416,0.287-0.689,0.476-0.856,0.546c-0.168,0.078-0.383,0.116-0.625,0.116
					c-0.465,0-0.76-0.21-0.895-0.645c-0.089-0.223-0.137-0.641-0.137-1.254v-6.336c0-1.39-0.203-2.452-0.618-3.188
					c-0.752-1.327-2.203-1.989-4.35-1.989c-1.846,0-3.241,0.403-4.196,1.212c-0.96,0.808-1.433,1.584-1.433,2.321
					c0,0.378,0.137,0.718,0.391,1.026c0.271,0.312,0.652,0.469,1.152,0.469c0.318,0,0.594-0.066,0.826-0.199
					c0.402-0.237,0.611-0.641,0.611-1.229c0-0.083-0.026-0.274-0.092-0.575c-0.059-0.3-0.078-0.512-0.078-0.646
					c0-0.493,0.244-0.885,0.756-1.147c0.504-0.285,1.047-0.42,1.605-0.42c1.179,0,1.957,0.356,2.328,1.055
					c0.22,0.42,0.327,1.176,0.327,2.236v1.351c-3.027,1.079-5.055,1.937-6.062,2.565C272.436,99.132,271.637,100.421,271.637,101.938
					z"/>
				<path fill="#186F50" d="M286.086,104.602c0.779-0.099,1.313-0.286,1.625-0.562c0.309-0.276,0.466-0.888,0.466-1.865v-7.957
					c0-0.678-0.072-1.155-0.202-1.428c-0.21-0.395-0.631-0.596-1.28-0.596c-0.094,0-0.201,0.004-0.304,0.02
					c-0.099,0.006-0.232,0.019-0.382,0.045v-0.556c0.445-0.13,1.508-0.454,3.179-0.979l1.553-0.51c0.067,0,0.117,0.027,0.139,0.082
					c0.01,0.041,0.019,0.116,0.019,0.227v2.296c1.021-0.914,1.812-1.535,2.388-1.863c0.861-0.52,1.746-0.777,2.676-0.777
					c0.748,0,1.431,0.205,2.058,0.613c1.185,0.806,1.78,2.234,1.78,4.271v7.37c0,0.759,0.154,1.312,0.477,1.648
					c0.324,0.34,0.857,0.51,1.605,0.521v0.427h-7.114v-0.427c0.808-0.111,1.381-0.319,1.69-0.643
					c0.324-0.314,0.488-1.016,0.488-2.082v-6.744c0-0.905-0.18-1.649-0.527-2.243c-0.346-0.593-0.992-0.888-1.934-0.888
					c-0.65,0-1.301,0.215-1.967,0.631c-0.376,0.244-0.859,0.638-1.45,1.191v8.814c0,0.761,0.179,1.278,0.534,1.536
					c0.35,0.259,0.916,0.408,1.684,0.426v0.427h-7.198v-0.426H286.086z"/>
				<path fill="#186F50" d="M311.271,104.435c1.405-0.13,2.293-0.436,2.681-0.904c0.404-0.47,0.602-1.553,0.602-3.258V87.155
					c0-1.165-0.196-1.931-0.574-2.284c-0.387-0.354-1.262-0.56-2.62-0.613v-0.59h6.669l7.773,16.088l7.584-16.088h6.744v0.59
					c-1.254,0.082-2.069,0.297-2.435,0.646c-0.362,0.354-0.544,1.104-0.544,2.253v14.367c0,1.179,0.182,1.936,0.544,2.267
					c0.364,0.328,1.181,0.549,2.435,0.646v0.594h-9.482v-0.594c1.367-0.099,2.219-0.336,2.547-0.698
					c0.344-0.362,0.518-1.228,0.518-2.598V86.643l-8.666,18.386h-0.463l-8.537-17.639v12.883c0,1.771,0.27,2.918,0.814,3.449
					c0.354,0.354,1.141,0.59,2.376,0.713v0.594h-7.964L311.271,104.435L311.271,104.435z"/>
				<path fill="#186F50" d="M344.269,83.519c0.33-0.326,0.737-0.496,1.226-0.496c0.477,0,0.881,0.161,1.215,0.485
					c0.344,0.323,0.516,0.714,0.516,1.169c0,0.44-0.172,0.819-0.516,1.143c-0.334,0.316-0.738,0.487-1.215,0.487
					c-0.486,0-0.896-0.171-1.226-0.487c-0.334-0.322-0.498-0.701-0.498-1.143S343.935,83.841,344.269,83.519z M341.724,104.602
					c1.174-0.111,1.909-0.297,2.226-0.579c0.307-0.277,0.459-1.036,0.459-2.273v-7.49c0-0.693-0.054-1.184-0.146-1.454
					c-0.167-0.438-0.513-0.658-1.044-0.658c-0.131,0-0.244,0.016-0.36,0.037c-0.108,0.018-0.45,0.102-1.005,0.246v-0.427l0.703-0.229
					c1.912-0.599,3.247-1.064,3.999-1.371c0.305-0.123,0.497-0.189,0.59-0.189c0.017,0.082,0.026,0.158,0.026,0.232v11.308
					c0,1.208,0.154,1.955,0.453,2.261c0.305,0.311,0.994,0.507,2.062,0.588v0.427h-7.964V104.602z"/>
				<path fill="#186F50" d="M352.217,100.048h0.551c0.256,1.2,0.598,2.118,1.021,2.752c0.778,1.177,1.906,1.766,3.403,1.766
					c0.822,0,1.479-0.223,1.954-0.659c0.486-0.424,0.725-0.997,0.725-1.687c0-0.437-0.14-0.861-0.416-1.269
					c-0.277-0.414-0.76-0.804-1.463-1.202l-1.859-1.002c-1.364-0.697-2.36-1.393-3.002-2.09c-0.646-0.703-0.955-1.53-0.955-2.488
					c0-1.182,0.438-2.151,1.32-2.903s1.99-1.132,3.326-1.132c0.58,0,1.232,0.107,1.926,0.312c0.701,0.217,1.098,0.324,1.182,0.324
					c0.201,0,0.352-0.027,0.434-0.076c0.086-0.047,0.163-0.142,0.235-0.262h0.379l0.131,4.422h-0.471
					c-0.214-1.021-0.521-1.812-0.896-2.388c-0.697-1.047-1.688-1.567-2.992-1.567c-0.771,0-1.387,0.223-1.828,0.674
					c-0.442,0.447-0.67,0.977-0.67,1.584c0,0.967,0.767,1.822,2.289,2.568l2.187,1.118c2.356,1.223,3.53,2.642,3.53,4.247
					c0,1.243-0.489,2.265-1.467,3.053c-0.967,0.787-2.24,1.188-3.807,1.188c-0.66,0-1.412-0.113-2.242-0.324
					c-0.838-0.212-1.332-0.316-1.479-0.316c-0.143,0-0.254,0.049-0.357,0.142c-0.096,0.091-0.17,0.203-0.232,0.328h-0.457V100.048z"
					/>
				<path fill="#186F50" d="M365.411,100.048h0.561c0.248,1.2,0.595,2.118,1.021,2.752c0.766,1.177,1.902,1.766,3.389,1.766
					c0.832,0,1.484-0.223,1.97-0.659c0.483-0.424,0.728-0.997,0.728-1.687c0-0.437-0.15-0.861-0.416-1.269
					c-0.287-0.414-0.772-0.804-1.47-1.202l-1.856-1.002c-1.361-0.697-2.371-1.393-3.01-2.09c-0.643-0.703-0.955-1.53-0.955-2.488
					c0-1.182,0.437-2.151,1.319-2.903c0.888-0.752,1.998-1.132,3.328-1.132c0.586,0,1.229,0.107,1.931,0.312
					c0.702,0.217,1.096,0.324,1.186,0.324c0.197,0,0.341-0.027,0.43-0.076c0.086-0.047,0.164-0.142,0.232-0.262h0.386l0.12,4.422
					h-0.463c-0.223-1.021-0.527-1.812-0.905-2.388c-0.683-1.047-1.685-1.567-2.981-1.567c-0.779,0-1.387,0.223-1.836,0.674
					c-0.441,0.447-0.656,0.977-0.656,1.584c0,0.967,0.752,1.822,2.283,2.568l2.184,1.118c2.354,1.223,3.533,2.642,3.533,4.247
					c0,1.243-0.491,2.265-1.465,3.053c-0.971,0.787-2.25,1.188-3.807,1.188c-0.669,0-1.412-0.113-2.254-0.324
					c-0.834-0.212-1.33-0.316-1.484-0.316c-0.131,0-0.24,0.049-0.34,0.142c-0.104,0.091-0.181,0.203-0.23,0.328h-0.469v-5.112
					H365.411z"/>
				<path fill="#186F50" d="M380.084,83.519c0.324-0.326,0.744-0.496,1.23-0.496c0.473,0,0.866,0.161,1.212,0.485
					c0.335,0.323,0.509,0.714,0.509,1.169c0,0.44-0.174,0.819-0.509,1.143c-0.346,0.316-0.739,0.487-1.212,0.487
					c-0.486,0-0.906-0.171-1.23-0.487c-0.328-0.322-0.5-0.701-0.5-1.143S379.756,83.841,380.084,83.519z M377.545,104.602
					c1.172-0.111,1.908-0.297,2.224-0.579c0.304-0.277,0.453-1.036,0.453-2.273v-7.49c0-0.693-0.048-1.184-0.147-1.454
					c-0.162-0.438-0.521-0.658-1.043-0.658c-0.125,0-0.238,0.016-0.359,0.037c-0.114,0.018-0.446,0.102-0.994,0.246v-0.427
					l0.695-0.229c1.912-0.599,3.244-1.064,3.992-1.371c0.311-0.123,0.508-0.189,0.598-0.189c0.014,0.082,0.029,0.158,0.029,0.232
					v11.308c0,1.208,0.153,1.955,0.454,2.261c0.3,0.311,0.981,0.507,2.05,0.588v0.427h-7.949v-0.428H377.545z"/>
				<path fill="#186F50" d="M394.146,91.109c1.623,0,2.854,0.81,3.708,2.436c0.852,1.621,1.279,3.347,1.279,5.163
					c0,1.771-0.328,3.202-0.998,4.291c-0.674,1.102-1.633,1.643-2.875,1.643c-1.588,0-2.827-0.813-3.723-2.447
					c-0.893-1.629-1.334-3.389-1.334-5.263c0-2.372,0.555-4.028,1.658-4.984C392.51,91.396,393.272,91.109,394.146,91.109z
					M387.137,97.701c0,2.253,0.729,4.117,2.199,5.605c1.465,1.488,3.265,2.229,5.393,2.229c2.199,0,3.994-0.765,5.391-2.318
					c1.391-1.549,2.086-3.379,2.086-5.483c0-2.264-0.715-4.082-2.16-5.455c-1.432-1.371-3.232-2.062-5.426-2.062
					c-2.195,0-3.988,0.732-5.391,2.179C387.834,93.835,387.137,95.615,387.137,97.701z"/>
				<path fill="#186F50" d="M403.875,104.602c0.779-0.099,1.32-0.286,1.621-0.562c0.307-0.276,0.467-0.888,0.467-1.865v-7.957
					c0-0.678-0.066-1.155-0.191-1.428c-0.211-0.395-0.639-0.596-1.281-0.596c-0.102,0-0.201,0.004-0.312,0.02
					c-0.1,0.006-0.23,0.019-0.381,0.045v-0.556c0.449-0.13,1.51-0.454,3.178-0.979l1.545-0.51c0.08,0,0.127,0.027,0.143,0.082
					c0.014,0.041,0.029,0.116,0.029,0.227v2.296c1.018-0.914,1.811-1.535,2.383-1.863c0.852-0.52,1.75-0.777,2.682-0.777
					c0.736,0,1.426,0.205,2.043,0.613c1.191,0.806,1.785,2.234,1.785,4.271v7.37c0,0.759,0.164,1.312,0.482,1.648
					c0.316,0.34,0.854,0.51,1.6,0.521v0.427h-7.1v-0.427c0.803-0.111,1.363-0.319,1.686-0.643c0.326-0.314,0.482-1.016,0.482-2.082
					v-6.744c0-0.905-0.174-1.649-0.529-2.243c-0.342-0.593-0.988-0.888-1.93-0.888c-0.646,0-1.301,0.215-1.98,0.631
					c-0.371,0.244-0.844,0.638-1.438,1.191v8.814c0,0.761,0.182,1.278,0.531,1.536c0.359,0.259,0.916,0.408,1.686,0.426v0.427h-7.199
					V104.602L403.875,104.602z"/>
				<path fill="#186F50" d="M429.223,104.435c1.336-0.13,2.156-0.357,2.488-0.689c0.326-0.336,0.488-1.195,0.488-2.589V87.146
					c0-1.15-0.176-1.898-0.547-2.252c-0.367-0.342-1.172-0.556-2.432-0.638v-0.59h9.406v0.59c-1.232,0.082-2.045,0.296-2.418,0.638
					c-0.363,0.354-0.559,1.102-0.559,2.252v6.307h10.256v-6.307c0-1.15-0.176-1.898-0.539-2.252c-0.365-0.342-1.18-0.556-2.439-0.638
					v-0.59h9.396v0.59c-1.229,0.082-2.045,0.296-2.418,0.638c-0.361,0.354-0.551,1.102-0.551,2.252v14.399
					c0,1.166,0.188,1.915,0.551,2.246c0.373,0.324,1.189,0.545,2.418,0.644v0.594h-9.396v-0.594c1.346-0.123,2.164-0.348,2.5-0.686
					c0.324-0.341,0.479-1.2,0.479-2.594v-6.302h-10.256v6.69c0,1.166,0.193,1.922,0.559,2.258c0.373,0.328,1.186,0.547,2.418,0.632
					v0.594h-9.406v-0.593H429.223z"/>
				<path fill="#186F50" d="M461.03,91.109c1.619,0,2.857,0.81,3.705,2.436c0.859,1.621,1.287,3.347,1.287,5.163
					c0,1.771-0.342,3.202-1.008,4.291c-0.666,1.102-1.631,1.643-2.871,1.643c-1.588,0-2.82-0.813-3.729-2.447
					c-0.883-1.629-1.332-3.389-1.332-5.263c0-2.372,0.551-4.028,1.66-4.984C459.395,91.396,460.155,91.109,461.03,91.109z
					M454.012,97.701c0,2.253,0.736,4.117,2.199,5.605c1.477,1.488,3.264,2.229,5.393,2.229c2.201,0,4.002-0.765,5.395-2.318
					c1.389-1.549,2.084-3.379,2.084-5.483c0-2.264-0.719-4.082-2.145-5.455c-1.436-1.371-3.25-2.062-5.445-2.062
					c-2.188,0-3.982,0.732-5.383,2.179C454.709,93.835,454.012,95.615,454.012,97.701z"/>
				<path fill="#186F50" d="M471.87,100.048h0.555c0.252,1.2,0.59,2.118,1.033,2.752c0.762,1.177,1.9,1.766,3.389,1.766
					c0.828,0,1.48-0.223,1.961-0.659c0.48-0.424,0.723-0.997,0.723-1.687c0-0.437-0.141-0.861-0.418-1.269
					c-0.271-0.414-0.762-0.804-1.459-1.202l-1.861-1.002c-1.363-0.697-2.363-1.393-3.002-2.09c-0.65-0.703-0.957-1.53-0.957-2.488
					c0-1.182,0.439-2.151,1.316-2.903c0.883-0.752,1.99-1.132,3.334-1.132c0.58,0,1.225,0.107,1.922,0.312
					c0.699,0.217,1.096,0.324,1.195,0.324c0.186,0,0.33-0.027,0.426-0.076c0.086-0.047,0.164-0.142,0.23-0.262h0.383l0.123,4.422
					h-0.467c-0.225-1.021-0.52-1.812-0.898-2.388c-0.697-1.047-1.689-1.567-2.979-1.567c-0.791,0-1.395,0.223-1.844,0.674
					c-0.443,0.447-0.66,0.977-0.66,1.584c0,0.967,0.756,1.822,2.279,2.568l2.188,1.118c2.357,1.223,3.527,2.642,3.527,4.247
					c0,1.243-0.479,2.265-1.459,3.053c-0.969,0.787-2.25,1.188-3.814,1.188c-0.656,0-1.402-0.113-2.238-0.324
					c-0.838-0.212-1.324-0.316-1.48-0.316c-0.133,0-0.25,0.049-0.35,0.142c-0.102,0.091-0.174,0.203-0.232,0.328h-0.463v-5.112
					H471.87z"/>
				<path fill="#186F50" d="M488.723,102.093v-7.877c0-0.458,0.334-0.933,1.01-1.411c0.672-0.476,1.42-0.712,2.238-0.712
					c1.156,0,2.182,0.478,3.059,1.428c0.885,0.959,1.311,2.394,1.311,4.31c0,2.008-0.42,3.576-1.258,4.707
					c-0.854,1.119-1.869,1.688-3.061,1.688c-0.775,0-1.445-0.179-2.008-0.533C489.438,103.339,489.01,102.81,488.723,102.093z
					M483.489,112.094h8.172v-0.549c-1.225-0.092-2.021-0.254-2.387-0.489c-0.365-0.236-0.551-0.884-0.551-1.945v-5.24
					c0.598,0.596,1.248,1,1.953,1.218c0.451,0.161,0.994,0.243,1.613,0.243c1.994,0,3.654-0.865,4.969-2.572
					c1.318-1.712,1.979-3.619,1.979-5.717c0-2.144-0.549-3.829-1.643-5.057c-1.104-1.235-2.41-1.853-3.93-1.853
					c-1.049,0-2.064,0.3-3.066,0.9c-0.551,0.332-1.191,0.85-1.914,1.551v-2.139c0-0.051-0.008-0.109-0.053-0.15
					c-0.018-0.055-0.062-0.082-0.109-0.082c-2.17,0.722-3.279,1.086-3.336,1.105l-1.57,0.479v0.503
					c0.199-0.031,0.355-0.056,0.457-0.068c0.105-0.01,0.217-0.013,0.34-0.013c0.568,0,0.945,0.112,1.156,0.339
					c0.201,0.227,0.301,0.737,0.301,1.534v15.148c0,0.769-0.137,1.332-0.41,1.699c-0.277,0.356-0.936,0.572-1.971,0.643V112.094z"/>
				<path fill="#186F50" d="M503.5,83.519c0.326-0.326,0.74-0.496,1.23-0.496c0.471,0,0.881,0.161,1.215,0.485
					c0.332,0.323,0.504,0.714,0.504,1.169c0,0.44-0.172,0.819-0.504,1.143c-0.334,0.316-0.744,0.487-1.215,0.487
					c-0.488,0-0.902-0.171-1.23-0.487c-0.332-0.322-0.502-0.701-0.502-1.143S503.168,83.841,503.5,83.519z M500.948,104.602
					c1.182-0.111,1.924-0.297,2.229-0.579c0.312-0.277,0.469-1.036,0.469-2.273v-7.49c0-0.693-0.061-1.184-0.15-1.454
					c-0.168-0.438-0.52-0.658-1.047-0.658c-0.123,0-0.246,0.016-0.355,0.037c-0.117,0.018-0.449,0.102-1.01,0.246v-0.427l0.709-0.229
					c1.912-0.599,3.248-1.064,3.99-1.371c0.303-0.123,0.496-0.189,0.59-0.189c0.021,0.082,0.031,0.158,0.031,0.232v11.308
					c0,1.208,0.148,1.955,0.445,2.261c0.314,0.311,1.006,0.507,2.074,0.588v0.427h-7.975V104.602z"/>
				<path fill="#186F50" d="M518.303,90.522v1.101h-3.361l-0.041,9.054c0,0.802,0.07,1.411,0.217,1.813
					c0.271,0.727,0.785,1.093,1.564,1.093c0.389,0,0.738-0.088,1.039-0.271c0.279-0.181,0.619-0.457,0.994-0.837l0.434,0.347
					l-0.365,0.479c-0.58,0.74-1.176,1.255-1.812,1.564c-0.65,0.306-1.266,0.467-1.861,0.467c-1.303,0-2.178-0.559-2.648-1.666
					c-0.252-0.6-0.383-1.43-0.383-2.498v-9.545h-1.791c-0.055-0.035-0.094-0.063-0.123-0.096c-0.018-0.033-0.031-0.074-0.031-0.131
					c0-0.097,0.016-0.182,0.068-0.229c0.045-0.059,0.209-0.188,0.482-0.396c0.742-0.595,1.293-1.086,1.627-1.457
					c0.336-0.376,1.125-1.367,2.355-2.967c0.146,0,0.234,0.008,0.275,0.028c0.02,0.024,0.033,0.109,0.033,0.254v3.893H518.303z"/>
				<path fill="#186F50" d="M528.827,101.344c0,0.594-0.338,1.088-1.002,1.478c-0.666,0.395-1.365,0.588-2.094,0.588
					c-0.535,0-1.016-0.146-1.449-0.445c-0.662-0.448-0.988-1.157-0.988-2.116c0-1.179,0.793-2.238,2.383-3.179
					c0.828-0.485,1.875-0.922,3.15-1.328V101.344L528.827,101.344z M520.35,101.938c0,0.987,0.352,1.799,1.049,2.43
					c0.695,0.64,1.51,0.964,2.465,0.964c0.906,0,1.852-0.297,2.857-0.865c0.594-0.338,1.312-0.858,2.15-1.549
					c0.033,0.631,0.209,1.177,0.555,1.638c0.33,0.459,0.881,0.686,1.641,0.686c0.645,0,1.27-0.192,1.891-0.581
					c0.414-0.255,0.783-0.581,1.146-0.978v-0.845c-0.408,0.287-0.695,0.476-0.859,0.546c-0.16,0.078-0.371,0.116-0.627,0.116
					c-0.457,0-0.744-0.21-0.893-0.645c-0.084-0.223-0.131-0.641-0.131-1.254v-6.336c0-1.39-0.209-2.452-0.611-3.188
					c-0.771-1.327-2.209-1.989-4.359-1.989c-1.844,0-3.25,0.403-4.193,1.212c-0.955,0.808-1.434,1.584-1.434,2.321
					c0,0.378,0.131,0.718,0.395,1.026c0.271,0.312,0.643,0.469,1.139,0.469c0.326,0,0.6-0.066,0.838-0.199
					c0.4-0.237,0.605-0.641,0.605-1.229c0-0.083-0.031-0.274-0.088-0.575c-0.055-0.3-0.076-0.512-0.076-0.646
					c0-0.493,0.246-0.885,0.754-1.147c0.508-0.285,1.037-0.42,1.604-0.42c1.176,0,1.953,0.356,2.322,1.055
					c0.227,0.42,0.338,1.176,0.338,2.236v1.351c-3.023,1.079-5.059,1.937-6.074,2.565C521.149,99.132,520.35,100.421,520.35,101.938z
					"/>
				<path fill="#186F50" d="M534.858,104.602c1.021-0.099,1.721-0.297,2.084-0.596c0.373-0.298,0.549-0.875,0.549-1.747V86.81
					c0-0.693-0.061-1.18-0.176-1.449c-0.225-0.441-0.682-0.665-1.352-0.665c-0.154,0-0.324,0.019-0.51,0.054
					c-0.182,0.027-0.414,0.086-0.684,0.15v-0.515c1.488-0.369,3.305-0.861,5.404-1.487c0.078,0,0.131,0.031,0.146,0.088
					c0.008,0.062,0.023,0.198,0.023,0.408v18.92c0,0.917,0.162,1.51,0.496,1.773c0.334,0.267,1.016,0.434,2.062,0.515v0.427h-8.049
					v-0.427H534.858z"/>
			</g>
			<g>
				<polygon fill="#186F50" points="177.459,50.337 179.623,51.609 181.464,48.455 178.55,46.794 177.173,49.216 174.894,47.98 
					173.04,51.143 175.979,52.865 			"/>
				<polygon fill="#186F50" points="204.845,74.265 202.531,73.091 200.88,76.359 203.764,77.819 205.078,75.389 207.267,76.516 
					208.9,73.38 206.082,71.884 			"/>
				<polygon fill="#186F50" points="243.503,74.265 241.193,73.091 239.537,76.359 242.423,77.819 243.736,75.389 245.931,76.516 
					247.563,73.38 244.743,71.884 			"/>
				<path fill="#186F50" d="M245.845,59.435l-1.264,3.611c0.751,1.119,1.325,2.202,1.726,3.246h-6.878v-0.061
					c-0.833-1.442-1.5-2.498-2-3.145c-0.95-1.249-1.922-2.448-2.95-3.601c-0.725-0.812-1.091-1.255-1.091-1.316
					c0-0.319,2.004-1.127,6.041-2.445v-3.694c-3.313,1.273-5.06,1.938-5.226,1.996c-1.452,0.655-2.493,1.355-3.089,2.102
					c-0.671,0.863-1.004,2.04-1.004,3.541c0,0.561,0.222,1.101,0.659,1.627c0.078,0.103,0.676,0.688,1.764,1.75l0.566-0.537
					c1.137,0.926,1.841,1.519,2.114,1.77c0.368,0.376,0.968,1.061,1.791,2.047h-8.701v-0.032h-7.977h-1.008h-4.642h-0.995h-4.478
					c0-1.854-0.158-3.235-0.451-4.15c-0.228-0.767-0.747-1.668-1.572-2.707l-1.252,3.611c0.755,1.119,1.325,2.202,1.725,3.246h-6.692
					h-0.783h-4.854h-1h-4.646h-0.992H183.3c-0.832-0.112-1.433-0.503-1.765-1.214c-0.257-0.476-0.521-1.561-0.788-3.254l-1.439-8.947
					c-0.84,1.837-1.255,3.039-1.255,3.604c0,0.098,0.015,0.273,0.026,0.53c-0.011,0.227-0.011,0.4,0,0.529
					c-4.319,2.61-6.478,5.336-6.478,8.164c0,0.256,0.667,0.516,2.005,0.791c1.12,0.203,1.969,0.312,2.535,0.312
					c0.349,0,0.771-0.23,1.255-0.688c0.207-0.21,0.787-0.856,1.757-1.941c0.43,2.514,0.771,4.037,1.028,4.576
					c0.538,1.159,1.496,1.766,2.864,1.819v0.002h0.204h0.69h4.746h0.992h4.646h1h5.637v-0.035h7.087v0.035h5.633h0.995h4.642h1.008
					h7.183h0.794h11.126v-0.035h8.424v-4.25c0-1.854-0.151-3.235-0.438-4.15C247.178,61.376,246.65,60.473,245.845,59.435z
					M177.158,62.671c-0.188,0-0.524-0.051-1-0.162c-0.546-0.097-0.814-0.203-0.814-0.308c0-0.458,0.869-1.163,2.608-2.099
					c0.233-0.124,0.417-0.202,0.535-0.255l0.298,1.887C177.856,62.35,177.312,62.671,177.158,62.671z"/>
				<path fill="#186F50" d="M271.401,60.021c-1.335,0-2.285,0.552-2.851,1.646c-0.915,1.768-1.506,2.772-1.785,3.022
					c-1.083,1.012-2.866,1.546-5.358,1.625v-0.365c0-2.027-0.724-3.97-2.183-5.83l-0.909,4.258c1.245,1.72,1.866,2.912,1.866,3.591
					c0,0.87-0.931,2.149-2.784,3.819c-1.962,1.781-3.628,2.667-5.007,2.667c-0.833,0-2.202-0.526-4.104-1.594l-0.616,0.968
					c1.749,1.178,2.92,1.932,3.505,2.264c1.523,0.836,2.787,1.259,3.788,1.259c1.077,0,2.395-0.742,3.916-2.234
					c1.554-1.496,2.384-3.007,2.511-4.528c2.207,0,3.591-0.093,4.153-0.291c0.375-0.124,0.954-0.683,1.721-1.673
					c2.511,0.841,3.86,1.303,4.075,1.358c1.17,0.364,2.225,0.562,3.166,0.597V67.13c0-1.215-0.387-2.705-1.146-4.464
					C272.593,60.909,271.946,60.021,271.401,60.021z M270.194,66.051c-0.236,0-1.089-0.302-2.573-0.931
					c0.321-0.955,0.639-1.434,0.977-1.434c0.461,0,0.922,0.331,1.411,0.998c0.396,0.562,0.59,0.924,0.59,1.087
					C270.599,65.96,270.462,66.051,270.194,66.051z"/>
				<path fill="#186F50" d="M279.336,49.855c0.056-0.061,0.158-0.37,0.302-0.936c-0.558,0.146-1.121,0.209-1.687,0.209
					c-0.108,0-0.452-0.153-1.058-0.458c-0.664-0.343-0.989-0.597-0.989-0.765c0-0.345,0.407-0.521,1.233-0.521
					c0.179,0,0.593,0.184,1.278,0.542c0.269-0.624,0.405-1.071,0.405-1.368c0-0.496-0.273-0.75-0.819-0.75
					c-0.655,0-1.337,0.371-2.031,1.095c-0.702,0.735-1.051,1.311-1.051,1.729c0,0.377,0.349,0.827,1.024,1.351
					c-0.629,0.313-0.981,0.503-1.063,0.575c-0.085,0.069-0.282,0.399-0.597,0.958l4.279-1.351
					C279.029,50.028,279.285,49.922,279.336,49.855z"/>
				<path fill="#186F50" d="M285.522,51.472l-0.626-0.253c-0.629,1.257-0.94,2.595-0.94,4.037c0,0.357,0.348,0.728,1.052,1.126v1.4
					c0,1.426-0.385,3.092-1.168,5.011c-0.765-1.149-1.34-1.98-1.723-2.505c-1.298-1.772-2.781-3.504-4.456-5.184
					c-1.678-1.686-2.736-2.53-3.199-2.53c-0.375,0-0.562,0.757-0.562,2.262c0,1.917,0.466,3.418,1.416,4.48
					c0.744,0.857,1.578,1.283,2.5,1.283c0.12,0,0.224-0.086,0.31-0.276c0.082-0.194,0.16-0.37,0.222-0.533
					c0.917,0.897,1.572,1.562,1.979,2c0.31,0.384,1.093,1.352,2.346,2.917c-1.24,1.318-2.6,2.422-4.084,3.318v4.641
					c1.887-0.062,3.203-0.156,3.914-0.282c0.855-0.141,2.026-0.491,3.511-1.034c0.127-1.546,0.19-2.7,0.19-3.479
					c0-0.492-0.144-1.062-0.438-1.686c-0.292-0.545-0.579-1.106-0.869-1.666c0.75-1.733,1.232-3.084,1.445-4.069
					c0.147-0.609,0.281-1.694,0.418-3.259l1.082,0.4c0.326-1.326,0.541-2.626,0.621-3.873c-1.17-0.371-1.896-0.663-2.189-0.877
					C285.894,52.593,285.646,52.14,285.522,51.472z M284.43,68.009c-0.201,0.054-0.787,0.136-1.782,0.235
					c0.752-0.552,1.554-1.237,2.386-2.034l0.751,1.162C285.072,67.746,284.623,67.967,284.43,68.009z"/>
				<path fill="#186F50" d="M292.157,53.837c0-0.009,0-0.023,0-0.029C292.157,53.807,292.157,53.813,292.157,53.837z"/>
				<path fill="#186F50" d="M289.78,53.807c0.034-0.051,0.32,1.754,0.869,5.396c0.577,3.894,0.87,6.927,0.87,9.09
					c0,0.633-0.121,1.565-0.372,2.813l0.909,0.41c1.114-2.246,1.682-3.97,1.682-5.161c0-3.26-0.733-8.868-2.188-16.84
					C290.383,51.775,289.8,53.203,289.78,53.807z"/>
				<polygon fill="#186F50" points="311.094,50.337 313.258,51.609 315.105,48.455 312.186,46.794 310.808,49.216 308.523,47.98 
					306.67,51.143 309.614,52.865 			"/>
				<polygon fill="#186F50" points="339.385,74.265 337.067,73.091 335.42,76.359 338.301,77.819 339.62,75.389 341.815,76.516 
					343.442,73.38 340.62,71.884 			"/>
				<path fill="#186F50" d="M349.635,56.843c0.406-1.023,0.771-2.246,1.072-3.673c-0.613-0.333-1.227-0.652-1.834-0.965
					c-0.496-0.315-0.735-0.648-0.735-0.977c0-0.085,0.002-0.189,0.024-0.313c0.014-0.127,0.014-0.225,0-0.285l-0.685-0.223
					c-0.942,1.854-1.411,3.374-1.411,4.589l0.926,0.569l2.055,10.771c-0.51,0.081-0.977,0.117-1.438,0.117
					c-0.211,0-0.855-0.029-1.92-0.092c-0.643-0.029-1.305-0.037-1.953-0.037v-0.031c0-1.854-0.145-3.235-0.439-4.15
					c-0.229-0.767-0.752-1.668-1.573-2.707l-1.253,3.611c0.746,1.119,1.314,2.202,1.722,3.246h-6.694h-0.783h-4.852h-1.002h-4.636h-1
					h-6.285c-0.84-0.112-1.427-0.503-1.778-1.214c-0.244-0.476-0.502-1.561-0.775-3.254l-1.445-8.947
					c-0.834,1.837-1.244,3.039-1.244,3.604c0,0.098,0,0.273,0.025,0.529c-0.018,0.228-0.018,0.401,0,0.53
					c-4.321,2.61-6.486,5.336-6.486,8.164c0,0.256,0.658,0.516,1.996,0.791c1.139,0.203,1.98,0.312,2.547,0.312
					c0.352,0,0.771-0.23,1.25-0.688c0.206-0.21,0.799-0.856,1.752-1.941c0.438,2.514,0.793,4.037,1.045,4.576
					c0.533,1.159,1.486,1.766,2.857,1.819v0.002h0.209h0.678h5.656h1h4.636h1.003h5.633v-0.035h7.338v0.035h7.873V65.96l-1.699-9.34
					L349.635,56.843z M310.801,62.671c-0.194,0-0.525-0.051-1.002-0.162c-0.549-0.097-0.821-0.203-0.821-0.308
					c0-0.458,0.875-1.163,2.612-2.099c0.236-0.124,0.412-0.202,0.535-0.255l0.305,1.887C311.487,62.35,310.946,62.671,310.801,62.671
					z"/>
				<path fill="#186F50" d="M393.081,63.745c0,0.083,0.135,0.407,0.402,0.967c0.268,0.565,0.4,0.962,0.4,1.19v0.277
					c-1.24-0.269-2.178-0.507-2.805-0.722c0.153-0.921,0.221-1.537,0.221-1.848c0-0.205,0-0.522,0-0.939
					c-0.021-0.414-0.027-0.73-0.027-0.938c-0.671,0.481-1.08,0.803-1.223,0.973c-0.082,0.084-0.305,0.563-0.657,1.445
					c-0.265,0.649-0.722,1.137-1.308,1.455c-0.832,0.443-2.103,0.686-3.812,0.717v-0.01c-1.146-0.381-1.719-0.89-1.719-1.537
					c0-0.338,0.004-0.826,0.031-1.476c0.02-0.651,0.028-1.131,0.028-1.444l-1.032-0.123c-0.289,1.888-0.754,3.102-1.379,3.652
					c-0.574,0.497-1.765,0.799-3.554,0.913v-0.008h-11.456h-0.994h-6.55c-0.871-0.113-1.431-0.449-1.679-1.039
					c-0.176-0.356-0.274-1.253-0.321-2.687l-0.166-4.14c-0.063-2.404-0.165-3.979-0.31-4.736c-0.209-1.059-0.688-2.244-1.434-3.538
					l-1.625,4.018c0.428,0.599,0.666,0.98,0.734,1.125c0.293,0.646,0.506,1.616,0.625,2.906c0.359,3.957,0.597,6.253,0.72,6.899
					c0.646,3.654,1.653,5.477,3.009,5.477h0.1h0.927h5.97h0.994h11.456v-0.01c1.397-0.059,2.325-0.188,2.787-0.396
					c0.515-0.229,1.198-0.877,2.082-1.954c0.438,0.986,0.713,1.537,0.825,1.639c0.281,0.36,0.828,0.603,1.615,0.723h0.142h0.637
					h1.949c1.047,0,1.834-0.088,2.358-0.269c0.265-0.08,0.732-0.317,1.373-0.702c1.773,0.51,3.521,0.832,5.248,0.971V65.38
					c0-1.604-0.258-3.123-0.77-4.545C393.69,62.457,393.081,63.434,393.081,63.745z"/>
				<path fill="#186F50" d="M406.098,64.376c1.248,1.719,1.869,2.912,1.869,3.591c0,0.87-0.928,2.149-2.783,3.819
					c-1.961,1.781-3.633,2.667-5.01,2.667c-0.838,0-2.199-0.526-4.094-1.594l-0.637,0.968c1.766,1.178,2.934,1.932,3.514,2.264
					c1.525,0.836,2.781,1.259,3.791,1.259c1.082,0,2.395-0.742,3.912-2.234c1.697-1.619,2.531-3.27,2.531-4.917v-4.249
					c0-2.027-0.73-3.97-2.186-5.83L406.098,64.376z"/>
				<path fill="#186F50" d="M415.354,76.574c-0.662-0.352-0.994-0.613-0.994-0.777c0-0.354,0.412-0.528,1.238-0.528
					c0.168,0,0.6,0.18,1.271,0.551c0.271-0.623,0.416-1.082,0.416-1.375c0-0.5-0.275-0.75-0.814-0.75
					c-0.662,0-1.35,0.361-2.043,1.096c-0.695,0.729-1.047,1.303-1.047,1.719c0,0.375,0.344,0.822,1.021,1.356
					c-0.635,0.307-0.986,0.501-1.07,0.571c-0.08,0.076-0.285,0.396-0.584,0.963l4.285-1.35c0.463-0.149,0.715-0.253,0.762-0.314
					c0.055-0.067,0.16-0.371,0.309-0.937c-0.561,0.168-1.135,0.246-1.684,0.246C416.305,77.044,415.961,76.895,415.354,76.574z"/>
				<path fill="#186F50" d="M420.237,51.472l-0.633-0.253c-0.623,1.257-0.938,2.595-0.938,4.037c0,0.357,0.35,0.728,1.053,1.126v1.4
					c0,1.426-0.395,3.092-1.17,5.011c-0.771-1.149-1.338-1.98-1.715-2.505c-1.297-1.772-2.783-3.504-4.461-5.184
					c-1.662-1.686-2.732-2.53-3.203-2.53c-0.369,0-0.568,0.757-0.568,2.262c0,1.917,0.484,3.418,1.412,4.48
					c0.76,0.857,1.588,1.283,2.514,1.283c0.121,0,0.225-0.086,0.312-0.276c0.09-0.194,0.156-0.37,0.223-0.533
					c0.912,0.897,1.57,1.562,1.975,2c0.316,0.384,1.092,1.352,2.338,2.917c-1.229,1.318-2.59,2.422-4.082,3.318v4.641
					c1.91-0.062,3.211-0.156,3.924-0.282c0.852-0.141,2.021-0.491,3.508-1.034c0.131-1.546,0.182-2.7,0.182-3.479
					c0-0.492-0.143-1.062-0.434-1.686c-0.287-0.545-0.572-1.106-0.867-1.666c0.756-1.733,1.238-3.084,1.451-4.069
					c0.145-0.609,0.287-1.694,0.41-3.259l1.092,0.4c0.326-1.326,0.527-2.626,0.619-3.873c-1.174-0.371-1.898-0.663-2.189-0.877
					C420.608,52.593,420.36,52.14,420.237,51.472z M417.78,68.009c-0.207,0.054-0.789,0.136-1.773,0.235
					c0.75-0.552,1.543-1.237,2.381-2.034l0.762,1.162C418.424,67.746,417.979,67.967,417.78,68.009z"/>
				<path fill="#186F50" d="M425.51,53.807c0.039-0.051,0.32,1.754,0.875,5.396c0.568,3.894,0.861,6.927,0.861,9.09
					c0,0.633-0.115,1.565-0.363,2.813l0.906,0.41c1.117-2.246,1.674-3.97,1.674-5.161c0-3.26-0.729-8.868-2.178-16.84
					C426.118,51.775,425.536,53.203,425.51,53.807z"/>
				<path fill="#186F50" d="M425.51,53.837c0-0.009,0-0.023,0-0.029C425.51,53.807,425.51,53.813,425.51,53.837z"/>
				<polygon fill="#186F50" points="482.45,52.124 478.77,50.153 476.909,53.647 480.551,55.596 			"/>
				<polygon fill="#186F50" points="498.174,51.935 495.206,50.288 493.553,53.451 496.487,55.078 			"/>
				<polygon fill="#186F50" points="497.227,57.629 499.618,58.863 501.368,55.708 498.34,54.07 496.959,56.545 494.581,55.26 
					492.905,58.516 495.858,60.055 			"/>
				<polygon fill="#186F50" points="506.555,55.774 508.776,57.026 510.528,53.773 507.651,52.199 506.299,54.715 504.03,53.559 
					502.354,56.629 505.311,58.155 			"/>
				<path fill="#186F50" d="M541.415,62.667c-0.764-1.757-1.416-2.645-1.961-2.645c-1.334,0-2.287,0.552-2.848,1.646
					c-0.914,1.768-1.51,2.772-1.789,3.022c-1.037,0.967-2.705,1.508-5.008,1.615V65.38c0-1.604-0.273-3.123-0.791-4.545
					c-1.209,1.622-1.812,2.6-1.812,2.91c0,0.083,0.137,0.407,0.4,0.967c0.273,0.565,0.414,0.962,0.414,1.19v0.277
					c-1.252-0.269-2.189-0.507-2.816-0.722c0.154-0.921,0.225-1.537,0.225-1.848c0-0.205,0-0.522,0-0.939
					c-0.014-0.414-0.02-0.73-0.02-0.938c-0.678,0.481-1.088,0.803-1.232,0.973c-0.078,0.084-0.303,0.563-0.66,1.445
					c-0.266,0.649-0.709,1.137-1.312,1.455c-0.82,0.434-2.076,0.686-3.752,0.717v-0.01c-1.156-0.381-1.721-0.89-1.721-1.537
					c0-0.338,0-0.826,0.021-1.476c0.023-0.651,0.041-1.131,0.041-1.444l-1.047-0.123c-0.287,1.888-0.738,3.102-1.373,3.652
					c-0.59,0.509-1.812,0.813-3.658,0.917c-0.031-1.85-0.172-3.196-0.412-4.022c-0.18-0.704-0.697-1.704-1.525-2.972l-1.312,3.724
					c0.645,0.864,1.023,1.383,1.133,1.57c0.141,0.252,0.365,0.821,0.65,1.722h-6.537v-0.95c0-1.61-0.264-3.132-0.787-4.549
					c-1.195,1.625-1.816,2.598-1.816,2.909c0,0.084,0.133,0.409,0.412,0.975c0.262,0.562,0.402,0.965,0.402,1.193v0.277
					c-1.25-0.269-2.188-0.507-2.799-0.722c0.143-0.921,0.219-1.537,0.219-1.848c0-0.205,0-0.522,0-0.939
					c-0.033-0.414-0.033-0.73-0.033-0.938c-0.666,0.481-1.078,0.803-1.225,0.973c-0.078,0.084-0.303,0.563-0.67,1.445
					c-0.262,0.649-0.703,1.137-1.311,1.455c-0.812,0.434-2.066,0.686-3.75,0.717v-0.01c-1.152-0.381-1.721-0.89-1.721-1.537
					c0-0.338,0.006-0.826,0.029-1.476c0.02-0.651,0.023-1.131,0.023-1.444l-1.023-0.123c-0.301,1.888-0.762,3.102-1.391,3.652
					c-0.521,0.467-1.602,0.758-3.191,0.891c-0.072-2.139-0.332-4.05-0.758-5.717c-0.73-2.65-1.801-3.981-3.201-3.981
					c-0.994,0-1.85,0.711-2.582,2.131c-0.693,1.333-1.039,2.774-1.039,4.317c0,0.826,0.447,1.522,1.348,2.094
					c0.574,0.369,1.34,0.674,2.273,0.906c0.525,0.139,0.719,0.211,0.588,0.211c-1.9,0.039-4.104,0.062-6.578,0.065v-0.012h-5.625
					h-1.004h-4.641h-1.002h-4.836h-0.752h-0.041l0,0c-1.559,0.003-3.068,0.527-4.559,1.569c-1.715,1.194-2.568,2.614-2.568,4.251
					c0,0.463,0.854,0.729,2.553,0.824c1.707,0.08,2.549,0.217,2.549,0.401c0,0.252-0.805,0.572-2.416,0.961
					c-1.621,0.392-2.938,0.582-3.939,0.582c-1.846,0-3.232-0.164-4.125-0.506c-1.381-0.496-2.062-1.463-2.062-2.886
					c0-0.873,0.279-1.812,0.869-2.823c0.264-0.451,0.938-1.383,1.998-2.787l-0.916-0.663c-1.354,1.719-2.322,3.076-2.912,4.105
					c-0.977,1.73-1.475,3.341-1.475,4.821c0,1.53,0.756,2.688,2.234,3.48c1.225,0.668,2.713,1.003,4.471,1.003
					c3.273,0,5.691-0.418,7.236-1.264c1.938-1.045,2.912-2.877,2.912-5.5c0-0.355-0.246-0.606-0.74-0.764
					c-0.488-0.14-0.746-0.259-0.746-0.341c0-0.144,0.135-0.219,0.404-0.219h1.232v0.035h5.629h1.002h4.641h1.004h4.854h0.771h9.996
					V70.54c1.18-0.061,1.973-0.182,2.381-0.373c0.52-0.229,1.217-0.877,2.076-1.954c0.441,0.986,0.723,1.537,0.814,1.639
					c0.303,0.36,0.846,0.603,1.635,0.723h0.096h0.688h1.916c1.041,0,1.824-0.088,2.344-0.269c0.27-0.08,0.727-0.317,1.377-0.702
					c0.771,0.246,1.537,0.475,2.314,0.702c0.512,0.111,1.17,0.197,1.959,0.234v0.033h8.988v-0.01
					c1.449-0.047,2.428-0.178,2.891-0.396c0.512-0.229,1.205-0.877,2.086-1.954c0.434,0.986,0.705,1.537,0.82,1.639
					c0.281,0.36,0.822,0.603,1.623,0.723h0.102h0.682h1.906c1.037,0,1.82-0.088,2.357-0.269c0.254-0.08,0.721-0.317,1.365-0.702
					c0.768,0.246,1.543,0.475,2.309,0.702c0.527,0.126,1.195,0.2,2.018,0.242v0.025c2.549,0.029,4.123-0.067,4.73-0.282
					c0.379-0.124,0.951-0.683,1.721-1.673c2.514,0.841,3.865,1.303,4.07,1.358c1.17,0.363,2.227,0.562,3.162,0.597V67.13
					C542.555,65.916,542.176,64.425,541.415,62.667z M479.754,63.335c-0.832-0.436-1.25-0.903-1.25-1.398
					c0-0.48,0.281-0.713,0.854-0.713c0.875,0,1.752,0.953,2.613,2.858C481.18,63.916,480.438,63.671,479.754,63.335z M539.27,66.051
					c-0.234,0-1.086-0.302-2.566-0.931c0.311-0.955,0.635-1.434,0.971-1.434c0.457,0,0.92,0.331,1.402,0.998
					c0.404,0.562,0.604,0.924,0.604,1.087C539.678,65.96,539.54,66.051,539.27,66.051z"/>
			</g>
		</g>
	</g>
</svg>
